<svg width="600" height="307" viewBox="0 0 600 307" fill="none" xmlns="http://www.w3.org/2000/svg">
<g clip-path="url(#clip0_1257_662)">
<path d="M573.368 169.555L571.488 184.521L566.823 221.694H473.112C473.844 213.363 474.844 201.37 475.913 188.424C476.019 187.131 476.129 185.83 476.234 184.521C478.914 151.978 481.847 115.152 481.847 115.152L494.167 117.447L518.07 121.892L527.81 123.702L553.893 128.559C566.897 130.975 575.842 149.804 573.368 169.555Z" fill="#F2F2F2"/>
<path d="M502.484 54.9307L514.008 75.0969L491.859 90.7939L482.41 66.0058L502.484 54.9307Z" fill="#FFB6B6"/>
<path d="M487.812 74.0088C503.58 74.0088 516.361 61.2271 516.361 45.46C516.361 29.6929 503.58 16.9111 487.812 16.9111C472.045 16.9111 459.264 29.6929 459.264 45.46C459.264 61.2271 472.045 74.0088 487.812 74.0088Z" fill="#FFB6B6"/>
<path d="M485.763 51.8425C483.496 48.3925 484.386 46.588 482.488 45.3201C482.488 45.3201 481.724 44.8099 476.259 44.519C475.035 35.7116 473.507 34.6436 473.507 34.6435C471.747 33.4126 469.134 33.8125 467.509 34.5654C464.071 36.1577 464.469 39.5973 462.155 40.2555C458.957 41.1647 453.14 36.039 452.566 30.171C452.099 25.3844 455.183 20.7354 456.406 20.9813C457.619 21.2252 460.522 17.5183 462.09 17.5755C463.161 17.6145 467.535 15.7131 468.712 15.8618C469.997 16.0241 474.235 18.2355 474.411 17.7302C475.639 14.2194 475.278 13.2453 476.319 12.2409C478.164 10.4612 481.182 11.7006 485.917 12.3659C495.659 13.7349 497.36 10.5227 502.352 12.7C504.874 13.7998 506.985 16.766 511.102 22.6536C516.861 30.8872 519.74 35.004 519.759 39.8057C519.777 44.7025 517.406 44.3917 516.365 51.6411C515.205 59.7108 517.669 63.4008 514.977 66.0225C512.897 68.0487 508.669 68.5297 506.448 66.7514C502.645 63.7067 507.622 56.36 503.413 50.9924C500.83 47.6976 495.635 46.2316 493.255 47.8602C490.564 49.7018 492.046 55.107 490.154 55.6196C488.533 56.0585 486.158 52.4437 485.763 51.8425Z" fill="#2F2E41"/>
<path d="M552.267 164.283C551.47 177.899 548.307 182.197 547.199 198.277C546.957 201.807 546.812 205.905 546.812 210.792C546.812 212.037 546.819 213.242 546.819 214.419C546.819 216.924 546.771 219.292 546.48 221.694C546.259 223.611 545.878 225.542 545.248 227.577H483.76C483.754 227.563 483.754 227.55 483.746 227.536C483.387 225.972 483.158 224.476 482.985 223.044C482.93 222.587 482.881 222.137 482.84 221.694C482.784 221.175 482.736 220.663 482.688 220.157C482.5 218.143 482.314 216.239 481.87 214.419C481.276 211.906 480.195 209.539 477.98 207.255C477.074 206.32 476.167 205.593 475.281 204.957C475.108 204.839 474.942 204.721 474.769 204.604C472.318 202.921 470 201.71 467.992 198.277C467.958 198.228 467.93 198.173 467.902 198.125C467.556 197.522 466.656 195.944 466.005 193.84C465.32 191.653 464.905 188.904 465.653 186.094C467.432 179.435 474.021 178.771 479.406 172.043C479.988 171.316 480.562 170.513 481.109 169.62C483.545 165.661 484.203 162.172 484.978 158.026C485.103 157.354 485.214 156.69 485.304 156.046C485.373 155.562 485.435 155.084 485.484 154.613C485.913 150.661 485.705 147.255 485.2 144.21C483.553 134.235 478.693 128.061 482.127 119.111C483.207 116.301 484.736 114.189 486.28 112.383C489.547 108.555 492.904 106.07 492.323 101.128C491.734 96.1438 487.955 95.4584 487.533 91.1044C487.318 88.9035 488.038 86.5846 489.388 84.3072V84.3005C493.707 76.9699 504.492 70.221 511.344 70.4356C512.611 70.4705 513.732 70.754 514.666 71.3009C518.052 73.2943 516.64 77.6482 521.824 83.7536C525.679 88.2873 530.04 90.101 531.695 90.9591C538.25 94.3788 543.58 104.464 547.199 117.359C547.227 117.456 547.255 117.553 547.283 117.657C549.519 125.735 551.097 134.907 551.879 144.21C552.211 148.148 552.405 152.108 552.446 156.025C552.482 159.154 552.412 161.868 552.267 164.283Z" fill="#BFE6FE"/>
<path d="M506.222 210.93L504.969 214.419L504.18 216.606L502.352 221.694L500.235 227.577H486.619L488.903 221.694L489.962 218.953L491.721 214.419L494.669 206.805L506.222 210.93Z" fill="#FFB6B6"/>
<path d="M547.415 116.169C547.38 116.619 547.331 117.117 547.283 117.657C546.743 123.153 545.469 132.989 543.608 144.21C542.625 150.128 541.475 156.434 540.181 162.698C537.399 176.217 533.938 189.528 530.027 198.277C529.328 199.855 528.608 201.281 527.874 202.541C527.313 203.503 526.724 204.451 526.109 205.386C524.115 208.452 521.879 211.36 519.561 214.073C519.471 214.191 519.367 214.301 519.263 214.419C518.889 214.862 518.501 215.298 518.114 215.734C516.217 217.873 514.279 219.866 512.403 221.694C510.119 223.923 507.918 225.896 505.945 227.577H483.836L483.746 227.536L480.562 226.124C480.562 226.124 481.469 225.058 482.985 223.044C483.297 222.635 483.629 222.185 483.989 221.694C484.432 221.092 484.91 220.427 485.421 219.707C486.487 218.198 487.699 216.426 489 214.419C491.52 210.536 494.392 205.76 497.293 200.229C497.625 199.585 497.964 198.935 498.303 198.277C498.31 198.256 498.324 198.235 498.331 198.215C498.906 197.093 499.473 195.937 500.041 194.76C504.851 184.751 506.229 176.445 506.624 173.753C507.177 169.946 507.945 164.622 507.738 158.766C507.599 154.904 507.039 150.82 505.703 146.764V146.757C505.426 145.906 505.114 145.054 504.762 144.21C504.132 142.694 503.384 141.199 502.498 139.724C498.587 133.232 495.41 132.962 492.883 125.887C492.136 123.79 490.44 119.056 490.959 114.058V114.051C491.022 113.435 491.125 112.812 491.264 112.189V112.182C491.298 112.009 491.347 111.829 491.396 111.656C491.79 110.126 492.441 108.61 493.43 107.17C495.362 104.374 497.998 102.713 500.359 101.723L500.366 101.716C503.093 100.581 505.447 100.339 505.904 100.297C516.016 99.3974 523.859 107.897 528.144 112.542C529.798 114.335 531.314 115.837 532.699 117.062C543.476 126.684 546.432 120.537 547.2 117.36C547.317 116.868 547.38 116.446 547.415 116.169Z" fill="#BFE6FE"/>
<path d="M547.449 115.809C547.449 115.844 547.442 115.961 547.414 116.155C547.428 116.051 547.435 115.947 547.442 115.85C547.442 115.83 547.442 115.816 547.449 115.809Z" fill="#BFE6FE"/>
<path d="M492.474 261.869H121.424C117.977 261.869 115.167 264.672 115.167 268.119C115.167 271.573 117.977 274.376 121.424 274.376H492.474C495.921 274.376 498.725 271.573 498.725 268.119C498.725 264.672 495.921 261.869 492.474 261.869Z" fill="#E6E6E6"/>
<path d="M410.132 294.181H203.761C200.314 294.181 197.511 296.984 197.511 300.431C197.511 303.878 200.314 306.688 203.761 306.688H410.132C413.579 306.688 416.389 303.878 416.389 300.431C416.389 296.984 413.579 294.181 410.132 294.181Z" fill="#E6E6E6"/>
<path d="M162.714 56.2579L186.099 46.4165L196.129 66.9784L171.555 77.0086L162.714 56.2579Z" fill="#FFB6B6"/>
<path opacity="0.1" d="M162.714 56.2579L186.099 46.4165L196.129 66.9784L171.555 77.0086L162.714 56.2579Z" fill="black"/>
<path d="M166.038 48.4225L189.108 75.0026C189.108 75.0026 173.059 125.655 157.011 130.169C140.963 134.682 111.373 156.749 111.373 156.749L74.2617 132.676L92.3161 106.096C92.3161 106.096 135.947 46.4165 147.482 46.4165C159.017 46.4165 166.038 48.4225 166.038 48.4225Z" fill="#BFE6FE"/>
<path d="M134.869 221.694H81.1676L77.7723 217.156L63.9106 198.625L60.721 194.362C60.721 194.362 48.6848 172.296 51.1923 152.235C53.6999 132.175 79.7784 127.661 79.7784 127.661H80.8516L112.778 155.716L110.872 181.824L120.982 198.625L134.869 221.694Z" fill="#2F2E41"/>
<path d="M92.1658 221.694H77.7725V200.38L92.1658 221.694Z" fill="#2F2E41"/>
<path d="M402.61 189.337L400.819 198.625L396.376 221.694H307.112C307.809 216.524 308.762 209.081 309.78 201.047C309.881 200.245 309.986 199.437 310.086 198.625C312.639 178.429 315.432 155.575 315.432 155.575L327.168 157L349.936 159.758L359.214 160.881L384.059 163.895C396.446 165.395 404.967 177.08 402.61 189.337Z" fill="#F2F2F2"/>
<path d="M528.935 221.694H480.52C481.257 220.827 481.673 220.325 481.673 220.325L496.187 217.928L526.092 212.993C526.092 212.993 527.456 216.519 528.935 221.694Z" fill="#2F2E41"/>
<path d="M323.569 66.2886L344.625 96.0653L307.897 97.1621L303.955 69.179L323.569 66.2886Z" fill="#A0616A"/>
<path opacity="0.1" d="M323.569 66.2886L344.625 96.0653L307.897 97.1621L303.955 69.179L323.569 66.2886Z" fill="black"/>
<path d="M219.734 127.984C217.033 120.19 210.821 115.267 205.862 116.987C200.902 118.707 199.073 126.419 201.777 134.215C202.814 137.344 204.586 140.179 206.943 142.483L218.807 175.359L234.117 169.463L220.795 137.678C221.221 134.409 220.857 131.084 219.734 127.984Z" fill="#A0616A"/>
<path d="M362.257 112.811L362.229 143.158L359.405 154.366L353.598 177.421L349.37 198.625L346.22 214.422L345.097 220.064C344.249 220.631 343.407 221.172 342.564 221.694H269.209C265.041 219.192 262.709 217.246 262.709 217.246C262.709 217.246 263.862 216.162 265.181 214.422C267.408 211.483 270.101 206.669 268.451 202.07C268.105 201.107 268.015 199.934 268.12 198.625C268.792 189.989 277.85 175.385 277.85 175.385L275.974 153.709L275.151 144.211L280.95 97.896L299.852 86.908L303.116 86.5923L335.328 84.8521L348.642 85.6193L349.248 85.7849L362.257 112.811Z" fill="#CCCCCC"/>
<path d="M363.688 221.694H347.64L346.933 214.423L346.918 214.277L351.462 213.966L363.282 213.159L363.488 217.512L363.648 220.852L363.688 221.694Z" fill="#FFB6B6"/>
<path d="M367.639 120.149L374.381 159.703L368.879 198.625L368.021 204.683L366.507 215.38L366.04 218.67L366.056 219.026L366.171 221.694H347.114L346.411 214.422L346.351 213.77L344.917 198.876L344.892 198.625L341.848 167.04L347.816 144.211L348.257 142.531V142.526L350.854 103.438L348.842 85.6748L348.822 85.5093C348.863 85.5344 348.898 85.5595 348.938 85.5845C349.043 85.6497 349.148 85.7149 349.249 85.7851C360.964 93.2175 367.945 106.257 367.639 120.149Z" fill="#CCCCCC"/>
<path d="M287.778 105.475L280.45 97.8955C280.45 97.8955 264.761 104.968 263.979 108.892C263.197 112.816 235.498 170.445 235.498 170.445L223.447 138.259L207.761 148.732C207.761 148.732 220.348 198.703 232.119 201.049C243.89 203.395 283.342 141.904 283.342 141.904L287.778 105.475Z" fill="#CCCCCC"/>
<path d="M585.346 198.277H14.6469C6.56908 198.277 0 204.853 0 212.931C0 221.008 6.56907 227.577 14.6469 227.577H585.346C593.424 227.577 600 221.009 600 212.931C600 204.852 593.424 198.277 585.346 198.277Z" fill="#E6E6E6"/>
<path d="M358.917 153.625L357.808 205.403C357.7 210.415 353.607 214.422 348.593 214.422H253.346C248.451 214.422 244.41 210.596 244.142 205.709L241.312 153.931C241.023 148.651 245.227 144.211 250.515 144.211H349.703C354.87 144.211 359.028 148.459 358.917 153.625Z" fill="#3F3D56"/>
<path d="M205.155 68.7567C217.741 68.7567 227.944 58.554 227.944 45.9684C227.944 33.3828 217.741 23.1802 205.155 23.1802C192.57 23.1802 182.367 33.3828 182.367 45.9684C182.367 58.554 192.57 68.7567 205.155 68.7567Z" fill="#FFB6B6"/>
<path d="M167.041 105.595L169.548 132.676L186.6 201.383L171.869 206.546L146.98 131.673L143.543 101.583L167.041 105.595Z" fill="#FFB6B6"/>
<path d="M160.258 153.625L159.149 205.403C159.041 210.415 154.947 214.422 149.934 214.422H54.6864C49.7916 214.422 45.7505 210.596 45.4833 205.709L42.6527 153.931C42.364 148.651 46.5678 144.211 51.8558 144.211H151.043C156.211 144.211 160.369 148.459 160.258 153.625Z" fill="#3F3D56"/>
<path d="M189.314 214.772C199.254 214.772 207.311 211.208 207.311 206.812C207.311 202.415 199.254 198.852 189.314 198.852C179.375 198.852 171.317 202.415 171.317 206.812C171.317 211.208 179.375 214.772 189.314 214.772Z" fill="#FFB6B6"/>
<path d="M131.685 109.735L141.966 54.942C141.966 54.942 170.552 50.9299 171.555 60.4586C172.558 69.9873 170.838 116.555 170.838 116.555L131.685 109.735Z" fill="#BFE6FE"/>
<path d="M195.957 49.5513C195.957 49.5513 210.054 44.5202 216 41.8132C221.946 39.1062 233.76 57.9872 234.022 48.0155C234.285 38.0438 230.203 33.8621 230.203 33.8621C230.203 33.8621 229.184 12.0476 207.206 14.7749C207.206 14.7749 212.04 3.86089 196.172 2.17324C180.304 0.48558 155.617 38.8048 157.828 44.5314C160.039 50.258 162.689 54.9924 156.417 61.1154C150.144 67.2384 138.399 101.795 147.335 111.094C156.272 120.393 156.858 124.428 150.735 130.213C144.612 135.998 130.139 148.577 145.788 150.761C161.436 152.945 144.356 151.314 156.022 141.052C167.689 130.79 184.712 131.21 178.356 114.746C171.999 98.2816 183.043 74.6889 181.661 71.1098C180.279 67.5307 184.757 44.803 184.757 44.803C184.757 44.803 195.178 43.272 195.957 49.5513Z" fill="#2F2E41"/>
<path d="M312.311 77.0664C326.011 77.0664 337.117 65.9601 337.117 52.2598C337.117 38.5594 326.011 27.4531 312.311 27.4531C298.61 27.4531 287.504 38.5594 287.504 52.2598C287.504 65.9601 298.61 77.0664 312.311 77.0664Z" fill="#A0616A"/>
<path d="M314.291 18.9089C313.573 19.3279 312.611 18.694 312.381 17.8953C312.151 17.0967 312.419 16.2487 312.685 15.4613L314.024 11.497C314.973 8.68539 315.98 5.77557 318.036 3.6356C321.139 0.405662 326.071 -0.416019 330.51 0.17926C336.211 0.943718 341.835 4.03066 344.486 9.13531C347.137 14.24 346.008 21.3628 341.219 24.5476C348.045 32.3717 350.424 41.0914 350.049 51.4681C349.673 61.8447 338.365 71.3946 330.991 78.7045C329.344 77.7062 327.847 73.0279 328.752 71.3283C329.658 69.6288 328.36 67.6598 329.482 66.0943C330.604 64.5289 331.542 67.0216 330.408 65.465C329.693 64.4827 332.485 62.2231 331.422 61.6352C326.277 58.7917 324.567 52.3798 321.336 47.4697C317.439 41.5472 310.769 37.5365 303.711 36.8711C299.823 36.5045 295.716 37.1684 292.529 39.4257C289.342 41.683 287.279 45.7167 288.018 49.5516C286.104 47.6082 285.151 44.7602 285.51 42.0563C285.87 39.3525 287.533 36.8521 289.888 35.4761C288.456 30.7406 289.683 25.2933 293.007 21.6287C296.331 17.9641 309.814 18.5883 314.666 19.5527L314.291 18.9089Z" fill="#2F2E41"/>
<path d="M315.044 37.0146C321.471 37.7084 326.111 43.2756 330.03 48.4168C332.288 51.3801 334.654 54.6526 334.597 58.378C334.54 62.1445 332.022 65.3751 330.818 68.9446C328.851 74.7791 330.768 81.7207 335.451 85.7184C330.824 86.5965 325.822 83.1271 325.023 78.4855C324.093 73.0823 328.189 67.8673 327.704 62.4061C327.277 57.5947 323.485 53.8917 320.262 50.2943C317.038 46.6968 314.011 41.923 315.494 37.326L315.044 37.0146Z" fill="#2F2E41"/>
<path d="M411.127 201.413C404.761 205.034 401.469 211.253 403.774 215.304C406.079 219.355 413.107 219.703 419.475 216.08C422.038 214.668 424.226 212.662 425.855 210.231L452.634 194.548L445.007 182.139L419.418 198.916C416.494 199.074 413.651 199.93 411.127 201.413Z" fill="#FFB6B6"/>
<path d="M501.795 86.4141C500.995 86.0969 493.974 83.4378 487.563 86.9486C480.199 90.9815 479.062 100.188 478.663 103.417C477.742 110.876 480.456 112.548 481.029 120.099C482.102 134.227 484.929 118.11 480.414 124.559C478.851 126.791 462.889 161.382 454.087 168.157C436.966 181.335 426.095 190.615 426.095 190.615L438.506 204.097C438.506 204.097 458.118 198.872 475.453 187.616C493.234 176.07 502.125 170.297 509.003 159.004C509.595 158.032 523.768 133.963 516.157 107.35C514.42 101.279 511.239 90.1565 501.795 86.4141Z" fill="#BFE6FE"/>
<path d="M565.883 153.625L564.774 205.403C564.666 210.415 560.572 214.422 555.559 214.422H460.311C455.417 214.422 451.375 210.596 451.108 205.709L448.278 153.931C447.989 148.651 452.193 144.211 457.481 144.211H556.668C561.836 144.211 565.994 148.459 565.883 153.625Z" fill="#3F3D56"/>
</g>
<defs>
<clipPath id="clip0_1257_662">
<rect width="600" height="306.688" fill="white"/>
</clipPath>
</defs>
</svg>
