<svg width="300" height="173" viewBox="0 0 300 173" fill="none" xmlns="http://www.w3.org/2000/svg">
<g clip-path="url(#clip0_906_909)">
<path d="M65.0021 153.008C73.6187 153.008 80.6038 146.023 80.6038 137.406C80.6038 128.79 73.6187 121.805 65.0021 121.805C56.3855 121.805 49.4004 128.79 49.4004 137.406C49.4004 146.023 56.3855 153.008 65.0021 153.008Z" fill="#F2F2F2"/>
<path d="M67.5392 150.725C76.1558 150.725 83.1409 143.74 83.1409 135.123C83.1409 126.507 76.1558 119.521 67.5392 119.521C58.9226 119.521 51.9375 126.507 51.9375 135.123C51.9375 143.74 58.9226 150.725 67.5392 150.725Z" fill="#BFE6FE"/>
<path d="M273.139 117.86H80.1035V118.387H273.139V117.86Z" fill="#3F3D56"/>
<path d="M180.076 4.91216H111.561V3.5H80.4931V4.91216H11.6951C11.0865 4.91216 10.4838 5.03204 9.92154 5.26495C9.35925 5.49785 8.84834 5.83923 8.41798 6.26959C7.98762 6.69995 7.64624 7.21086 7.41333 7.77315C7.18042 8.33544 7.06055 8.9381 7.06055 9.54672V103.366C7.06055 104.595 7.54883 105.773 8.41798 106.643C9.28712 107.512 10.4659 108 11.6951 108H180.076C181.305 108 182.484 107.512 183.353 106.643C184.222 105.773 184.711 104.595 184.711 103.366V9.54672C184.711 8.9381 184.591 8.33544 184.358 7.77315C184.125 7.21086 183.784 6.69995 183.353 6.26959C182.923 5.83923 182.412 5.49785 181.85 5.26495C181.287 5.03204 180.685 4.91216 180.076 4.91216Z" fill="#3F3D56"/>
<path d="M178.497 13.1025H13.2734V106.305H178.497V13.1025Z" fill="#BFE6FE"/>
<path d="M95.7454 10.5606C96.6813 10.5606 97.44 9.80188 97.44 8.86598C97.44 7.93008 96.6813 7.17139 95.7454 7.17139C94.8095 7.17139 94.0508 7.93008 94.0508 8.86598C94.0508 9.80188 94.8095 10.5606 95.7454 10.5606Z" fill="#BFE6FE"/>
<path opacity="0.1" d="M131.246 106.305H13.2734V13.1025L131.246 106.305Z" fill="black"/>
<path d="M39.1259 99.3309C47.8972 99.3309 55.0077 92.2204 55.0077 83.4491C55.0077 74.6779 47.8972 67.5674 39.1259 67.5674C30.3546 67.5674 23.2441 74.6779 23.2441 83.4491C23.2441 92.2204 30.3546 99.3309 39.1259 99.3309Z" fill="#F2F2F2"/>
<path d="M149.729 63.3677H134.295V66.5926H149.729V63.3677Z" fill="#3F3D56"/>
<path d="M168.388 38.2593H115.637V39.6414H168.388V38.2593Z" fill="#3F3D56"/>
<path d="M168.388 42.6357H115.637V44.0179H168.388V42.6357Z" fill="#3F3D56"/>
<path d="M168.388 47.0127H115.637V48.3948H168.388V47.0127Z" fill="#3F3D56"/>
<path d="M168.388 51.3892H115.637V52.7713H168.388V51.3892Z" fill="#3F3D56"/>
<path d="M168.388 55.7661H115.637V57.1482H168.388V55.7661Z" fill="#3F3D56"/>
<path d="M168.387 14.9937H161.938V21.4435H168.387V14.9937Z" fill="#F2F2F2"/>
<path d="M171.383 24.438H163.551V16.606H171.383V24.438ZM163.891 24.0975H171.042V16.9465H163.891V24.0975Z" fill="#3F3D56"/>
<path d="M189.35 104.611H173.225V103.449C173.225 103.419 173.219 103.389 173.208 103.361C173.196 103.333 173.179 103.308 173.158 103.286C173.137 103.265 173.111 103.248 173.083 103.236C173.055 103.225 173.025 103.219 172.995 103.219H167.467C167.436 103.219 167.406 103.225 167.378 103.236C167.35 103.248 167.325 103.265 167.304 103.286C167.282 103.308 167.265 103.333 167.254 103.361C167.242 103.389 167.236 103.419 167.236 103.449V104.611H163.781V103.449C163.781 103.419 163.775 103.389 163.763 103.361C163.752 103.333 163.735 103.308 163.713 103.286C163.692 103.265 163.667 103.248 163.639 103.236C163.611 103.225 163.581 103.219 163.551 103.219H158.022C157.992 103.219 157.962 103.225 157.934 103.236C157.906 103.248 157.881 103.265 157.859 103.286C157.838 103.308 157.821 103.333 157.809 103.361C157.798 103.389 157.792 103.419 157.792 103.449V104.611H154.336V103.449C154.336 103.419 154.331 103.389 154.319 103.361C154.307 103.333 154.29 103.308 154.269 103.286C154.248 103.265 154.222 103.248 154.194 103.236C154.166 103.225 154.136 103.219 154.106 103.219H148.578C148.547 103.219 148.517 103.225 148.49 103.236C148.462 103.248 148.436 103.265 148.415 103.286C148.393 103.308 148.376 103.333 148.365 103.361C148.353 103.389 148.347 103.419 148.347 103.449V104.611H144.892V103.449C144.892 103.419 144.886 103.389 144.874 103.361C144.863 103.333 144.846 103.308 144.825 103.286C144.803 103.265 144.778 103.248 144.75 103.236C144.722 103.225 144.692 103.219 144.662 103.219H139.133C139.103 103.219 139.073 103.225 139.045 103.236C139.017 103.248 138.992 103.265 138.97 103.286C138.949 103.308 138.932 103.333 138.92 103.361C138.909 103.389 138.903 103.419 138.903 103.449V104.611H135.448V103.449C135.448 103.419 135.442 103.389 135.43 103.361C135.418 103.333 135.401 103.308 135.38 103.286C135.359 103.265 135.333 103.248 135.305 103.236C135.277 103.225 135.247 103.219 135.217 103.219H129.689C129.658 103.219 129.628 103.225 129.601 103.236C129.573 103.248 129.547 103.265 129.526 103.286C129.504 103.308 129.487 103.333 129.476 103.361C129.464 103.389 129.458 103.419 129.458 103.449V104.611H126.003V103.449C126.003 103.419 125.997 103.389 125.986 103.361C125.974 103.333 125.957 103.308 125.936 103.286C125.914 103.265 125.889 103.248 125.861 103.236C125.833 103.225 125.803 103.219 125.773 103.219H120.244C120.214 103.219 120.184 103.225 120.156 103.236C120.128 103.248 120.103 103.265 120.081 103.286C120.06 103.308 120.043 103.333 120.031 103.361C120.02 103.389 120.014 103.419 120.014 103.449V104.611H116.559V103.449C116.559 103.419 116.553 103.389 116.541 103.361C116.529 103.333 116.512 103.308 116.491 103.286C116.47 103.265 116.444 103.248 116.416 103.236C116.388 103.225 116.358 103.219 116.328 103.219H73.0219C72.9916 103.219 72.9617 103.225 72.9337 103.236C72.9058 103.248 72.8804 103.265 72.859 103.286C72.8376 103.308 72.8206 103.333 72.8091 103.361C72.7975 103.389 72.7915 103.419 72.7915 103.449V104.611H69.3362V103.449C69.3362 103.419 69.3303 103.389 69.3187 103.361C69.3071 103.333 69.2902 103.308 69.2688 103.286C69.2474 103.265 69.222 103.248 69.194 103.236C69.1661 103.225 69.1361 103.219 69.1059 103.219H63.5774C63.5472 103.219 63.5172 103.225 63.4893 103.236C63.4613 103.248 63.4359 103.265 63.4145 103.286C63.3931 103.308 63.3762 103.333 63.3646 103.361C63.353 103.389 63.3471 103.419 63.3471 103.449V104.611H59.8918V103.449C59.8918 103.419 59.8858 103.389 59.8742 103.361C59.8626 103.333 59.8457 103.308 59.8243 103.286C59.8029 103.265 59.7775 103.248 59.7496 103.236C59.7216 103.225 59.6917 103.219 59.6614 103.219H54.1329C54.1027 103.219 54.0727 103.225 54.0448 103.236C54.0168 103.248 53.9914 103.265 53.97 103.286C53.9487 103.308 53.9317 103.333 53.9201 103.361C53.9085 103.389 53.9026 103.419 53.9026 103.449V104.611H50.4473V103.449C50.4473 103.419 50.4413 103.389 50.4298 103.361C50.4182 103.333 50.4012 103.308 50.3798 103.286C50.3584 103.265 50.333 103.248 50.3051 103.236C50.2771 103.225 50.2472 103.219 50.2169 103.219H44.6885C44.6582 103.219 44.6283 103.225 44.6003 103.236C44.5724 103.248 44.547 103.265 44.5256 103.286C44.5042 103.308 44.4872 103.333 44.4756 103.361C44.4641 103.389 44.4581 103.419 44.4581 103.449V104.611H41.0028V103.449C41.0028 103.419 40.9969 103.389 40.9853 103.361C40.9737 103.333 40.9568 103.308 40.9354 103.286C40.914 103.265 40.8886 103.248 40.8606 103.236C40.8327 103.225 40.8027 103.219 40.7725 103.219H35.244C35.2137 103.219 35.1838 103.225 35.1558 103.236C35.1279 103.248 35.1025 103.265 35.0811 103.286C35.0597 103.308 35.0428 103.333 35.0312 103.361C35.0196 103.389 35.0136 103.419 35.0136 103.449V104.611H31.5584V103.449C31.5584 103.419 31.5524 103.389 31.5408 103.361C31.5292 103.333 31.5123 103.308 31.4909 103.286C31.4695 103.265 31.4441 103.248 31.4161 103.236C31.3882 103.225 31.3582 103.219 31.328 103.219H25.7995C25.7693 103.219 25.7393 103.225 25.7114 103.236C25.6834 103.248 25.658 103.265 25.6366 103.286C25.6153 103.308 25.5983 103.333 25.5867 103.361C25.5751 103.389 25.5692 103.419 25.5692 103.449V104.611H22.1139V103.449C22.1139 103.419 22.1079 103.389 22.0963 103.361C22.0848 103.333 22.0678 103.308 22.0464 103.286C22.025 103.265 21.9996 103.248 21.9717 103.236C21.9437 103.225 21.9138 103.219 21.8835 103.219H16.3551C16.3248 103.219 16.2949 103.225 16.2669 103.236C16.239 103.248 16.2136 103.265 16.1922 103.286C16.1708 103.308 16.1538 103.333 16.1422 103.361C16.1307 103.389 16.1247 103.419 16.1247 103.449V104.611H5.52847C4.06223 104.611 2.65604 105.193 1.61925 106.23C0.582464 107.267 1.39689e-06 108.673 0 110.139V112.639C4.19067e-06 114.105 0.582468 115.512 1.61926 116.548C2.65605 117.585 4.06223 118.168 5.52847 118.168H189.35C190.816 118.168 192.223 117.585 193.259 116.548C194.296 115.512 194.879 114.105 194.879 112.639V110.139C194.879 108.673 194.296 107.267 193.259 106.23C192.223 105.193 190.816 104.611 189.35 104.611Z" fill="#3F3D56"/>
<path d="M42.9716 93.369C39.0131 93.369 35.1435 92.1951 31.8521 89.9959C28.5607 87.7967 25.9954 84.6708 24.4806 81.0137C22.9657 77.3565 22.5693 73.3322 23.3416 69.4498C24.1139 65.5673 26.0201 62.0011 28.8192 59.202C31.6183 56.4029 35.1845 54.4967 39.0669 53.7244C42.9494 52.9522 46.9737 53.3485 50.6308 54.8634C54.288 56.3782 57.4139 58.9435 59.6131 62.2349C61.8123 65.5263 62.9862 69.3959 62.9862 73.3544C62.9801 78.6608 60.8695 83.7481 57.1174 87.5002C53.3652 91.2524 48.2779 93.363 42.9716 93.369ZM42.9716 53.8665C39.1173 53.8665 35.3495 55.0095 32.1447 57.1508C28.94 59.2922 26.4422 62.3358 24.9672 65.8967C23.4922 69.4577 23.1062 73.376 23.8582 77.1563C24.6101 80.9366 26.4662 84.409 29.1916 87.1344C31.917 89.8598 35.3894 91.7159 39.1697 92.4678C42.95 93.2198 46.8683 92.8338 50.4293 91.3588C53.9902 89.8839 57.0338 87.3861 59.1752 84.1813C61.3165 80.9765 62.4595 77.2087 62.4595 73.3544C62.4536 68.1877 60.3986 63.2343 56.7451 59.5809C53.0917 55.9275 48.1383 53.8724 42.9716 53.8665Z" fill="#3F3D56"/>
<path d="M221.521 8.57031H154.367V9.09701H221.521V8.57031Z" fill="#3F3D56"/>
<path d="M300 147.619H106.965V148.145H300V147.619Z" fill="#3F3D56"/>
<path d="M117.894 171.847H50.7402V172.373H117.894V171.847Z" fill="#3F3D56"/>
<path d="M131.411 144.842H124.037V152.216H131.411V144.842Z" fill="#BFE6FE"/>
<path d="M135.887 148.002H126.934V139.048H135.887V148.002ZM127.323 147.613H135.498V139.438H127.323V147.613Z" fill="#3F3D56"/>
<path d="M217.001 5.79346H209.627V13.1672H217.001V5.79346Z" fill="#BFE6FE"/>
<path d="M221.477 8.95388H212.523V0H221.477V8.95388ZM212.913 8.56458H221.088V0.3893H212.913V8.56458Z" fill="#3F3D56"/>
<path d="M291.264 144.842H283.891V152.216H291.264V144.842Z" fill="#BFE6FE"/>
<path d="M295.741 148.002H286.787V139.048H295.741V148.002ZM287.176 147.613H295.352V139.438H287.176V147.613Z" fill="#3F3D56"/>
<path d="M278.405 61.0863H277.779V43.926C277.779 42.6218 277.522 41.3303 277.023 40.1253C276.524 38.9203 275.792 37.8254 274.87 36.9031C273.947 35.9809 272.853 35.2493 271.648 34.7502C270.443 34.251 269.151 33.9941 267.847 33.9941H231.491C230.186 33.9941 228.895 34.251 227.69 34.7501C226.485 35.2493 225.39 35.9809 224.468 36.9031C223.545 37.8254 222.814 38.9203 222.315 40.1253C221.815 41.3303 221.559 42.6218 221.559 43.926V138.069C221.559 139.373 221.815 140.664 222.315 141.869C222.814 143.074 223.545 144.169 224.468 145.091C225.39 146.014 226.485 146.745 227.69 147.244C228.895 147.744 230.186 148 231.491 148H267.847C269.151 148 270.443 147.744 271.648 147.244C272.853 146.745 273.947 146.014 274.87 145.091C275.792 144.169 276.524 143.074 277.023 141.869C277.522 140.664 277.779 139.373 277.779 138.069V73.3013H278.405V61.0863Z" fill="#3F3D56"/>
<path d="M275.664 44.5097V138.515C275.665 140.482 274.884 142.369 273.493 143.76C272.102 145.151 270.216 145.933 268.249 145.933H231.717C229.75 145.933 227.863 145.151 226.472 143.76C225.082 142.369 224.3 140.482 224.301 138.515V44.5097C224.301 42.5429 225.082 40.6568 226.473 39.2661C227.864 37.8753 229.75 37.094 231.717 37.0938H236.149C235.931 37.6288 235.848 38.2092 235.907 38.784C235.966 39.3587 236.165 39.9101 236.488 40.3896C236.81 40.8691 237.245 41.262 237.755 41.5336C238.265 41.8053 238.834 41.9473 239.412 41.9473H260.24C260.818 41.9473 261.387 41.8053 261.897 41.5336C262.407 41.262 262.842 40.8692 263.164 40.3897C263.487 39.9102 263.686 39.3587 263.745 38.784C263.804 38.2092 263.721 37.6288 263.503 37.0938H268.249C270.215 37.094 272.101 37.8753 273.492 39.2661C274.883 40.6568 275.664 42.5429 275.664 44.5097Z" fill="#BFE6FE"/>
<path d="M255.424 99.0767H244.541V102.302H255.424V99.0767Z" fill="#3F3D56"/>
<path d="M268.58 73.9683H231.385V75.3504H268.58V73.9683Z" fill="#3F3D56"/>
<path d="M268.58 78.3447H231.385V79.7268H268.58V78.3447Z" fill="#3F3D56"/>
<path d="M268.58 82.7217H231.385V84.1038H268.58V82.7217Z" fill="#3F3D56"/>
<path d="M268.58 87.0981H231.385V88.4803H268.58V87.0981Z" fill="#3F3D56"/>
<path d="M268.58 91.4751H231.385V92.8572H268.58V91.4751Z" fill="#3F3D56"/>
<path d="M251.282 55.6138H244.832V62.0637H251.282V55.6138Z" fill="#F2F2F2"/>
<path d="M247.301 57.2266V65.0586H255.133V57.2266H247.301ZM254.793 64.7189H247.64V57.5663H254.793V64.7189Z" fill="#3F3D56"/>
<path opacity="0.1" d="M275.664 128.476V138.515C275.665 140.482 274.884 142.369 273.493 143.76C272.102 145.151 270.216 145.933 268.249 145.933H231.717C229.75 145.933 227.863 145.151 226.472 143.76C225.082 142.369 224.3 140.482 224.301 138.515V87.8965L255.078 112.212L255.605 112.628L261.33 117.149L261.865 117.573L275.664 128.476Z" fill="black"/>
<path d="M246.822 142.887C253.202 142.887 258.375 137.715 258.375 131.334C258.375 124.954 253.202 119.782 246.822 119.782C240.442 119.782 235.27 124.954 235.27 131.334C235.27 137.715 240.442 142.887 246.822 142.887Z" fill="#F2F2F2"/>
<path d="M84.3177 172.374C79.7862 172.374 75.3565 171.03 71.5888 168.512C67.821 165.995 64.8844 162.417 63.1503 158.23C61.4162 154.043 60.9625 149.437 61.8465 144.992C62.7305 140.548 64.9126 136.466 68.1169 133.261C71.3211 130.057 75.4035 127.875 79.8479 126.991C84.2922 126.107 88.899 126.561 93.0855 128.295C97.272 130.029 100.85 132.966 103.368 136.733C105.885 140.501 107.229 144.931 107.229 149.462C107.222 155.537 104.806 161.36 100.511 165.655C96.2156 169.951 90.392 172.367 84.3177 172.374ZM84.3177 127.077C79.8904 127.077 75.5625 128.39 71.8814 130.85C68.2002 133.31 65.3311 136.806 63.6369 140.896C61.9427 144.986 61.4994 149.487 62.3631 153.829C63.2268 158.171 65.3587 162.16 68.4893 165.291C71.6198 168.421 75.6084 170.553 79.9506 171.417C84.2928 172.28 88.7936 171.837 92.8839 170.143C96.9742 168.449 100.47 165.58 102.93 161.898C105.39 158.217 106.702 153.889 106.702 149.462C106.696 143.527 104.335 137.838 100.139 133.641C95.9421 129.445 90.2524 127.084 84.3177 127.077Z" fill="#3F3D56"/>
<path d="M250.226 140.245C247.362 140.245 244.561 139.395 242.179 137.804C239.797 136.212 237.941 133.95 236.845 131.303C235.748 128.657 235.462 125.745 236.021 122.935C236.579 120.125 237.959 117.544 239.985 115.519C242.01 113.493 244.591 112.114 247.401 111.555C250.21 110.996 253.123 111.283 255.769 112.379C258.416 113.475 260.678 115.332 262.27 117.714C263.861 120.096 264.711 122.896 264.711 125.761C264.706 129.601 263.179 133.282 260.464 135.998C257.748 138.713 254.067 140.24 250.226 140.245ZM250.226 111.803C247.466 111.803 244.767 112.622 242.472 114.155C240.177 115.689 238.388 117.869 237.331 120.419C236.275 122.97 235.999 125.776 236.537 128.484C237.076 131.191 238.405 133.678 240.357 135.63C242.309 137.582 244.796 138.911 247.503 139.45C250.211 139.988 253.017 139.712 255.568 138.656C258.118 137.599 260.298 135.81 261.832 133.515C263.365 131.22 264.184 128.521 264.184 125.761C264.18 122.06 262.708 118.512 260.091 115.896C257.475 113.279 253.927 111.807 250.226 111.803Z" fill="#3F3D56"/>
</g>
<defs>
<clipPath id="clip0_906_909">
<rect width="300" height="172.374" fill="white"/>
</clipPath>
</defs>
</svg>
