<svg width="500" height="359" viewBox="0 0 500 359" fill="none" xmlns="http://www.w3.org/2000/svg">
<g clip-path="url(#clip0_1257_607)">
<path d="M404.643 228.015C405.09 228.057 405.539 227.96 405.929 227.738C406.319 227.515 406.632 227.179 406.824 226.773C407.016 226.367 407.079 225.912 407.004 225.47C406.929 225.027 406.72 224.618 406.405 224.299C406.36 224.077 406.328 223.918 406.283 223.696C406.305 223.649 406.327 223.602 406.349 223.556C406.85 222.511 407.648 221.637 408.644 221.045C409.64 220.452 410.788 220.167 411.946 220.225C413.103 220.283 414.217 220.682 415.148 221.372C416.08 222.061 416.787 223.01 417.18 224.1C418.753 228.45 420.81 232.83 421.155 237.368C421.307 239.373 421.11 241.39 420.572 243.329C425.156 234.445 427.777 224.679 428.256 214.693C428.373 212.187 428.35 209.677 428.188 207.173C428.052 205.121 427.827 203.079 427.512 201.047C425.79 190.024 421.478 179.566 414.929 170.533C411.649 168.54 409.058 165.589 407.507 162.078C406.944 160.816 406.567 159.479 406.388 158.109C406.765 158.176 407.149 158.225 407.528 158.268C407.646 158.279 407.77 158.291 407.888 158.303L407.933 158.307C408.349 158.345 408.768 158.262 409.138 158.068C409.508 157.874 409.815 157.577 410.02 157.213C410.225 156.848 410.321 156.432 410.296 156.015C410.27 155.598 410.125 155.197 409.876 154.86C409.722 154.651 409.567 154.441 409.413 154.232C409.178 153.909 408.937 153.592 408.703 153.27C408.675 153.239 408.65 153.206 408.626 153.173C408.356 152.804 408.086 152.443 407.816 152.074C408.377 151.288 409.111 150.641 409.963 150.184C412.91 148.638 416.815 149.986 418.767 152.678C420.725 155.37 420.947 159.03 420.074 162.239C419.236 164.965 417.94 167.529 416.241 169.82C416.387 170.027 416.54 170.227 416.686 170.434C419.361 174.224 421.657 178.267 423.543 182.505C423.253 177.842 424.075 173.177 425.94 168.893C427.814 164.907 431.131 161.632 434.075 158.248C437.612 154.183 444.376 156.344 444.715 161.721C444.718 161.773 444.721 161.825 444.724 161.877C444.301 162.091 443.885 162.319 443.477 162.562C442.965 162.871 442.557 163.328 442.309 163.872C442.06 164.416 441.982 165.023 442.084 165.612C442.186 166.202 442.464 166.747 442.881 167.176C443.298 167.605 443.835 167.898 444.422 168.016L444.482 168.029C444.265 169.51 443.937 170.973 443.498 172.405C442.235 176.401 440.161 180.093 437.405 183.249C434.648 186.405 431.269 188.958 427.48 190.747C427.232 190.861 426.989 190.974 426.741 191.081C428.554 197.096 429.577 203.321 429.784 209.599C429.894 213.303 429.705 217.009 429.218 220.682L429.243 220.553C430.23 216.489 432.59 212.891 435.924 210.365C440.872 206.672 447.673 205.544 452.961 202.636C453.524 202.311 454.168 202.153 454.817 202.182C455.467 202.211 456.094 202.424 456.626 202.798C457.158 203.172 457.572 203.69 457.819 204.291C458.066 204.892 458.137 205.552 458.021 206.191C458.012 206.237 458.003 206.282 457.994 206.328C457.213 206.604 456.45 206.929 455.709 207.301C455.285 207.514 454.87 207.743 454.462 207.986C453.949 208.295 453.542 208.751 453.294 209.296C453.045 209.84 452.967 210.447 453.069 211.036C453.171 211.626 453.449 212.171 453.866 212.6C454.283 213.029 454.82 213.321 455.406 213.44L455.467 213.452C455.51 213.46 455.547 213.468 455.59 213.477C454.135 216.543 452.163 219.335 449.76 221.732C446.795 224.631 443.269 226.894 439.398 228.382C435.528 229.869 431.394 230.551 427.251 230.384L427.244 230.384C425.892 235.218 424.042 239.898 421.722 244.349L404.357 243.541C404.303 243.345 404.257 243.143 404.21 242.947C405.812 243.123 407.431 243.102 409.028 242.885C407.813 241.244 406.599 239.59 405.384 237.95C405.357 237.919 405.331 237.886 405.308 237.852C404.692 237.013 404.069 236.179 403.453 235.34L403.453 235.339C403.534 232.857 403.934 230.395 404.643 228.016L404.643 228.015Z" fill="#F2F2F2"/>
<path d="M54.7408 77.8489C54.2972 77.9179 53.8432 77.8489 53.4401 77.6512C53.0371 77.4535 52.7046 77.1366 52.4877 76.7436C52.2707 76.3506 52.1798 75.9005 52.2273 75.4541C52.2748 75.0077 52.4583 74.5867 52.7531 74.2481C52.7842 74.024 52.8066 73.8631 52.8377 73.639C52.8129 73.5937 52.788 73.5484 52.763 73.5031C52.1985 72.4912 51.3476 71.6686 50.3171 71.1388C49.2866 70.6089 48.1226 70.3953 46.9711 70.5249C45.8196 70.6545 44.7322 71.1214 43.8452 71.8671C42.9583 72.6127 42.3115 73.6038 41.986 74.7159C40.6846 79.1546 38.9023 83.653 38.8379 88.2036C38.8104 90.2149 39.1319 92.2158 39.7883 94.1173C34.664 85.5334 31.4454 75.948 30.3505 66.011C30.0784 63.5172 29.9459 61.0101 29.9536 58.5015C29.9618 56.4447 30.0604 54.3928 30.2493 52.3456C31.2871 41.2367 34.9452 30.5323 40.9232 21.1117C44.0741 18.9196 46.4773 15.8144 47.8091 12.2145C48.2926 10.9199 48.5861 9.56221 48.6806 8.18353C48.3081 8.27419 47.9274 8.34692 47.5523 8.41278C47.4352 8.43175 47.312 8.45144 47.195 8.47045L47.1508 8.47728C46.7375 8.54108 46.3147 8.48408 45.933 8.31312C45.5514 8.14217 45.2274 7.86456 44.9999 7.51371C44.7724 7.16286 44.6511 6.75373 44.6507 6.33557C44.6503 5.91742 44.7708 5.50807 44.9977 5.1568C45.139 4.93827 45.2804 4.71983 45.422 4.50148C45.6361 4.16478 45.857 3.83362 46.0711 3.49698C46.0965 3.46444 46.12 3.43047 46.1415 3.39525C46.3881 3.01115 46.6353 2.63329 46.8819 2.2492C46.2739 1.49847 45.5008 0.898324 44.6227 0.495539C41.5851 -0.866363 37.7714 0.720515 35.9896 3.528C34.2015 6.33611 34.2055 10.0024 35.275 13.1516C36.2804 15.8209 37.7327 18.2996 39.5698 20.4816C39.4365 20.6967 39.2963 20.9062 39.163 21.1213C36.728 25.0695 34.6858 29.2467 33.0657 33.5932C33.0665 28.9212 31.9581 24.3157 29.8317 20.1557C27.7151 16.2933 24.202 13.2287 21.0542 10.033C17.2732 6.19457 10.6561 8.76899 10.6496 14.1569C10.6495 14.209 10.6496 14.2612 10.6498 14.3133C11.0861 14.5005 11.5152 14.7028 11.9372 14.9204C12.4678 15.1971 12.9024 15.6275 13.1841 16.1554C13.4658 16.6832 13.5814 17.2839 13.5159 17.8786C13.4505 18.4733 13.2068 19.0344 12.817 19.4883C12.4272 19.9422 11.9093 20.2678 11.3313 20.4224L11.2721 20.4382C11.5797 21.9038 11.9983 23.3438 12.5241 24.7459C14.0314 28.6559 16.3301 32.2124 19.2762 35.1923C22.2223 38.1723 25.7523 40.5115 29.6448 42.0632C29.8999 42.1608 30.1488 42.2591 30.4032 42.3506C28.9656 48.4658 28.3293 54.7421 28.5103 61.0214C28.6289 64.7248 29.0468 68.4125 29.7599 72.0485L29.7271 71.9204C28.4903 67.9256 25.9127 64.4799 22.4296 62.1654C17.2626 58.785 10.4053 58.0791 4.94752 55.5037C4.36572 55.2137 3.71311 55.0961 3.06668 55.1649C2.42025 55.2336 1.80695 55.4857 1.29912 55.8916C0.79129 56.2974 0.410107 56.84 0.200534 57.4554C-0.0090385 58.0707 -0.0382641 58.7332 0.116308 59.3646C0.128123 59.4095 0.140062 59.4543 0.152116 59.4991C0.948713 59.7268 1.73034 60.0039 2.49248 60.3288C2.92877 60.5161 3.35791 60.7185 3.77992 60.936C4.31045 61.2126 4.74504 61.6431 5.02674 62.1709C5.30845 62.6988 5.42412 63.2995 5.35863 63.8942C5.29313 64.4889 5.04952 65.05 4.6597 65.5039C4.26988 65.9578 3.75203 66.2834 3.17401 66.438L3.11478 66.4538C3.0721 66.4647 3.03559 66.475 2.99299 66.4859C4.63483 69.4561 6.77571 72.1216 9.32183 74.3656C12.4604 77.0757 16.1195 79.1162 20.0747 80.3619C24.0298 81.6077 28.1978 82.0325 32.323 81.6102L32.3292 81.6095C33.9771 86.3505 36.1133 90.9075 38.7034 95.2068L55.986 93.327C56.0272 93.1282 56.0613 92.9239 56.0962 92.7258C54.5074 93.0004 52.891 93.0794 51.283 92.9611C52.3941 91.2482 53.5039 89.5229 54.615 87.81C54.6404 87.7775 54.664 87.7435 54.6855 87.7083C55.2483 86.8323 55.818 85.9618 56.3808 85.0858L56.3811 85.0848C56.1472 82.6125 55.5961 80.1807 54.7413 77.8493L54.7408 77.8489Z" fill="#F2F2F2"/>
<path d="M293.515 71.4441C294.371 71.6794 295.164 72.0995 295.84 72.6746C296.515 73.2498 297.056 73.9661 297.425 74.7731C297.794 75.58 297.981 76.458 297.974 77.3452C297.967 78.2324 297.765 79.1072 297.383 79.908L306.657 90.2191L301.766 97.3834L288.873 82.6382C287.571 81.9074 286.581 80.7241 286.093 79.3125C285.604 77.901 285.65 76.3592 286.222 74.9794C286.794 73.5995 287.853 72.4775 289.197 71.8259C290.541 71.1744 292.078 71.0385 293.515 71.4441Z" fill="#A0616A"/>
<path d="M380.34 96.763C379.504 95.4022 378.407 94.2198 377.113 93.2836C375.819 92.3475 374.353 91.676 372.799 91.3077C371.245 90.9394 369.633 90.8816 368.057 91.1375C366.48 91.3934 364.97 91.958 363.612 92.799L333.111 111.69L300.209 83.7222L292.023 91.3438L328.37 138.502L375.61 113.875C374.508 114.449 381.672 98.9313 380.34 96.763Z" fill="#CCCCCC"/>
<path d="M319.917 159.576C319.92 174.64 316.955 189.557 311.192 203.474C305.428 217.392 296.979 230.038 286.328 240.69C275.676 251.342 263.03 259.791 249.112 265.554C235.194 271.318 220.277 274.283 205.213 274.28C141.864 274.28 90.5088 222.924 90.5088 159.576C90.4979 147.253 92.4732 135.01 96.3588 123.316C103.987 100.479 118.602 80.6174 138.136 66.5403C157.67 52.4633 181.135 44.8831 205.213 44.8716C225.978 44.8644 246.356 50.4963 264.171 61.1663C281.986 71.8362 296.568 87.1436 306.363 105.454C308.791 109.972 310.909 114.65 312.703 119.455C312.952 120.124 313.194 120.793 313.43 121.468V121.475C314.481 124.444 315.407 127.469 316.208 130.549C318.678 140.027 319.925 149.781 319.917 159.576Z" fill="#3F3D56"/>
<path d="M192.663 82.1865C187.508 79.399 181.785 77.8254 175.93 77.5859C170.074 77.3463 164.242 78.4471 158.877 80.8042C154.153 82.8601 149.178 86.5481 147.603 93.208C153.976 89.4465 162.227 95.3896 163.867 104.924L163.484 105.029C162.618 111.633 164.551 118.822 168.295 122.917C168.787 118.664 171.583 115.769 174.334 113.961C177.085 112.153 180.128 110.839 182.227 107.731C184.716 104.046 185.348 98.661 186.337 93.7483C187.326 88.8356 189.202 83.5555 192.663 82.1865Z" fill="white"/>
<path d="M156.986 138.381C155.221 141.032 152.863 142.695 150.747 144.766C148.638 146.843 146.631 149.647 146.21 153.248C145.942 155.554 146.357 157.899 146.299 160.232C146.242 162.564 145.464 165.19 143.878 165.769C141.373 166.674 139.462 162.022 136.887 161.697C134.842 161.443 133 164.661 133.593 167.452C134.185 170.243 136.97 171.479 138.569 169.657C140.016 172.085 138.996 176.488 136.823 177.233C136.594 178.763 136.365 180.286 136.142 181.815C130.648 177.973 125.098 174.066 120.427 168.439C115.232 162.234 112.01 154.619 111.174 146.569C110.569 140.101 111.467 132.703 108.498 127.726C106.121 123.743 102.043 122.864 98.372 123.112C97.703 123.157 97.0275 123.233 96.3584 123.316C98.5231 116.815 101.272 110.523 104.572 104.518C105.319 104.197 106.013 103.765 106.631 103.237C110.046 100.337 111.563 94.4682 114.335 90.4089C114.513 90.1476 114.698 89.8927 114.889 89.6443C117.725 85.9418 121.523 84.0365 125.194 82.2649C133.319 78.3204 141.679 74.3249 150.257 74.8729L147.816 75.1087C144.967 83.087 142.117 91.0653 139.264 99.0436C138.831 100.267 138.393 101.493 137.951 102.721C136.333 107.258 134.663 112.088 134.912 117.167C135.058 120.175 136.103 123.386 138.092 124.419C139.946 125.375 141.972 124.202 143.763 123.042C144.521 122.558 145.273 122.074 146.032 121.583C148.753 119.83 151.767 118.033 154.641 119.206C157.273 120.277 159.216 123.851 159.586 127.707C159.925 131.455 159.01 135.209 156.986 138.381Z" fill="white"/>
<path d="M173.17 192.851C165.223 187.958 157.276 183.065 149.329 178.172L149.464 177.824C144.522 179.706 142.471 188.489 143.288 195.672C144.104 202.855 146.873 209.276 148.272 216.274C150.158 225.852 149.446 235.759 146.21 244.969C156.66 233.243 165.908 220.5 173.816 206.929C174.92 205.219 175.762 203.353 176.313 201.392C176.818 199.307 176.74 196.8 175.729 195.128C175.078 194.168 174.199 193.385 173.17 192.851Z" fill="white"/>
<path d="M141.805 103.831C140.961 105.728 140.636 108.258 141.402 110.221C142.184 112.226 143.837 113.132 145.36 113.887L149.751 116.063C151.212 116.788 152.786 117.519 154.275 116.923C156.072 116.205 157.317 113.389 156.995 110.774C156.652 107.993 154.898 106.079 153.277 104.45C151.007 102.169 148.738 99.8888 146.468 97.6084L145.189 99.175C143.806 100.524 142.661 102.099 141.805 103.831Z" fill="white"/>
<path d="M296.377 133.57C298.353 134.035 300.328 134.5 302.304 134.965C301.96 141.637 298.652 147.812 294.217 150.049C292.369 150.979 290.311 151.323 288.781 153.063C287.399 154.643 286.698 157.103 286.054 159.454C284.926 163.558 283.798 167.662 282.67 171.766C281.459 176.189 279.905 181.102 276.757 182.695C274.055 184.065 270.964 182.389 268.887 179.579C266.809 176.768 265.541 172.99 264.311 169.306C264.388 173.321 262.521 177.259 259.876 178.655C257.225 180.05 254.001 178.788 252.229 175.672C250.955 173.436 250.426 170.485 249.177 168.217C247.928 165.948 245.309 164.648 243.945 166.776C243.046 168.191 243.161 170.358 242.715 172.155C242.02 174.946 239.918 176.698 237.834 176.851C235.756 177.004 233.73 175.806 231.99 174.181C228.403 170.817 225.758 165.476 224.732 159.544C224.28 156.899 224.152 154.019 224.936 151.54C225.72 149.061 227.612 147.149 229.492 147.621C230.728 145.008 228.288 141.542 226.089 141.847C223.884 142.153 222.157 144.517 220.348 146.334C218.544 148.15 216.021 149.469 214.205 147.665C214.217 149.341 212.854 150.45 211.675 150.31C210.502 150.176 209.457 149.233 208.38 148.564C204.219 145.97 198.936 147.691 195.979 152.598C197.828 144.734 200.536 135.711 206.214 133.863C208.533 133.104 211.063 133.729 213.255 132.416C217.136 130.09 217.92 121.303 214.568 117.677C214.995 121.105 214.912 125.107 213.102 127.452C211.293 129.797 207.494 128.268 207.724 124.801C207.201 127.191 204.601 127.554 203.403 125.719C202.199 123.883 202.301 120.882 203.155 118.69C204.009 116.498 205.462 114.924 206.87 113.414C209.897 110.17 212.968 106.888 216.473 104.849C219.985 102.81 224.037 102.122 227.555 104.148C229.409 105.219 231.041 107.003 232.933 107.946C234.826 108.895 237.228 108.774 238.484 106.557C239.892 104.084 239.229 100.414 239.752 97.3231C240.689 91.8619 246.15 89.3066 249.177 92.9133C246.914 92.3335 244.576 95.0099 244.295 98.2535C244.009 101.497 245.646 104.773 247.838 105.754C251.522 107.385 255.128 103.281 257.913 99.4834C260.819 95.507 263.729 91.5327 266.644 87.5605C267.109 86.8842 267.631 86.2489 268.205 85.6616C269.118 84.7719 270.334 84.2624 271.609 84.2364C272.883 84.2104 274.12 84.6697 275.068 85.5214C278.012 87.9237 279.395 92.8497 281.81 96.2398C285.315 101.166 290.559 102.364 295.441 103.32C299.079 104.027 302.72 104.739 306.363 105.454C308.791 109.972 310.91 114.65 312.704 119.455C306.535 122.074 300.844 126.974 296.377 133.57Z" fill="white"/>
<path d="M308.14 210.243C305.41 215.787 302.235 221.1 298.645 226.13C296.351 225.148 293.885 226.901 291.738 228.545C289.494 230.265 286.799 231.941 284.498 230.374C282.147 228.768 281.389 224.275 282.134 220.713C282.88 217.157 284.741 214.328 286.544 211.639C288.456 208.784 290.501 205.821 293.159 204.712C295.822 203.603 299.244 205.171 300.022 208.956L301.908 208.892C300.85 207.439 301.405 204.431 302.826 203.903C304.463 203.284 305.884 205.534 306.853 207.522C307.286 208.421 307.726 209.326 308.14 210.243Z" fill="white"/>
<path d="M235.899 183.327C231.845 183.582 228.633 178.59 226.499 173.68C224.365 168.77 222.418 163.155 218.76 160.656C216.67 159.228 214.286 159.032 212.019 158.34C209.752 157.648 207.379 156.216 206.295 153.3L203.723 152.261C200.326 154.171 196.885 156.115 193.958 159.223C190.676 162.71 188.631 167.18 188.14 171.943C187.649 177.091 189.463 182.831 192.853 184.765C195.531 186.293 198.65 185.33 201.363 186.729C204.753 188.477 206.765 193.554 207.527 198.567C208.289 203.58 208.096 208.789 208.641 213.859C209.186 218.929 210.688 224.204 213.797 226.802C217.687 230.053 223.395 227.351 225.14 221.433C225.997 218.53 225.967 215.255 226.607 212.241C227.735 206.934 230.778 202.997 233.191 198.644C235.605 194.291 237.504 188.378 235.899 183.327Z" fill="white"/>
<path d="M195.836 131.18C196.214 131.528 196.567 131.902 196.892 132.3C197.228 132.88 197.4 133.541 197.388 134.211C197.377 134.881 197.183 135.535 196.827 136.103C197.315 136.075 197.793 135.946 198.229 135.725C198.665 135.503 199.05 135.193 199.36 134.815C200.1 133.973 200.751 133.056 201.303 132.079C201.716 131.405 202.156 130.493 201.876 129.692C201.684 129.146 201.231 128.912 200.914 128.501C200.41 127.85 200.286 126.815 200.025 125.921C199.463 123.989 198.115 122.569 196.652 122.366L196.855 122.405C196.244 122.614 195.817 123.584 195.952 124.458C196.075 125.253 196.586 125.913 196.536 126.724C196.463 127.89 195.297 128.438 195.225 129.604C195.214 130.189 195.433 130.755 195.836 131.18Z" fill="white"/>
<path d="M188.89 111.361C188.896 111.36 188.902 111.359 188.908 111.358C189.032 111.244 189.148 111.121 189.254 110.989L188.89 111.361Z" fill="#E6E6E6"/>
<path d="M190.105 116.836C191.001 116.259 191.502 114.665 191.205 113.331C190.911 112.005 189.868 111.113 188.907 111.358C188.628 111.641 188.282 111.848 187.901 111.96C187.52 112.072 187.116 112.086 186.729 111.999C186.134 111.846 185.482 111.452 184.966 111.9C184.671 112.234 184.465 112.637 184.366 113.072C184.175 113.658 183.984 114.244 183.793 114.83C183.702 115.039 183.679 115.272 183.725 115.495C183.762 115.585 183.821 115.664 183.897 115.724C183.973 115.784 184.063 115.824 184.158 115.839C185.303 116.177 186.448 116.514 187.593 116.852C188.427 117.098 189.328 117.335 190.105 116.836Z" fill="white"/>
<path d="M276.542 192.412C276.013 191.545 275.484 190.679 274.954 189.812C274.435 188.809 273.724 187.916 272.862 187.185C272.673 187.027 272.453 186.907 272.217 186.835C271.981 186.762 271.733 186.737 271.487 186.762C271.241 186.786 271.002 186.86 270.785 186.978C270.568 187.096 270.377 187.257 270.223 187.45L270.287 187.945C271.493 189.458 272.77 191.139 273.076 193.386C273.197 194.271 273.155 195.188 273.26 196.077C273.366 196.967 273.667 197.889 274.241 198.273C275.074 198.829 276.053 198.008 276.646 197.007C277.176 196.184 277.414 195.207 277.321 194.232C277.189 193.578 276.924 192.959 276.542 192.412Z" fill="white"/>
<path d="M300.097 159.318C300.25 158.315 300.403 157.311 300.556 156.307C300.804 155.205 300.835 154.064 300.647 152.95C300.604 152.706 300.513 152.474 300.379 152.266C300.245 152.059 300.071 151.88 299.867 151.74C299.663 151.601 299.434 151.503 299.191 151.454C298.949 151.405 298.7 151.404 298.457 151.452L298.188 151.873C298.136 153.807 298.03 155.916 296.818 157.831C296.34 158.587 295.717 159.261 295.225 160.009C294.734 160.758 294.37 161.657 294.562 162.32C294.841 163.283 296.118 163.285 297.217 162.901C298.153 162.613 298.964 162.018 299.52 161.213C299.84 160.628 300.036 159.983 300.097 159.318Z" fill="#E6E6E6"/>
<path d="M284.845 193.54C285.104 192.796 284.73 191.943 284.651 191.12C284.614 190.058 284.895 189.01 285.46 188.109C286.02 187.26 286.445 186.329 286.719 185.349C286.834 184.902 286.813 184.431 286.658 183.997C286.483 183.603 286.059 183.424 285.816 183.735L286.336 184.071C285.633 183.945 284.91 183.98 284.223 184.173C283.83 184.323 283.48 184.566 283.201 184.88C282.922 185.195 282.723 185.571 282.62 185.979C282.534 186.615 282.394 187.241 282.2 187.853C281.89 188.491 281.288 188.704 280.91 189.264C280.653 189.761 280.522 190.315 280.532 190.874C280.541 191.434 280.689 191.983 280.963 192.471C281.438 193.269 282.193 193.863 283.08 194.136C283.717 194.364 284.554 194.376 284.845 193.54Z" fill="white"/>
<path d="M299.63 198C299.86 198.599 300.168 199.164 300.547 199.682C301.254 200.395 302.216 199.957 303.075 199.783C303.854 199.66 304.652 199.75 305.385 200.044C306.117 200.338 306.756 200.824 307.234 201.452C306.901 199.791 306.174 198.234 305.115 196.912C304.055 195.59 302.694 194.542 301.146 193.856C299.121 193.03 296.989 192.951 294.884 192.876L294.521 192.97C295.447 195.667 298.357 195.607 299.63 198Z" fill="white"/>
<path d="M237.008 203.518L237.013 203.529C237.048 203.462 237.084 203.394 237.119 203.326L237.008 203.518Z" fill="#E6E6E6"/>
<path d="M234.765 207.859C234.276 208.747 233.855 209.671 233.507 210.624C233.045 212.166 232.74 213.75 232.595 215.353C232.481 216.265 232.445 217.429 233.017 217.873C233.181 217.982 233.379 218.028 233.574 218.001C233.769 217.975 233.947 217.878 234.076 217.73C234.394 217.394 234.653 217.008 234.845 216.588C235.967 214.654 236.839 212.586 237.438 210.432C237.985 208.164 237.98 205.493 237.013 203.529C236.264 204.973 235.514 206.416 234.765 207.859Z" fill="white"/>
<path d="M213.126 92.1892C213.482 92.5374 213.933 92.7738 214.422 92.8693C214.911 92.9647 215.417 92.915 215.878 92.7263C216.833 92.3088 217.709 91.7302 218.468 91.0158C219.096 90.5509 219.629 89.9696 220.038 89.3033C220.263 88.9052 220.407 88.4666 220.462 88.0125C220.517 87.5585 220.482 87.0981 220.359 86.6577C220.004 85.6205 219.104 85.2729 218.31 85.0374C217.04 84.6606 215.769 84.2837 214.498 83.9069L215.417 83.0782C214.471 82.5706 213.425 83.5127 212.834 84.6791C212.454 85.4407 212.19 86.2543 212.049 87.0933C211.733 88.924 212.042 91.1041 213.126 92.1892Z" fill="#E6E6E6"/>
<path d="M235.564 84.6568C235.922 85.0517 236.417 85.2954 236.949 85.3387C237.48 85.3819 238.008 85.2213 238.425 84.8896C238.784 84.6198 239.083 84.2774 239.301 83.8846C239.519 83.4919 239.652 83.0576 239.691 82.6101C239.781 81.6104 239.286 80.4993 238.581 80.413L238.742 79.4771C237.382 79.2315 235.709 79.1823 234.98 80.8337C234.734 81.4663 234.659 82.1523 234.761 82.8232C234.864 83.4941 235.14 84.1264 235.564 84.6568Z" fill="#E6E6E6"/>
<path d="M232.566 34.8846C224.594 33.9853 216.591 36.2899 210.317 41.2913C204.044 46.2927 200.015 53.5814 199.115 61.5538C197.243 78.1554 205.989 114.206 221.935 129.13C229.443 100.538 255.754 83.5782 259.235 68.3353C262.955 52.0478 249.168 36.7573 232.566 34.8846Z" fill="#BFE6FE"/>
<path d="M227.052 71.792C232.501 71.792 236.918 67.3749 236.918 61.9263C236.918 56.4776 232.501 52.0605 227.052 52.0605C221.604 52.0605 217.187 56.4776 217.187 61.9263C217.187 67.3749 221.604 71.792 227.052 71.792Z" fill="white"/>
<path d="M216.679 143.355C220.247 143.355 223.14 140.462 223.14 136.893C223.14 133.325 220.247 130.432 216.679 130.432C213.11 130.432 210.217 133.325 210.217 136.893C210.217 140.462 213.11 143.355 216.679 143.355Z" fill="#BFE6FE"/>
<path opacity="0.2" d="M235.215 54.8582C236.326 55.5254 237.294 56.4049 238.065 57.4464C238.835 58.4879 239.393 59.6709 239.707 60.928C240.02 62.1851 240.083 63.4916 239.891 64.7729C239.7 66.0542 239.258 67.2853 238.59 68.3958C237.923 69.5063 237.044 70.4745 236.002 71.2451C234.961 72.0157 233.778 72.5736 232.521 72.887C229.982 73.5199 227.295 73.1184 225.053 71.7707C227.339 72.2794 229.733 71.9577 231.804 70.8632C233.875 69.7686 235.489 67.9727 236.357 65.7969C237.225 63.6211 237.29 61.2073 236.541 58.9878C235.792 56.7682 234.278 54.8876 232.269 53.6826C233.308 53.9129 234.303 54.3099 235.215 54.8582Z" fill="#231F20"/>
<path opacity="0.2" d="M259.274 68.3676C255.793 83.6104 229.482 100.57 221.974 129.162C220.474 127.745 219.081 126.219 217.807 124.597C226.244 97.7208 250.917 81.39 254.28 66.6626C257.291 53.4814 248.834 40.9544 236.7 35.6626C251.389 39.355 262.683 53.4416 259.274 68.3676Z" fill="#231F20"/>
<path d="M140.115 73.3796C134.128 72.7042 128.118 74.4349 123.407 78.1908C118.696 81.9467 115.67 87.4202 114.994 93.4072C113.588 105.874 120.156 132.947 132.131 144.155C137.77 122.683 157.528 109.947 160.142 98.4999C162.936 86.2685 152.582 74.7859 140.115 73.3796Z" fill="#BFE6FE"/>
<path d="M135.973 101.095C140.065 101.095 143.382 97.7784 143.382 93.6867C143.382 89.5949 140.065 86.2778 135.973 86.2778C131.881 86.2778 128.564 89.5949 128.564 93.6867C128.564 97.7784 131.881 101.095 135.973 101.095Z" fill="white"/>
<path d="M128.184 154.837C130.864 154.837 133.036 152.664 133.036 149.984C133.036 147.304 130.864 145.132 128.184 145.132C125.504 145.132 123.331 147.304 123.331 149.984C123.331 152.664 125.504 154.837 128.184 154.837Z" fill="#BFE6FE"/>
<path opacity="0.2" d="M142.103 88.3784C142.937 88.8795 143.665 89.54 144.243 90.3221C144.822 91.1042 145.241 91.9926 145.476 92.9366C145.712 93.8807 145.759 94.8618 145.615 95.824C145.471 96.7863 145.139 97.7107 144.638 98.5447C144.137 99.3786 143.476 100.106 142.694 100.684C141.912 101.263 141.024 101.682 140.08 101.917C139.136 102.153 138.155 102.2 137.192 102.056C136.23 101.912 135.306 101.58 134.472 101.079C136.189 101.461 137.986 101.22 139.541 100.398C141.097 99.5756 142.309 98.227 142.961 96.593C143.612 94.959 143.662 93.1464 143.099 91.4796C142.537 89.8128 141.399 88.4005 139.891 87.4956C140.671 87.6686 141.418 87.9667 142.103 88.3784Z" fill="#231F20"/>
<path opacity="0.2" d="M160.171 98.5237C157.556 109.971 137.798 122.706 132.16 144.178C131.033 143.114 129.987 141.968 129.03 140.75C135.366 120.567 153.895 108.303 156.421 97.2433C158.682 87.3447 152.331 77.9373 143.219 73.9634C154.249 76.7363 162.731 87.3148 160.171 98.5237Z" fill="#231F20"/>
<path d="M372.068 341.767H363.933L360.063 310.391L372.07 310.391L372.068 341.767Z" fill="#A0616A"/>
<path d="M376.444 357.213H370.672L369.641 351.763L367.003 357.213H351.694C350.96 357.213 350.245 356.978 349.654 356.543C349.063 356.109 348.626 355.496 348.408 354.796C348.189 354.095 348.201 353.343 348.44 352.649C348.679 351.956 349.134 351.356 349.738 350.94L361.964 342.496V336.987L374.823 337.754L376.444 357.213Z" fill="#2F2E41"/>
<path d="M340.561 341.767H332.427L328.557 310.391L340.563 310.391L340.561 341.767Z" fill="#A0616A"/>
<path d="M344.937 357.213H339.165L338.135 351.763L335.496 357.213H320.187C319.453 357.213 318.738 356.978 318.147 356.543C317.556 356.109 317.119 355.496 316.901 354.796C316.683 354.095 316.694 353.343 316.933 352.649C317.173 351.956 317.627 351.356 318.231 350.94L330.457 342.496V336.987L343.316 337.754L344.937 357.213Z" fill="#2F2E41"/>
<path d="M309.657 258.926C311.214 261.262 328.149 325.452 328.149 325.452L343.165 327.164L341.383 311.013L338.658 282.433L334.44 263.355C334.44 263.355 349.337 229.45 350.279 226.75L350.948 224.812L355.603 267.052C356.156 268.561 356.397 270.165 356.311 271.769C356.171 274.408 358.818 314.103 358.818 314.103L360.09 328.339L372.955 330.127L378.175 305.495C382.534 297.493 380.035 269.06 378.253 266.414C376.471 263.768 377.179 245.336 377.179 245.336C379.455 244.536 393.027 198.253 386.239 198.527C386.674 196.059 387.017 193.857 387.017 193.857L375.233 184.353L345.741 176.686L338.301 173.114C338.301 173.114 325.012 197.686 325.144 198.908C325.328 200.456 324.973 202.02 324.14 203.337L310.723 248.24C310.723 248.24 308.085 256.568 309.657 258.926Z" fill="#2F2E41"/>
<path d="M383.749 98.2469L379.057 88.2856L363.089 88.8994L357.88 99.2625C357.88 99.2625 342.995 117.042 342.513 122.823C341.907 130.094 346.943 165.729 341.907 163.419C341.907 163.419 330.034 177.355 337.06 177.355C344.085 177.355 375.864 197.304 377.949 199.547C380.034 201.791 389.343 203.245 388.562 198.562C387.782 193.878 383.749 168.549 383.749 168.549L394.667 128.72C397.809 120.121 398.786 110.476 391.684 104.7L383.749 98.2469Z" fill="#CCCCCC"/>
<path d="M324.601 68.9284C322.465 68.0806 320.183 67.6617 317.885 67.6958C315.587 67.7298 313.319 68.2161 311.209 69.1269C309.099 70.0377 307.189 71.3551 305.589 73.004C303.988 74.6528 302.728 76.6008 301.88 78.7367C298.314 87.7194 297.723 109.171 304.359 119.922C312.891 105.101 330.152 99.6291 334.409 91.6491C338.958 83.1222 333.583 72.4941 324.601 68.9284Z" fill="#BFE6FE"/>
<path d="M317.418 88.8925C320.57 88.8925 323.125 86.3374 323.125 83.1855C323.125 80.0336 320.57 77.4785 317.418 77.4785C314.266 77.4785 311.711 80.0336 311.711 83.1855C311.711 86.3374 314.266 88.8925 317.418 88.8925Z" fill="white"/>
<path d="M300.246 127.195C302.31 127.195 303.984 125.522 303.984 123.457C303.984 121.393 302.31 119.719 300.246 119.719C298.181 119.719 296.508 121.393 296.508 123.457C296.508 125.522 298.181 127.195 300.246 127.195Z" fill="#BFE6FE"/>
<path opacity="0.2" d="M323.047 80.4795C324.092 81.5726 324.661 83.036 324.628 84.5482C324.596 86.0604 323.964 87.4977 322.872 88.5443C321.78 89.5909 320.317 90.1612 318.805 90.1299C317.292 90.0985 315.854 89.4681 314.807 88.3772C316.006 89.0082 317.39 89.1919 318.713 88.8954C320.035 88.5989 321.209 87.8414 322.023 86.7587C322.838 85.6759 323.241 84.3385 323.16 82.9859C323.079 81.6332 322.519 80.3536 321.581 79.376C322.126 79.6623 322.621 80.035 323.047 80.4795Z" fill="#231F20"/>
<path opacity="0.2" d="M334.425 91.673C330.168 99.6529 312.907 105.125 304.375 119.945C303.753 118.927 303.207 117.864 302.742 116.764C311.532 103.043 327.783 97.6732 331.897 89.9632C335.578 83.0625 332.76 74.7862 326.79 69.9902C334.428 74.2812 338.594 83.8589 334.425 91.673Z" fill="#231F20"/>
<path d="M298.562 122.17C299.431 121.991 300.329 122.004 301.192 122.21C302.055 122.415 302.862 122.807 303.558 123.358C304.253 123.91 304.819 124.607 305.215 125.4C305.612 126.194 305.83 127.065 305.854 127.951L318.801 132.921L317.7 141.526L299.514 134.251C298.022 134.192 296.603 133.588 295.526 132.552C294.449 131.517 293.79 130.123 293.672 128.633C293.555 127.144 293.988 125.664 294.889 124.473C295.79 123.281 297.097 122.462 298.562 122.17Z" fill="#A0616A"/>
<path d="M389.028 104.438C387.664 103.606 386.15 103.051 384.572 102.805C382.994 102.559 381.383 102.628 379.831 103.006C378.279 103.384 376.818 104.065 375.53 105.009C374.242 105.954 373.153 107.143 372.325 108.509L353.741 139.198L311.724 129.238L307.896 139.748L361.704 165.236L388.956 121.83C393.036 116.096 395.034 108.105 389.028 104.438Z" fill="#CCCCCC"/>
<path d="M389.722 66.8279C389.723 69.7857 388.998 72.6986 387.611 75.3109C386.223 77.9231 384.216 80.1548 381.764 81.8101C379.313 83.4654 376.493 84.4936 373.551 84.8045C370.61 85.1154 367.637 84.6995 364.894 83.5933C362.151 82.4871 359.721 80.7244 357.818 78.4599C355.915 76.1955 354.597 73.4985 353.98 70.6058C353.363 67.7131 353.465 64.713 354.278 61.8691C355.09 59.0251 356.589 56.4241 358.642 54.2944L358.728 54.2078C358.873 54.0559 359.018 53.9042 359.169 53.7596C359.17 53.7596 359.171 53.7594 359.172 53.7591C359.173 53.7587 359.174 53.7582 359.174 53.7575C359.175 53.7568 359.176 53.756 359.176 53.7551C359.176 53.7542 359.177 53.7533 359.177 53.7523C359.364 53.5789 359.552 53.4054 359.748 53.2392C362.359 50.95 365.574 49.4618 369.009 48.9529C372.444 48.444 375.953 48.9358 379.116 50.3696C382.279 51.8034 384.961 54.1183 386.842 57.0372C388.723 59.9562 389.723 63.3554 389.722 66.8279Z" fill="#2F2E41"/>
<path d="M367.199 86.1614C375.568 86.1614 382.352 79.3774 382.352 71.0089C382.352 62.6405 375.568 55.8564 367.199 55.8564C358.831 55.8564 352.047 62.6405 352.047 71.0089C352.047 79.3774 358.831 86.1614 367.199 86.1614Z" fill="#9E616A"/>
<path d="M383.29 75.3302L380.78 74.8867C379.377 74.6317 378.085 73.9545 377.078 72.9456C376.07 71.9368 375.395 70.6443 375.142 69.2412L372.692 73.3467L372.585 73.3823C366.748 75.3201 360.676 74.7405 354.024 71.6127C352.122 70.7106 350.277 69.6933 348.499 68.5666L348.368 68.4846L348.357 68.3305C348.018 63.4013 349.124 59.2833 351.472 56.7351C352.374 55.7763 353.468 55.019 354.683 54.5126C355.898 54.0062 357.206 53.7622 358.521 53.7966C358.615 53.7722 358.701 53.7247 358.772 53.6585C358.805 53.6336 358.839 53.6091 358.873 53.5857V53.5602L359.047 53.4783C359.421 53.3026 359.802 53.1342 360.183 52.9804C363.181 51.8197 366.446 51.5285 369.602 52.1403C372.759 52.7521 375.678 54.2421 378.026 56.4389C382.693 60.8948 384.834 68.3725 383.353 75.047L383.29 75.3302Z" fill="#2F2E41"/>
<path d="M415.25 88.2401C410.094 85.5786 416.725 75.9192 415.393 70.2716C414.06 64.624 404.464 62.8076 403.853 57.0372C403.241 51.2668 401.803 45.3152 397.995 40.9366C395.562 38.1386 391.977 36.0731 388.286 36.4236C387.037 36.5421 385.828 36.9285 384.742 37.5563C383.656 38.1841 382.718 39.0387 381.991 40.0618C381.265 41.0848 380.768 42.2524 380.534 43.4849C380.3 44.7174 380.334 45.9859 380.634 47.204C379.583 45.7148 376.863 46.0376 376.19 47.7315C375.591 49.2373 376.914 51.0613 378.47 51.1946C380.506 53.7091 382.838 56.3777 386.027 56.885C386.536 57.0017 387.064 57.0014 387.572 56.8841C388.08 56.7668 388.555 56.5356 388.961 56.208C389.711 55.4873 389.769 54.0464 388.879 53.5079C392.888 55.1003 395.238 59.4346 395.833 63.7069C396.428 67.9792 395.605 72.3019 395.063 76.5812C394.52 80.8605 394.287 85.3621 395.965 89.3359C397.947 94.0311 402.511 97.3962 407.492 98.4753C412.473 99.5545 417.778 98.4998 422.287 96.1235C426.795 93.7471 430.555 90.1193 433.626 86.0521C428.336 89.8089 421.016 91.2163 415.25 88.2401Z" fill="#2F2E41"/>
<path d="M382.645 74.9088C382.645 74.9088 378.157 58.1544 358.916 54.2873C358.894 54.2801 358.822 54.2512 358.728 54.2079C358.67 54.1717 358.598 54.1356 358.525 54.0995C358.742 53.9765 358.952 53.8682 359.169 53.7597L359.172 53.7592L359.174 53.7576L359.175 53.7552L359.176 53.7524C359.364 53.579 359.552 53.4055 359.747 53.2393L360.296 53.261C360.296 53.261 379.602 50.2035 382.645 74.9088Z" fill="#FD6584"/>
<path opacity="0.2" d="M372.596 128.67L361.729 141.26L343.772 135.958L363.348 144.979L372.596 128.67Z" fill="black"/>
<path d="M437.823 358.162L270.743 358.348C270.552 358.347 270.369 358.271 270.234 358.136C270.099 358.001 270.023 357.817 270.023 357.626C270.023 357.435 270.099 357.252 270.234 357.117C270.369 356.982 270.552 356.906 270.743 356.905L437.823 356.719C438.014 356.719 438.198 356.795 438.333 356.93C438.469 357.065 438.545 357.249 438.545 357.44C438.545 357.632 438.469 357.815 438.333 357.95C438.198 358.086 438.014 358.162 437.823 358.162Z" fill="#CACACA"/>
<path d="M445.157 246.044C437.333 246.044 428.759 245.748 419.432 245.157C371.193 242.094 308.709 231.443 243.49 215.169C178.271 198.895 118.108 178.939 74.0856 158.98C52.6408 149.257 36.1821 140.054 25.1671 131.625C13.5051 122.701 8.40394 114.923 10.0048 108.507C13.124 96.0082 40.7433 93.2736 63.3638 93.1807L63.3715 94.9984C32.3076 95.1259 13.9814 100.08 11.7687 108.948C8.9501 120.242 31.9375 137.874 74.8362 157.325C118.762 177.24 178.814 197.157 243.93 213.406C309.046 229.654 371.415 240.286 419.548 243.343C466.553 246.329 495.131 241.563 497.949 230.268C500.289 220.891 484.863 207.077 454.512 191.37L455.347 189.756C477.401 201.169 503 217.538 499.713 230.709C498.112 237.124 489.955 241.594 475.468 243.992C467.209 245.359 457.066 246.044 445.157 246.044Z" fill="#BFE6FE"/>
</g>
<defs>
<clipPath id="clip0_1257_607">
<rect width="500" height="358.348" fill="white"/>
</clipPath>
</defs>
</svg>
