<svg width="300" height="262" viewBox="0 0 300 262" fill="none" xmlns="http://www.w3.org/2000/svg">
<g clip-path="url(#clip0_906_521)">
<path d="M300 257.921L85.2458 261.158L0 246.05H133.08L300 257.921Z" fill="#E6E6E6"/>
<path d="M247.301 68.707C266.274 68.707 281.654 53.3264 281.654 34.3535C281.654 15.3806 266.274 0 247.301 0C228.328 0 212.947 15.3806 212.947 34.3535C212.947 53.3264 228.328 68.707 247.301 68.707Z" fill="#FF6584"/>
<path d="M60.7715 247.846C60.7715 247.846 61.274 237.317 71.5753 238.54L60.7715 247.846Z" fill="#3F3D56"/>
<path d="M57.8608 237.826C60.7083 237.826 63.0166 235.517 63.0166 232.67C63.0166 229.822 60.7083 227.514 57.8608 227.514C55.0134 227.514 52.7051 229.822 52.7051 232.67C52.7051 235.517 55.0134 237.826 57.8608 237.826Z" fill="#BFE6FE"/>
<path d="M58.4788 241.352H57.0234V251.539H58.4788V241.352Z" fill="#3F3D56"/>
<path d="M230.561 249.644C230.561 249.644 231.063 239.115 241.364 240.339L230.561 249.644Z" fill="#3F3D56"/>
<path d="M227.65 239.624C230.497 239.624 232.806 237.316 232.806 234.469C232.806 231.621 230.497 229.313 227.65 229.313C224.802 229.313 222.494 231.621 222.494 234.469C222.494 237.316 224.802 239.624 227.65 239.624Z" fill="#BFE6FE"/>
<path d="M228.268 243.15H226.812V253.338H228.268V243.15Z" fill="#3F3D56"/>
<path d="M255.383 251.443C255.383 251.443 255.885 240.914 266.187 242.138L255.383 251.443Z" fill="#3F3D56"/>
<path d="M252.472 241.423C255.32 241.423 257.628 239.115 257.628 236.267C257.628 233.42 255.32 231.111 252.472 231.111C249.625 231.111 247.316 233.42 247.316 236.267C247.316 239.115 249.625 241.423 252.472 241.423Z" fill="#BFE6FE"/>
<path d="M253.088 244.949H251.633V255.137H253.088V244.949Z" fill="#3F3D56"/>
<path d="M101.422 242.81C101.422 242.81 101.924 232.28 112.226 233.504L101.422 242.81Z" fill="#3F3D56"/>
<path d="M98.5112 232.79C101.359 232.79 103.667 230.481 103.667 227.634C103.667 224.786 101.359 222.478 98.5112 222.478C95.6638 222.478 93.3555 224.786 93.3555 227.634C93.3555 230.481 95.6638 232.79 98.5112 232.79Z" fill="#BFE6FE"/>
<path d="M99.1272 236.316H97.6719V246.503H99.1272V236.316Z" fill="#3F3D56"/>
<path d="M24.8008 244.608C24.8008 244.608 25.3033 234.079 35.6046 235.303L24.8008 244.608Z" fill="#3F3D56"/>
<path d="M21.8901 234.588C24.7376 234.588 27.0459 232.28 27.0459 229.433C27.0459 226.585 24.7376 224.277 21.8901 224.277C19.0427 224.277 16.7344 226.585 16.7344 229.433C16.7344 232.28 19.0427 234.588 21.8901 234.588Z" fill="#BFE6FE"/>
<path d="M22.5061 238.114H21.0508V248.302H22.5061V238.114Z" fill="#3F3D56"/>
<path d="M149.456 226.312C180.479 226.312 205.628 201.162 205.628 170.139C205.628 139.116 180.479 113.966 149.456 113.966C118.433 113.966 93.2832 139.116 93.2832 170.139C93.2832 201.162 118.433 226.312 149.456 226.312Z" fill="#3F3D56"/>
<path d="M114.092 174.648C115.487 172.978 117.232 171.634 119.203 170.712C121.174 169.79 123.324 169.313 125.5 169.313C127.676 169.313 129.826 169.79 131.797 170.712C133.768 171.634 135.513 172.978 136.908 174.648C139.295 172.369 140.945 169.427 141.645 166.202C142.345 162.977 142.063 159.616 140.836 156.553C139.608 153.489 137.492 150.864 134.758 149.014C132.025 147.165 128.8 146.176 125.5 146.176C122.2 146.176 118.975 147.165 116.242 149.014C113.508 150.864 111.391 153.489 110.164 156.553C108.936 159.616 108.654 162.977 109.355 166.202C110.055 169.427 111.705 172.369 114.092 174.648Z" fill="white"/>
<path d="M158.699 174.648C160.094 172.978 161.839 171.634 163.81 170.712C165.782 169.79 167.931 169.313 170.107 169.313C172.283 169.313 174.433 169.79 176.404 170.712C178.376 171.634 180.12 172.978 181.515 174.648C183.903 172.369 185.553 169.427 186.253 166.202C186.953 162.977 186.671 159.616 185.443 156.553C184.216 153.489 182.099 150.864 179.366 149.014C176.632 147.165 173.408 146.176 170.107 146.176C166.807 146.176 163.582 147.165 160.849 149.014C158.116 150.864 155.999 153.489 154.771 156.553C153.544 159.616 153.262 162.977 153.962 166.202C154.662 169.427 156.312 172.369 158.699 174.648Z" fill="white"/>
<path d="M119.865 162.755C123.004 162.755 125.548 160.211 125.548 157.072C125.548 153.933 123.004 151.389 119.865 151.389C116.726 151.389 114.182 153.933 114.182 157.072C114.182 160.211 116.726 162.755 119.865 162.755Z" fill="#3F3D56"/>
<path d="M164.47 162.755C167.609 162.755 170.153 160.211 170.153 157.072C170.153 153.933 167.609 151.389 164.47 151.389C161.332 151.389 158.787 153.933 158.787 157.072C158.787 160.211 161.332 162.755 164.47 162.755Z" fill="#3F3D56"/>
<path d="M108.98 190.791C112.629 190.791 115.588 187.832 115.588 184.182C115.588 180.532 112.629 177.574 108.98 177.574C105.33 177.574 102.371 180.532 102.371 184.182C102.371 187.832 105.33 190.791 108.98 190.791Z" fill="#FF6584"/>
<path d="M184.978 190.791C188.627 190.791 191.586 187.832 191.586 184.182C191.586 180.532 188.627 177.574 184.978 177.574C181.328 177.574 178.369 180.532 178.369 184.182C178.369 187.832 181.328 190.791 184.978 190.791Z" fill="#FF6584"/>
<path d="M146.978 170.965L142.021 192.443L150.282 184.182L146.978 170.965Z" fill="#FF6584"/>
<path d="M172.445 253.572L166.818 248.849L166.949 253.572H165.201L165.061 248.578L157.464 253.572H154.283L165.005 246.525L164.589 231.727L164.279 220.552L166.022 220.504L166.337 231.727L166.752 246.512L175.162 253.572H172.445Z" fill="#3F3D56"/>
<path d="M146.009 253.572L140.381 248.849L140.513 253.572H138.77L138.63 248.578L131.032 253.572H127.852L138.568 246.525L138.154 231.727L137.843 220.552L139.591 220.504L139.905 231.727L140.316 246.512L148.726 253.572H146.009Z" fill="#3F3D56"/>
<path d="M150.283 109.836C148.742 109.836 147.382 111.033 146.473 112.872C145.672 110.107 143.988 108.184 142.022 108.184C141.889 108.197 141.756 108.219 141.625 108.251C140.87 105.298 139.113 103.228 137.066 103.228C134.328 103.228 132.109 106.926 132.109 111.488C132.109 116.05 134.328 119.749 137.066 119.749C137.199 119.736 137.332 119.713 137.463 119.682C138.218 122.635 139.975 124.705 142.022 124.705C143.564 124.705 144.923 123.508 145.832 121.669C146.634 124.434 148.317 126.357 150.283 126.357C153.02 126.357 155.239 122.659 155.239 118.097C155.239 113.535 153.02 109.836 150.283 109.836Z" fill="#3F3D56"/>
<path d="M96.7305 191.426C94.5609 191.426 92.4125 190.998 90.408 190.168C88.4036 189.338 86.5823 188.121 85.0481 186.587C83.514 185.053 82.297 183.231 81.4667 181.227C80.6365 179.222 80.2091 177.074 80.2091 174.904V166.644C80.2091 162.262 81.9498 158.06 85.0481 154.961C88.1465 151.863 92.3487 150.122 96.7305 150.122V191.426Z" fill="#BFE6FE"/>
<path d="M202.182 150.123C204.351 150.123 206.5 150.55 208.504 151.38C210.509 152.21 212.33 153.427 213.864 154.962C215.398 156.496 216.615 158.317 217.445 160.321C218.276 162.326 218.703 164.474 218.703 166.644V174.905C218.703 177.074 218.276 179.223 217.445 181.227C216.615 183.231 215.398 185.053 213.864 186.587C212.33 188.121 210.509 189.338 208.504 190.168C206.5 190.999 204.351 191.426 202.182 191.426L202.182 150.123Z" fill="#BFE6FE"/>
<path d="M210.839 167.942H208.218C208.218 134.698 181.172 107.652 147.927 107.652C114.683 107.652 87.637 134.698 87.637 167.942H85.0156C85.0156 133.252 113.238 105.03 147.927 105.03C182.617 105.03 210.839 133.252 210.839 167.942Z" fill="#BFE6FE"/>
<path d="M57.9697 117.42L57.9702 117.419L56.7387 116.906L51.5426 114.709L49.68 113.922L49.5371 114.283L47.0352 120.6L54.0764 123.58L54.1134 123.614L53.6389 124.732C53.5739 124.835 53.5185 124.943 53.4733 125.055C53.1409 125.895 53.7687 126.729 54.3622 126.964C54.9556 127.199 55.7062 126.71 56.0386 125.87C56.3664 125.043 56.046 123.991 55.4677 123.737L55.4682 123.736L54.2367 123.223L50.0239 121.585L52.431 115.508L52.0742 115.366L49.6663 121.446L49.1453 121.244L51.5627 115.14L51.6264 115.167L56.5784 117.263L56.6153 117.296L56.1409 118.415C56.0759 118.518 56.0205 118.626 55.9753 118.738C55.6429 119.577 56.2707 120.412 56.8641 120.647C57.4576 120.882 58.2081 120.392 58.5405 119.553C58.8684 118.725 58.548 117.674 57.9697 117.42Z" fill="#3F3D56"/>
<path d="M82.3402 132.929C79.7841 131.467 80.2956 128.26 80.2956 128.26C80.2313 126.177 78.51 126.472 78.51 126.472L77.8836 126.615C77.5925 126.48 77.2721 126.42 76.952 126.442L75.9991 126.603C78.169 127.113 77.9907 128.928 77.9907 128.928L78.2947 131.05L72.6089 128.757L73.2617 127.217C73.3519 127.075 73.4289 126.925 73.4916 126.769C73.9533 125.603 73.0814 124.444 72.2571 124.117C71.4329 123.791 70.3904 124.471 69.9288 125.637C69.4734 126.787 69.9184 128.247 70.7217 128.6L70.721 128.602L72.4314 129.314L72.4441 129.273L82.3402 132.929ZM79.4528 129.199L79.6352 131.231C78.9914 130.328 78.6889 129.225 78.7816 128.12C78.7665 127.727 78.6339 127.347 78.4008 127.03C78.7591 127.259 79.047 127.583 79.2326 127.966C79.4183 128.349 79.4945 128.776 79.4528 129.199Z" fill="#3F3D56"/>
<path d="M38.9698 102.883L38.9705 102.882L37.2601 102.169L30.1114 99.3903L31.9157 97.7851C32.2687 97.3145 32.7899 96.9987 33.3704 96.9036C33.9509 96.8085 34.5456 96.9415 35.0303 97.2749L34.4704 96.4427C34.4704 96.4427 33.4178 95.0492 31.9444 96.5236C31.9444 96.5236 30.1214 99.2111 27.2578 98.5261L37.0375 102.665L37.0888 102.712L36.4298 104.266C36.3395 104.408 36.2626 104.558 36.1998 104.714C35.7382 105.88 36.6101 107.039 37.4343 107.366C38.2586 107.692 39.301 107.012 39.7627 105.846C40.2181 104.696 39.773 103.236 38.9698 102.883Z" fill="#3F3D56"/>
<path d="M65.1396 93.788L64.4805 95.3419C64.3903 95.4841 64.3133 95.6342 64.2506 95.7904C63.7889 96.956 64.6609 98.1154 65.4851 98.4419C66.3093 98.7684 67.3518 98.0881 67.8135 96.9224C68.2688 95.7727 67.8238 94.3121 67.0206 93.9591L67.0213 93.9578L65.3109 93.2455L59.4597 90.9709L62.8029 82.5296L62.3074 82.3333L58.9629 90.7778L58.2394 90.4966L61.5969 82.0191L61.6853 82.0566L68.5631 84.9676L68.6145 85.0141L67.9555 86.568C67.8653 86.7101 67.7883 86.8602 67.7256 87.0164C67.2639 88.1821 68.1358 89.3415 68.96 89.668C69.7843 89.9944 70.8268 89.3141 71.2884 88.1485C71.7438 86.9988 71.2988 85.5381 70.4956 85.1852L70.4962 85.1838L68.7858 84.4715L61.7959 81.5167L61.5689 81.4207L58.9821 80.3271L55.3086 89.6023L65.0882 93.7416L65.1396 93.788Z" fill="#3F3D56"/>
<path d="M34.1478 46.2863L34.149 46.2839L31.2046 45.0578L18.8987 40.274L22.0046 37.5107C22.0046 37.5107 24.0706 34.6442 27.3662 36.6324L26.4024 35.1999C26.4024 35.1999 24.5904 32.801 22.054 35.3391C22.054 35.3391 18.9158 39.9656 13.9863 38.7863L30.8214 45.9117L30.9097 45.9918L29.7753 48.6667C29.62 48.9114 29.4875 49.1698 29.3795 49.4387C28.5848 51.4453 30.0857 53.4412 31.5046 54.0032C32.9235 54.5651 34.718 53.394 35.5128 51.3875C36.2966 49.4083 35.5305 46.8939 34.1478 46.2863Z" fill="#3F3D56"/>
<path d="M43.1837 86.47C37.0724 82.9759 38.2953 75.3083 38.2953 75.3083C38.1415 70.3271 34.026 71.0322 34.026 71.0322L32.5282 71.374C31.8324 71.051 31.0663 70.9093 30.301 70.962L28.0225 71.3455C33.2107 72.5645 32.7844 76.9046 32.7844 76.9046L33.5113 81.9792L19.9169 76.4951L21.4778 72.8149C21.6935 72.475 21.8775 72.1161 22.0276 71.7426C23.1314 68.9557 21.0467 66.1835 19.0759 65.403C17.1052 64.6225 14.6128 66.249 13.509 69.0359C12.4203 71.7848 13.4843 75.2771 15.4047 76.1209L15.4031 76.1242L19.4926 77.8273L19.5231 77.7308L43.1837 86.47ZM36.2802 77.5535L36.7177 82.4277C34.1509 79.0204 34.6755 74.9723 34.6755 74.9723C34.6394 74.0322 34.3222 73.1246 33.7651 72.3665C36.7136 74.1309 36.2802 77.5535 36.2802 77.5535Z" fill="#3F3D56"/>
</g>
<defs>
<clipPath id="clip0_906_521">
<rect width="300" height="261.158" fill="white"/>
</clipPath>
</defs>
</svg>
