<svg width="400" height="400" viewBox="0 0 400 400" fill="none" xmlns="http://www.w3.org/2000/svg">
<path d="M137.066 67.8732C71.5798 85.9956 30.5198 146.63 29.2431 207.18C28.4085 246.81 32.1962 279.5 54.5164 312.257C82.4515 353.257 130.713 377.923 180.323 377.39C229.2 376.864 294.283 357.382 325.21 304.76C351.757 269.093 362.936 221.673 353.333 178.683C332.872 87.0832 225.4 33.7732 137.067 67.8699L137.066 67.8732ZM345.31 180.473C356.552 230.81 337.7 287.59 298.4 321.763C259.103 355.937 201.51 367.13 151.703 350.269C103.09 333.83 64.4031 291.215 53.1498 241.702C36.0871 166.652 81.8335 91.4053 159.553 69.4986C238.463 51.0729 327.416 100.395 345.31 180.472V180.473Z" fill="#BFE5FD"/>
<path d="M132.683 144.983C129.357 144.109 126.437 147.538 127.94 150.719C143.767 184.149 153.095 221.132 155.295 247.255C154.634 246.6 153.93 245.986 153.187 245.408C153.337 243.521 152.243 241.714 150.359 241.147C140.807 238.263 131.505 236 122.684 239.783C118.297 241.667 114.779 245.125 112.349 249.288C99.2342 264.313 110.704 289.648 135.641 287.478C159.798 288.432 166.05 266.904 163.122 242.988C161.401 228.925 158.694 215.058 155.109 201.435C191.003 206.992 228.286 198.002 257.403 177.842C260.714 216.626 263.59 232.526 260.624 247.789C259.948 246.677 259.184 245.634 258.318 244.673C258.334 244.639 258.363 244.618 258.378 244.585C259.258 242.492 258.274 240.085 256.181 239.207C219.688 223.863 197.688 254.63 214.118 273.95C222.36 283.653 235.828 286.276 248.668 279.243C255.318 276.47 260.478 271.926 262.745 265.342C272.129 249.492 270.391 229.492 269.039 214.742L262.021 138.169C261.763 135.406 258.864 133.631 256.258 134.787C217.561 151.989 173.678 155.606 132.684 144.985L132.683 144.983ZM254.347 144.532L256.554 168.616C256.365 168.715 256.158 168.754 255.982 168.885C226.827 190.458 188.319 199.284 152.659 192.674C148.874 179.823 144.309 167.196 138.88 154.888C177.397 163.091 217.887 159.474 254.347 144.534L254.347 144.532Z" fill="#BFE5FD"/>
<path d="M284.971 59.3932L289.503 27.2865C289.822 25.0391 288.256 22.9622 286.009 22.6472C283.794 22.3047 281.679 23.8881 281.364 26.1418L276.831 58.2485C276.516 60.4959 278.081 62.5728 280.329 62.8878C282.42 63.2355 284.641 61.7368 284.971 59.3932Z" fill="#BFE5FD"/>
<path d="M309.958 73.0162L330.337 42.5852C331.6 40.7011 331.094 38.1489 329.21 36.8859C327.321 35.6228 324.772 36.1202 323.509 38.0148L303.13 68.4458C301.286 71.1958 303.301 74.8405 306.541 74.8405C307.866 74.8405 309.166 74.2037 309.958 73.0162Z" fill="#BFE5FD"/>
<path d="M364.866 80.9898C353.455 86.9248 341.269 91.1668 328.643 93.5965C323.315 94.6199 324.85 102.756 330.195 101.665C343.603 99.086 356.544 94.5808 368.662 88.2775C370.676 87.2345 371.457 84.7514 370.412 82.7398C369.365 80.7163 366.882 79.9468 364.867 80.9898H364.866Z" fill="#BFE5FD"/>
</svg>
