<svg width="200" height="202" viewBox="0 0 200 202" fill="none" xmlns="http://www.w3.org/2000/svg">
<g clip-path="url(#clip0_906_951)">
<path d="M127.894 201.015H40.9027C31.4716 201.015 23.7988 193.342 23.7988 183.911V17.6878C23.7988 8.25678 31.4716 0.583984 40.9027 0.583984H127.894C137.325 0.583984 144.998 8.25678 144.998 17.6878V183.911C144.998 193.342 137.325 201.015 127.894 201.015Z" fill="#F2F2F2"/>
<path d="M144.997 61.7261C144.598 61.7261 144.273 62.0506 144.273 62.4496V85.6041C144.273 86.0031 144.598 86.3276 144.997 86.3276C145.396 86.3276 145.721 86.0031 145.721 85.6041V62.4496C145.721 62.0506 145.396 61.7261 144.997 61.7261Z" fill="#F2F2F2"/>
<path d="M143.371 17.6877V183.908C143.371 192.116 136.981 198.831 128.903 199.352H128.899C128.78 199.359 128.66 199.367 128.537 199.37C128.324 199.381 128.11 199.385 127.893 199.385C127.893 199.385 127.097 199.327 125.643 199.218C124.174 199.11 122.036 198.947 119.37 198.734C118.57 198.672 117.727 198.603 116.837 198.531C115.064 198.386 113.118 198.227 111.03 198.046C110.198 197.977 109.337 197.901 108.458 197.826C103.965 197.438 98.9322 196.986 93.6247 196.472C92.7275 196.389 91.823 196.302 90.9113 196.212C90.6726 196.187 90.4301 196.165 90.1878 196.14C86.4034 195.767 82.5142 195.365 78.6105 194.938C78.3681 194.913 78.1257 194.888 77.887 194.862C71.1613 194.121 64.4104 193.314 58.0935 192.446C53.2347 191.78 48.6328 191.078 44.5012 190.351C43.1553 190.112 41.8601 189.873 40.6228 189.631C40.3804 189.584 40.138 189.537 39.8992 189.486C31.1548 187.735 25.4277 185.847 25.4277 183.908V17.6877C25.4277 9.1387 32.356 2.21045 40.905 2.21045H50.1451C51.6212 2.21045 52.8078 3.36093 52.9345 4.83341C52.9453 4.9311 52.9562 5.02877 52.9743 5.12646C53.242 6.60618 54.5987 7.63727 56.1037 7.63727H112.695C114.2 7.63727 115.556 6.60618 115.824 5.12646C115.842 5.02877 115.853 4.9311 115.864 4.83341C115.99 3.36093 117.177 2.21045 118.653 2.21045H127.893C136.442 2.21045 143.371 9.13869 143.371 17.6877Z" fill="white"/>
<path d="M23.4365 44.3604C23.0374 44.3604 22.7129 44.6849 22.7129 45.0839V50.8725C22.7129 51.2716 23.0374 51.5961 23.4365 51.5961C23.8355 51.5961 24.16 51.2716 24.16 50.8725V45.0839C24.16 44.6849 23.8355 44.3604 23.4365 44.3604Z" fill="#F2F2F2"/>
<path d="M23.4365 61.7261C23.0374 61.7261 22.7129 62.0506 22.7129 62.4496V73.6651C22.7129 74.0641 23.0374 74.3886 23.4365 74.3886C23.8355 74.3886 24.16 74.0641 24.16 73.6651V62.4496C24.16 62.0506 23.8355 61.7261 23.4365 61.7261Z" fill="#F2F2F2"/>
<path d="M23.4365 77.645C23.0374 77.645 22.7129 77.9695 22.7129 78.3686V89.584C22.7129 89.9831 23.0374 90.3076 23.4365 90.3076C23.8355 90.3076 24.16 89.9831 24.16 89.584V78.3686C24.16 77.9695 23.8355 77.645 23.4365 77.645Z" fill="#F2F2F2"/>
<path d="M49.3041 4.74463H36.6415C36.2419 4.74463 35.918 5.06858 35.918 5.4682V5.82999C35.918 6.22961 36.2419 6.55357 36.6415 6.55357H49.3041C49.7037 6.55357 50.0277 6.22961 50.0277 5.82999V5.4682C50.0277 5.06858 49.7037 4.74463 49.3041 4.74463Z" fill="#F2F2F2"/>
<path d="M120.939 6.55348C121.739 6.55348 122.386 5.90557 122.386 5.10633C122.386 4.30709 121.739 3.65918 120.939 3.65918C120.14 3.65918 119.492 4.30709 119.492 5.10633C119.492 5.90557 120.14 6.55348 120.939 6.55348Z" fill="#F2F2F2"/>
<path d="M124.918 6.55348C125.717 6.55348 126.365 5.90557 126.365 5.10633C126.365 4.30709 125.717 3.65918 124.918 3.65918C124.119 3.65918 123.471 4.30709 123.471 5.10633C123.471 5.90557 124.119 6.55348 124.918 6.55348Z" fill="#F2F2F2"/>
<path d="M128.898 6.55348C129.698 6.55348 130.345 5.90557 130.345 5.10633C130.345 4.30709 129.698 3.65918 128.898 3.65918C128.099 3.65918 127.451 4.30709 127.451 5.10633C127.451 5.90557 128.099 6.55348 128.898 6.55348Z" fill="#F2F2F2"/>
<path d="M42.9399 57.5385C46.818 57.5385 49.9618 54.4609 49.9618 50.6645C49.9618 46.8681 46.818 43.7905 42.9399 43.7905C39.0618 43.7905 35.918 46.8681 35.918 50.6645C35.918 54.4609 39.0618 57.5385 42.9399 57.5385Z" fill="black"/>
<path d="M99.2318 48.3131H61.4356C60.139 48.3131 59.084 47.2581 59.084 45.9615C59.084 44.6648 60.139 43.6099 61.4356 43.6099H99.2318C100.528 43.6099 101.583 44.6648 101.583 45.9615C101.583 47.2581 100.528 48.3131 99.2318 48.3131Z" fill="#E6E6E6"/>
<path d="M38.471 127.889C37.8677 127.889 37.377 128.38 37.377 128.983C37.377 129.586 37.8677 130.077 38.471 130.077H78.0586C78.6619 130.077 79.1528 129.586 79.1528 128.983C79.1528 128.38 78.6619 127.889 78.0586 127.889H38.471Z" fill="#F2F2F2"/>
<path d="M128.728 56.2726H61.4356C60.139 56.2726 59.084 55.2176 59.084 53.921C59.084 52.6243 60.139 51.5693 61.4356 51.5693H128.728C130.025 51.5693 131.08 52.6243 131.08 53.921C131.08 55.2176 130.025 56.2726 128.728 56.2726Z" fill="#E6E6E6"/>
<path d="M51.9285 22.988H37.5472C36.5498 22.988 35.7383 22.1764 35.7383 21.1791C35.7383 20.1817 36.5498 19.3701 37.5472 19.3701H51.9285C52.9259 19.3701 53.7372 20.1817 53.7372 21.1791C53.7372 22.1764 52.9258 22.988 51.9285 22.988Z" fill="#E6E6E6"/>
<path d="M128.548 19.5508H114.167C113.268 19.5508 112.539 20.2797 112.539 21.1788C112.539 22.078 113.268 22.8069 114.167 22.8069H128.548C129.447 22.8069 130.176 22.078 130.176 21.1788C130.176 20.2797 129.447 19.5508 128.548 19.5508Z" fill="black"/>
<path d="M107.926 22.988H93.5453C92.5479 22.988 91.7363 22.1764 91.7363 21.1791C91.7363 20.1817 92.5479 19.3701 93.5453 19.3701H107.926C108.924 19.3701 109.735 20.1817 109.735 21.1791C109.735 22.1764 108.924 22.988 107.926 22.988Z" fill="#E6E6E6"/>
<path d="M54.0086 122.576H40.2606C37.767 122.576 35.7383 120.548 35.7383 118.054V113.562C35.7383 111.068 37.767 109.04 40.2606 109.04H54.0086C56.5022 109.04 58.5309 111.068 58.5309 113.562V118.054C58.5309 120.548 56.5022 122.576 54.0086 122.576Z" fill="#F2F2F2"/>
<path d="M126.559 96.6865H40.2606C37.767 96.6865 35.7383 94.6578 35.7383 92.1641V72.372C35.7383 69.8783 37.767 67.8496 40.2606 67.8496H126.559C129.052 67.8496 131.081 69.8783 131.081 72.372V92.1641C131.081 94.6578 129.052 96.6865 126.559 96.6865Z" fill="black"/>
<path d="M126.005 122.576H112.257C109.763 122.576 107.734 120.548 107.734 118.054V113.562C107.734 111.068 109.763 109.04 112.257 109.04H126.005C128.498 109.04 130.527 111.068 130.527 113.562V118.054C130.527 120.548 128.498 122.576 126.005 122.576Z" fill="#F2F2F2"/>
<path d="M89.655 122.576H75.9071C73.4135 122.576 71.3848 120.548 71.3848 118.054V113.562C71.3848 111.068 73.4135 109.04 75.9071 109.04H89.655C92.1487 109.04 94.1774 111.068 94.1774 113.562V118.054C94.1774 120.548 92.1487 122.576 89.655 122.576Z" fill="#F2F2F2"/>
<path d="M58.9044 142.559H48.0508V152.689H58.9044V142.559Z" fill="#F2F2F2"/>
<path d="M58.9043 157.03H52.7539V167.16H58.9043V157.03Z" fill="#F2F2F2"/>
<path d="M73.0138 157.03H62.1602V167.16H73.0138V157.03Z" fill="#F2F2F2"/>
<path d="M73.0138 171.501H62.1602V181.632H73.0138V171.501Z" fill="#F2F2F2"/>
<path d="M87.1232 157.03H76.2695V167.16H87.1232V157.03Z" fill="#F2F2F2"/>
<path d="M73.0138 142.559H62.1602V152.689H73.0138V142.559Z" fill="#F2F2F2"/>
<path d="M87.1232 142.559H76.2695V152.689H87.1232V142.559Z" fill="#F2F2F2"/>
<path d="M115.344 142.559H104.49V152.689H115.344V142.559Z" fill="#F2F2F2"/>
<path d="M87.1232 171.501H76.2695V181.632H87.1232V171.501Z" fill="#F2F2F2"/>
<path d="M101.234 142.559H90.3809V152.689H101.234V142.559Z" fill="#F2F2F2"/>
<path d="M120.951 157.03H113.896V167.16H120.951C121.95 167.16 122.76 166.35 122.76 165.351V158.839C122.76 157.84 121.95 157.03 120.951 157.03Z" fill="#F2F2F2"/>
<path d="M58.9035 171.501H56.7328C55.7337 171.501 54.9238 172.311 54.9238 173.31V179.823C54.9238 180.822 55.7337 181.632 56.7328 181.632H58.9035V171.501Z" fill="#F2F2F2"/>
<path d="M101.234 171.501H90.3809V181.632H101.234V171.501Z" fill="#F2F2F2"/>
<path d="M129.091 142.559H118.6V152.689H129.091C130.09 152.689 130.9 151.879 130.9 150.88V144.368C130.9 143.368 130.09 142.559 129.091 142.559Z" fill="#F2F2F2"/>
<path d="M110.641 171.654C110.419 171.557 110.175 171.501 109.917 171.501H104.49V181.632H109.917C110.175 181.632 110.419 181.576 110.641 181.479V171.654Z" fill="#F2F2F2"/>
<path d="M101.234 157.03H90.3809V167.16H101.234V157.03Z" fill="#F2F2F2"/>
<path d="M110.641 157.03H104.49V167.16H110.641V157.03Z" fill="#F2F2F2"/>
<path d="M49.4983 157.03H45.6996C44.7005 157.03 43.8906 157.84 43.8906 158.839V165.351C43.8906 166.35 44.7005 167.16 45.6996 167.16H49.4983V157.03Z" fill="#F2F2F2"/>
<path d="M44.7947 142.559H37.5589C36.5599 142.559 35.75 143.368 35.75 144.368V150.88C35.75 151.879 36.5599 152.689 37.5589 152.689H44.7947V142.559Z" fill="#F2F2F2"/>
<path d="M114.622 197.028L111.399 197.027L109.865 184.595L114.622 184.595L114.622 197.028Z" fill="#FFB6B6"/>
<path d="M114.736 200.39L104.824 200.39V200.264C104.824 198.134 106.552 196.406 108.682 196.406L110.493 195.033L113.871 196.406L114.736 196.407L114.736 200.39Z" fill="#2F2E41"/>
<path d="M134.688 197.028L131.465 197.027L129.932 184.595L134.689 184.595L134.688 197.028Z" fill="#FFB6B6"/>
<path d="M134.802 200.39L124.891 200.39V200.264C124.891 198.134 126.618 196.406 128.749 196.406L130.559 195.033L133.937 196.406L134.803 196.407L134.802 200.39Z" fill="#2F2E41"/>
<path d="M141.2 101.821H113.517L110.157 112.202L109.346 156.349L109.488 190.796L115.792 190.82L121.344 153.792C121.344 153.792 120.727 150.149 121.815 150.656C122.902 151.162 121.064 146.693 122.345 147.118C123.626 147.544 124.872 130.262 124.872 130.262L127.927 156.349L129.889 190.796H135.575L140.343 137.664C140.343 137.664 138.845 134.448 140.823 132.313C142.801 130.178 142.598 112.536 142.598 112.536L141.2 101.821Z" fill="#2F2E41"/>
<path d="M141.929 101.165C141.929 101.165 144.584 104.946 142.268 110.868C138.42 120.709 112.889 112.432 111.326 106.3C108.924 105.471 112.928 104.258 111.749 102.247C111.677 102.125 112.411 104.853 111.829 101.834C110.896 96.9884 112.498 82.1019 112.498 82.1019L113.027 73.2673C113.54 64.71 117.019 56.5988 122.866 50.3296L136.16 50.3296L141.93 59.6941L142.527 83.1652L141.929 101.165Z" fill="#3F3D56"/>
<path d="M101.408 102.059L105.53 95.8096L109.125 97.8851L104.552 104.322C104.566 104.571 104.549 104.826 104.493 105.08C104.193 106.466 102.922 107.324 101.654 106.996C100.387 106.668 99.6018 105.279 99.9018 103.893C100.093 103.009 100.68 102.342 101.408 102.059Z" fill="#FFB6B6"/>
<path d="M120.919 52.3364C116.301 52.3364 112.502 55.9709 112.297 60.5838L111.415 80.4564C111.415 80.4564 111.409 81.5601 111.001 81.2332C110.592 80.9064 110.558 82.0623 110.558 82.0623C110.558 82.0623 110.539 83.8301 110.154 82.8182C109.769 81.8062 109.716 83.6374 109.716 83.6374L104.108 93.2867C104.862 94.845 104.276 96.7718 104.09 98.341L108.122 102.053C108.122 102.053 108.087 100.938 108.956 100.957C114.285 101.072 119.74 86.6796 119.648 81.3563C119.544 75.2821 120.919 52.3364 120.919 52.3364Z" fill="#3F3D56"/>
<path d="M122.813 24.6876L126.935 30.9366L130.529 28.861L125.956 22.4237C125.971 22.1753 125.953 21.9205 125.898 21.6657C125.598 20.2798 124.327 19.4222 123.059 19.75C121.791 20.0779 121.006 21.4671 121.306 22.853C121.497 23.7368 122.084 24.4039 122.813 24.6876Z" fill="#FFB6B6"/>
<path d="M142.323 74.4095C137.706 74.4095 133.906 70.775 133.701 66.1621L132.82 46.2894C132.82 46.2894 132.813 45.1858 132.405 45.5127C131.996 45.8395 131.962 44.6835 131.962 44.6835C131.962 44.6835 131.943 42.9158 131.558 43.9277C131.173 44.9397 131.121 43.1085 131.121 43.1085L123.787 29.3782L124.204 27.5872L128.217 24.5771C128.217 24.5771 129.839 25.0934 130.36 25.7888C132.992 29.297 140.955 40.3204 141.052 45.3896C141.169 51.4635 142.323 74.4095 142.323 74.4095Z" fill="#3F3D56"/>
<path d="M126.049 48.3213C126.245 48.3666 126.442 48.406 126.638 48.4362C127.249 48.536 127.86 48.5663 128.456 48.53C130.265 48.4362 131.971 47.7678 133.35 46.6668C134.808 45.5053 135.897 43.8629 136.354 41.909C137.427 37.2963 134.557 32.6807 129.944 31.6069C125.398 30.5452 120.852 33.3159 119.691 37.8105C119.673 37.8801 119.654 37.9466 119.639 38.0162C118.566 42.6319 121.433 47.2445 126.049 48.3213Z" fill="#FFB6B6"/>
<path d="M136.8 42.7777C135.602 45.9383 132.572 48.4433 129.194 48.5938C128.619 48.6172 128.021 48.5737 127.512 48.2994C127.001 48.0285 126.606 47.4834 126.649 46.9081C126.74 45.7744 128.281 45.3396 128.716 44.2861C129.004 43.5904 128.673 42.6975 127.997 42.3597C127.322 42.0252 126.409 42.2928 126.024 42.945C126.726 41.8747 126.315 40.3664 125.429 39.4467C124.546 38.5236 123.305 38.052 122.108 37.6039L122.081 37.149C121.235 37.4735 120.312 36.8213 119.944 35.9751C120.372 35.4567 120.643 34.828 120.904 34.2093C120.552 34.4567 120.161 34.6373 119.746 34.7477C119.77 34.0119 118.666 33.6608 118.853 32.9384C119.114 31.935 120.623 30.4334 120.128 29.5237C121.051 29.7846 121.653 30.8615 121.392 31.7845C121.723 30.8815 122.054 29.9785 122.385 29.0722C122.643 29.7009 122.9 30.3297 123.161 30.9551C124.422 30.1692 125.726 29.3698 127.191 29.119C128.656 28.8648 130.342 29.2929 131.161 30.5371C132.014 30.0187 133.158 30.1792 134 30.7177C134.843 31.2561 135.432 32.1089 135.903 32.9919C137.502 35.9684 137.997 39.6206 136.8 42.7777Z" fill="#2F2E41"/>
<path d="M180.37 194.729C181.118 194.775 181.531 193.847 180.965 193.306L180.909 193.082C180.917 193.064 180.924 193.046 180.931 193.028C181.687 191.226 184.249 191.238 184.998 193.043C185.664 194.645 186.511 196.25 186.719 197.944C186.813 198.692 186.771 199.454 186.605 200.187C188.163 196.783 188.983 193.065 188.983 189.326C188.983 188.387 188.932 187.448 188.827 186.51C188.74 185.744 188.621 184.982 188.467 184.227C187.633 180.148 185.826 176.262 183.221 173.016C181.968 172.331 180.924 171.261 180.293 169.978C180.066 169.515 179.889 169.018 179.805 168.511C179.947 168.529 180.342 166.358 180.235 166.225C180.433 165.924 180.789 165.774 181.006 165.48C182.085 164.017 183.571 164.272 184.347 166.26C186.005 167.097 186.021 168.485 185.004 169.819C184.357 170.668 184.268 171.817 183.7 172.726C183.758 172.801 183.819 172.873 183.878 172.948C184.949 174.322 185.875 175.799 186.657 177.351C186.436 175.626 186.762 173.549 187.317 172.21C187.95 170.684 189.135 169.399 190.179 168.08C191.433 166.495 194.005 167.187 194.225 169.195C194.228 169.215 194.23 169.234 194.232 169.254C194.077 169.341 193.925 169.434 193.776 169.532C192.93 170.092 193.222 171.404 194.225 171.559L194.248 171.562C194.192 172.121 194.096 172.675 193.956 173.219C195.295 178.398 192.404 180.285 188.275 180.37C188.184 180.416 188.095 180.463 188.004 180.507C188.423 181.685 188.757 182.893 189.004 184.118C189.226 185.2 189.381 186.293 189.467 187.391C189.575 188.777 189.565 190.17 189.448 191.553L189.455 191.504C189.752 189.981 190.579 188.557 191.78 187.571C193.57 186.102 196.098 185.56 198.028 184.379C198.957 183.81 200.148 184.545 199.986 185.622L199.978 185.674C199.69 185.791 199.41 185.926 199.139 186.078C198.984 186.166 198.832 186.259 198.684 186.357C197.837 186.917 198.13 188.229 199.133 188.383L199.155 188.387C199.172 188.389 199.186 188.392 199.202 188.394C198.709 189.565 198.022 190.651 197.162 191.588C196.325 196.11 192.728 196.538 188.881 195.222H188.878C188.458 197.054 187.843 198.844 187.053 200.55H180.534C180.51 200.477 180.489 200.402 180.468 200.33C181.071 200.367 181.679 200.332 182.272 200.222C181.789 199.629 181.305 199.031 180.821 198.437C180.809 198.426 180.8 198.414 180.791 198.402C180.545 198.098 180.298 197.797 180.052 197.493L180.052 197.493C180.037 196.56 180.149 195.631 180.37 194.729Z" fill="#F2F2F2"/>
</g>
<defs>
<clipPath id="clip0_906_951">
<rect width="200" height="200.431" fill="white" transform="translate(0 0.583984)"/>
</clipPath>
</defs>
</svg>
