<svg width="398" height="408" viewBox="0 0 398 408" fill="none" xmlns="http://www.w3.org/2000/svg">
<g clip-path="url(#clip0_332_1228)">
<path d="M172.555 400.518L163.211 400.517L158.766 364.473L172.557 364.474L172.555 400.518Z" fill="#A0616A"/>
<path d="M140.54 400.306C140.249 400.796 140.096 402.377 140.096 402.947C140.096 404.699 141.516 406.119 143.267 406.119H172.206C173.401 406.119 174.37 405.15 174.37 403.955V402.75C174.37 402.75 175.801 399.129 172.854 394.666C172.854 394.666 169.191 398.161 163.717 392.687L162.103 389.763L150.419 398.308L143.942 399.105C142.525 399.28 141.269 399.078 140.54 400.306Z" fill="#2F2E41"/>
<path d="M130.686 400.518L121.342 400.517L116.896 364.473L130.688 364.474L130.686 400.518Z" fill="#A0616A"/>
<path d="M98.671 400.306C98.3801 400.796 98.2266 402.377 98.2266 402.947C98.2266 404.699 99.6465 406.119 101.398 406.119H130.337C131.532 406.119 132.501 405.15 132.501 403.955V402.75C132.501 402.75 133.932 399.129 130.985 394.666C130.985 394.666 127.322 398.161 121.848 392.687L120.234 389.763L108.55 398.308L102.073 399.105C100.656 399.28 99.3999 399.078 98.671 400.306Z" fill="#2F2E41"/>
<path d="M173.358 174.391L182.058 196.685L175.261 374.761H156.23L139.102 214.084L135.024 375.305L116.537 374.761L96.418 195.869L109.74 179.829L173.358 174.391Z" fill="#2F2E41"/>
<path d="M132.304 47.9706L155.141 46.3394L162.21 57.758L183.416 63.7392L175.532 118.929L183.96 201.306C183.96 201.306 153.51 196.957 151.335 205.656C149.16 214.356 95.873 196.956 95.873 196.956L114.088 140.679L112.457 96.6357L107.564 71.0797L129.857 60.7486L132.304 47.9706Z" fill="#E6E6E6"/>
<path d="M121.973 64.2829C121.973 64.2829 103.775 64.0111 101.32 71.6235C98.8643 79.2359 90.7081 131.979 90.7081 131.979L84.4551 155.088L112.458 141.223L106.477 131.994L126.052 94.4607L121.973 64.2829Z" fill="#E6E6E6"/>
<path d="M133.107 148.835C136.116 148.839 138.913 147.104 140.083 144.332C140.968 142.236 140.885 140.224 140.223 138.499C140.436 138.411 140.647 138.319 140.865 138.241C140.544 138.111 140.233 137.965 139.922 137.818C138.838 135.657 136.76 134.09 134.285 133.709C131.219 130.425 129.334 126.024 129.315 121.181C129.274 111.2 137.371 102.862 147.35 102.623C147.428 102.621 147.507 102.619 147.585 102.618C152.053 102.567 156.107 105.066 158.371 108.919C159.692 111.167 162.133 112.676 164.93 112.676C167.071 112.676 169.002 111.791 170.383 110.367C173.391 107.265 177.158 104.957 181.421 104.249C184.22 103.784 187.118 103.608 190.082 103.756C210.375 104.764 227.833 122.749 228.267 143.063C228.749 165.687 210.554 184.179 188.039 184.179C176.324 184.179 165.783 179.169 158.432 171.177C155.168 167.629 150.595 165.642 145.774 165.691C145.725 165.691 145.676 165.692 145.627 165.692C137.819 165.692 131.489 159.362 131.489 151.554C131.489 151.121 131.511 150.693 131.551 150.271C131.627 149.482 132.314 148.835 133.107 148.835Z" fill="#BFE6FE"/>
<path d="M396.092 299.392C395.104 297.727 390.831 299.51 390.045 297.998C389.263 296.492 393.233 294.198 395.501 288.956C395.91 288.01 398.487 282.053 396.579 280.215C392.962 276.731 376.412 291.109 370.62 286.404C369.348 285.371 368.46 283.31 364.613 279.963C363.083 278.632 362.157 278.031 361.262 278.254C359.991 278.572 359.89 280.272 358.527 283.617C356.484 288.632 355.275 288.329 354.084 292.331C353.2 295.301 353.402 297.028 352.362 297.365C350.89 297.841 349.535 294.69 347.67 294.972C345.766 295.26 344.615 298.929 344.252 301.675C343.57 306.83 345.463 310.231 346.512 313.807C347.652 317.694 348.329 323.605 345.696 331.972L319.635 405.399C325.388 390.332 342.047 349.029 349.047 333.681C351.068 329.25 353.299 324.756 357.881 322.983C362.291 321.275 368.349 322.295 376.072 320.434C376.974 320.217 379.477 319.58 379.792 318.108C380.052 316.891 378.58 316.211 378.806 315.072C379.11 313.543 382.005 313.524 385.562 311.76C388.071 310.516 389.634 309.036 390.978 307.764C391.383 307.381 397.406 301.609 396.092 299.392Z" fill="#F2F2F2"/>
<path d="M293.561 338.047C292.459 338.051 292.101 340.663 291.133 340.612C290.168 340.562 290.187 337.951 288.268 335.325C287.923 334.852 285.742 331.868 284.29 332.274C281.536 333.044 283.818 345.316 279.837 346.801C278.963 347.127 277.695 346.968 274.943 347.891C273.848 348.258 273.286 348.538 273.137 349.042C272.926 349.758 273.732 350.298 274.98 351.932C276.852 354.382 276.355 354.888 277.975 356.627C279.178 357.918 280.084 358.317 279.949 358.925C279.758 359.784 277.82 359.54 277.421 360.537C277.013 361.555 278.481 363.178 279.724 364.149C282.057 365.971 284.273 366.023 286.331 366.54C288.567 367.102 291.664 368.475 295.011 372.182L323.53 406.158C317.795 398.987 302.33 378.894 296.817 371.03C295.225 368.76 293.663 366.368 294.114 363.608C294.549 360.95 296.797 358.271 298.112 353.944C298.266 353.438 298.676 352.026 298.044 351.447C297.522 350.968 296.764 351.494 296.269 351.055C295.606 350.464 296.433 349.038 296.593 346.783C296.707 345.193 296.431 343.999 296.195 342.972C296.124 342.663 295.029 338.041 293.561 338.047Z" fill="#F2F2F2"/>
<path d="M315.553 342.983L314.889 337.055L315.192 336.605C316.596 334.527 317.312 332.497 317.321 330.57C317.322 330.264 317.308 329.958 317.293 329.646C317.236 328.409 317.165 326.871 317.966 325.079C318.416 324.08 319.678 321.767 321.576 322.053C322.087 322.125 322.474 322.36 322.767 322.634C322.81 322.566 322.855 322.497 322.902 322.423C323.493 321.521 323.961 321.134 324.412 320.762C324.758 320.476 325.116 320.181 325.677 319.482C325.923 319.176 326.115 318.907 326.277 318.681C326.768 317.997 327.409 317.181 328.54 317.195C329.748 317.252 330.381 318.251 330.8 318.913C331.549 320.092 331.888 320.942 332.113 321.506C332.195 321.713 332.288 321.944 332.335 322.016C332.724 322.589 335.889 322.053 337.081 321.859C339.76 321.412 342.077 321.025 343.032 322.715C343.716 323.923 343.208 325.52 341.476 327.59C340.936 328.234 340.362 328.724 339.853 329.107C340.275 329.359 340.653 329.746 340.806 330.353C341.167 331.79 339.931 333.23 337.136 334.638C336.442 334.99 335.507 335.46 334.197 335.686C333.58 335.792 333.025 335.818 332.55 335.832C332.54 336.107 332.475 336.405 332.308 336.711C331.817 337.613 330.795 338.042 329.254 337.939C327.56 337.85 326.164 337.527 324.933 337.244C323.858 336.997 322.932 336.788 322.205 336.837C320.856 336.946 319.817 338.025 318.597 339.425L315.553 342.983Z" fill="#F2F2F2"/>
<path d="M318.634 307.683L313.068 309.829L312.556 309.649C310.189 308.818 308.044 308.641 306.178 309.121C305.882 309.198 305.589 309.289 305.291 309.382C304.109 309.751 302.64 310.21 300.703 309.89C299.623 309.708 297.065 309.074 296.861 307.165C296.8 306.653 296.929 306.219 297.121 305.866C297.043 305.842 296.966 305.816 296.882 305.789C295.859 305.446 295.367 305.091 294.892 304.75C294.528 304.487 294.152 304.216 293.334 303.85C292.975 303.69 292.666 303.573 292.406 303.473C291.62 303.172 290.668 302.759 290.395 301.661C290.144 300.478 290.95 299.613 291.483 299.039C292.434 298.016 293.171 297.472 293.659 297.112C293.838 296.98 294.038 296.832 294.096 296.768C294.551 296.246 293.23 293.32 292.739 292.216C291.628 289.739 290.666 287.595 292.058 286.243C293.053 285.275 294.727 285.362 297.169 286.512C297.929 286.871 298.548 287.302 299.048 287.697C299.185 287.225 299.463 286.761 300.011 286.459C301.31 285.746 303.016 286.575 305.087 288.922C305.604 289.504 306.295 290.289 306.846 291.499C307.105 292.069 307.271 292.6 307.406 293.056C307.674 292.996 307.978 292.982 308.317 293.067C309.314 293.313 309.989 294.193 310.279 295.709C310.624 297.37 310.665 298.803 310.703 300.065C310.737 301.167 310.77 302.116 311.001 302.807C311.449 304.084 312.756 304.816 314.42 305.64L318.634 307.683Z" fill="#F2F2F2"/>
<path d="M315.553 290.216L314.889 284.287L315.192 283.837C316.596 281.759 317.312 279.729 317.321 277.803C317.322 277.496 317.308 277.19 317.293 276.878C317.236 275.641 317.165 274.104 317.966 272.312C318.416 271.313 319.678 268.999 321.576 269.286C322.087 269.357 322.474 269.592 322.767 269.867C322.81 269.798 322.855 269.729 322.902 269.655C323.493 268.753 323.961 268.367 324.412 267.995C324.758 267.708 325.116 267.413 325.677 266.715C325.923 266.409 326.115 266.139 326.277 265.913C326.768 265.229 327.409 264.413 328.54 264.427C329.748 264.485 330.381 265.484 330.8 266.145C331.549 267.325 331.888 268.175 332.113 268.739C332.195 268.945 332.288 269.177 332.335 269.248C332.724 269.821 335.889 269.286 337.081 269.091C339.76 268.644 342.077 268.258 343.032 269.947C343.716 271.155 343.208 272.753 341.476 274.822C340.936 275.467 340.362 275.956 339.853 276.34C340.275 276.592 340.653 276.978 340.806 277.585C341.167 279.022 339.931 280.462 337.136 281.871C336.442 282.223 335.507 282.692 334.197 282.919C333.58 283.024 333.025 283.05 332.55 283.065C332.54 283.339 332.475 283.637 332.308 283.943C331.817 284.845 330.795 285.275 329.254 285.172C327.56 285.083 326.164 284.759 324.933 284.476C323.858 284.23 322.932 284.021 322.205 284.069C320.856 284.178 319.817 285.257 318.597 286.657L315.553 290.216Z" fill="#F2F2F2"/>
<path d="M321.621 405.302L320.378 404.523L318.93 404.689C318.907 404.555 318.828 404.246 318.709 403.762C318.061 401.111 316.084 393.043 314.435 380.338C313.284 371.469 312.633 362.351 312.498 353.233C312.364 344.1 312.796 337.187 313.143 331.63C313.404 327.439 313.722 323.448 314.034 319.56C314.865 309.174 315.648 299.363 315.065 288.501C314.936 286.076 314.666 281.029 311.717 275.658C310.006 272.544 307.65 269.778 304.713 267.442L306.539 265.146C309.782 267.728 312.388 270.792 314.288 274.25C317.557 280.205 317.852 285.704 317.994 288.346C318.586 299.4 317.795 309.305 316.956 319.792C316.647 323.665 316.329 327.639 316.068 331.813C315.725 337.318 315.297 344.172 315.43 353.187C315.562 362.196 316.206 371.203 317.341 379.96C318.97 392.505 320.918 400.452 321.558 403.063C321.899 404.458 321.97 404.75 321.621 405.302Z" fill="#F2F2F2"/>
<path d="M299.337 272.1C299.216 272.1 299.095 272.097 298.972 272.088C296.475 271.954 294.163 270.459 292.099 267.648C291.132 266.325 290.636 264.817 289.649 261.808C289.495 261.344 288.751 258.991 288.299 255.753C288.003 253.637 288.04 252.753 288.459 251.971C288.924 251.101 289.677 250.494 290.525 250.084C290.487 249.804 290.518 249.515 290.639 249.22C291.139 247.997 292.467 248.158 293.186 248.235C293.549 248.281 294.003 248.341 294.493 248.315C295.263 248.278 295.676 248.049 296.303 247.705C296.903 247.376 297.649 246.967 298.755 246.741C300.937 246.285 302.765 246.904 303.367 247.107C306.538 248.163 308.101 250.628 309.91 253.483C310.271 254.055 311.509 256.139 312.327 258.996C312.916 261.058 312.833 261.974 312.656 262.655C312.295 264.055 311.443 264.857 309.281 266.626C307.022 268.478 305.888 269.406 304.915 269.97C302.649 271.278 301.226 272.1 299.337 272.1Z" fill="#F2F2F2"/>
<path d="M200.001 136.873L64.6082 111.317L64.0645 121.104L198.369 153.185L200.001 136.873Z" fill="#BFE6FE"/>
<path d="M66.2391 112.948L64.6079 111.317C64.6079 111.317 57.5392 108.054 57.5392 107.511C57.5392 107.17 47.1012 103.635 39.2918 101.037C34.9303 99.5863 30.3244 102.457 29.7033 107.011L28.7247 114.188C28.1395 118.479 31.3773 122.341 35.7047 122.515L54.8205 123.279L64.0641 121.104L66.2391 112.948Z" fill="#BFE6FE"/>
<path d="M199.728 139.864L200.051 138.509L64.5722 112.608L64.3359 114.308L199.728 139.864Z" fill="#3F3D56"/>
<path d="M199.418 142.435L199.728 140.951L64.4249 115.289L64.3359 117.026L199.418 142.435Z" fill="#3F3D56"/>
<path d="M199.107 145.518L199.184 143.126L64.3184 117.241L64.3356 118.657L199.107 145.518Z" fill="#3F3D56"/>
<path d="M198.746 149.098L198.64 146.932L64.1216 119.193L64.0059 119.724L198.746 149.098Z" fill="#3F3D56"/>
<path d="M198.745 151.269L198.642 149.651L64.3256 120.09L64.2051 120.62L198.745 151.269Z" fill="#3F3D56"/>
<path d="M120.946 60.8163L127.683 57.0859L130.605 116.754L129.586 124.095C129.586 124.095 112.578 77.1962 120.946 60.8163Z" fill="#3F3D56"/>
<path d="M143.995 42.2615C153.304 42.2615 160.851 34.7147 160.851 25.4054C160.851 16.096 153.304 8.54932 143.995 8.54932C134.685 8.54932 127.139 16.096 127.139 25.4054C127.139 34.7147 134.685 42.2615 143.995 42.2615Z" fill="#A0616A"/>
<path d="M129.585 35.4646L133.615 38.6815L129.041 21.3272C129.041 21.3272 141.819 21.0553 142.907 13.9867C142.907 13.9867 152.966 13.7148 155.685 13.7148C158.404 13.7148 159.63 31.7042 159.63 31.7042C159.63 31.7042 164.929 16.9773 159.491 9.36485C154.054 1.75243 155.957 6.37426 154.869 3.65554C153.782 0.936816 142.635 -1.56355 135.566 1.20869C128.498 3.98093 128.226 7.93271 126.051 7.9691C123.876 8.00549 116.263 18.8804 123.332 27.5803C130.401 36.2802 129.585 35.4646 129.585 35.4646Z" fill="#2F2E41"/>
<path d="M181.082 146.078C183.08 144.484 184.552 142.571 185.382 140.679L205.374 126.695L198.441 117.377L178.908 132.566C176.88 132.955 174.687 133.966 172.69 135.56C168.125 139.202 166.304 144.508 168.622 147.413C170.939 150.317 176.518 149.72 181.082 146.078Z" fill="#A0616A"/>
<path d="M104.49 124.806C103.007 126.889 102.118 129.133 101.84 131.179L86.4648 150.122L95.6927 157.175L110.296 137.2C112.139 136.268 113.969 134.693 115.451 132.611C118.838 127.854 119.129 122.251 116.102 120.096C113.076 117.941 107.876 120.05 104.49 124.806Z" fill="#A0616A"/>
<path d="M174.717 67.2734C174.717 67.2734 179.61 59.1172 184.504 64.0109C188.376 67.8833 209.613 92.5243 218.308 102.641C220.706 105.431 222.022 108.985 222.022 112.664C222.022 118.354 218.881 123.579 213.855 126.248L186.679 140.679L179.067 129.26L202.448 112.404L166.561 92.8294L174.717 67.2734Z" fill="#E6E6E6"/>
<path d="M88.7836 142.436L84.4551 155.088L96.9612 161.613L106.477 155.088L112.458 141.223L94.7862 136.057" fill="#E6E6E6"/>
<path d="M290.967 21.1675L249.888 32.3262L255.865 58.9812C253.932 57.6844 251.608 56.9263 249.105 56.9263C242.396 56.9263 236.957 62.3654 236.957 69.0747C236.957 75.784 242.396 81.223 249.105 81.223C255.815 81.223 261.254 75.784 261.254 69.0747C261.254 66.7427 260.585 64.5719 259.446 62.7219L254.707 41.5889L290.145 30.4473L293.386 46.1893C291.441 44.866 289.093 44.0911 286.563 44.0911C279.853 44.0911 274.414 49.5302 274.414 56.2395C274.414 62.9488 279.853 68.3878 286.563 68.3878C293.272 68.3878 298.711 62.9488 298.711 56.2395C298.711 53.8826 298.029 51.69 296.867 49.8274L290.967 21.1675Z" fill="#BFE6FE"/>
<path d="M331.253 46.084C324.613 46.084 319.23 51.4665 319.23 58.1062C319.23 59.9831 319.673 61.7525 320.44 63.3353L327.302 91.6393L331.196 90.6952L325.903 68.8609C327.516 69.6648 329.328 70.1284 331.253 70.1284C337.892 70.1284 343.275 64.7458 343.275 58.1062C343.275 51.4665 337.892 46.084 331.253 46.084Z" fill="#BFE6FE"/>
<path d="M380.177 108.466L373.366 81.2227L369.23 82.1946L374.558 103.504C372.92 102.762 371.099 102.335 369.171 102.335C362.121 102.335 356.406 107.876 356.406 114.712C356.406 121.547 362.121 127.088 369.171 127.088C376.22 127.088 381.935 121.547 381.935 114.712C381.935 112.43 381.288 110.301 380.177 108.466Z" fill="#BFE6FE"/>
<path d="M398 406.287C398 406.751 397.624 407.127 397.16 407.127H0.275391V405.447H397.16C397.624 405.447 398 405.823 398 406.287Z" fill="#E6E6E6"/>
</g>
<defs>
<clipPath id="clip0_332_1228">
<rect width="397.725" height="407.127" fill="white" transform="translate(0.275391)"/>
</clipPath>
</defs>
</svg>
