<svg width="400" height="364" viewBox="0 0 400 364" fill="none" xmlns="http://www.w3.org/2000/svg">
<g clip-path="url(#clip0_1257_328)">
<path d="M346.221 308.37H52.7969V258.556H57.3234V221.478C57.3332 212.742 60.8079 204.367 66.985 198.19C73.1622 192.013 81.5373 188.538 90.2731 188.528H309.277C318.013 188.538 326.388 192.013 332.565 198.19C338.742 204.367 342.217 212.742 342.227 221.478V258.556H346.221V308.37Z" fill="#E4E4E4"/>
<path d="M354.171 363.198H339.564V362.932C339.549 350.013 334.411 337.628 325.276 328.493C316.141 319.359 303.756 314.22 290.838 314.206H108.18C95.2612 314.22 82.8759 319.359 73.741 328.493C64.6062 337.628 59.4679 350.013 59.4533 362.932V363.198H44.8464C41.5185 363.195 38.328 361.871 35.9748 359.518C33.6216 357.165 32.298 353.974 32.2942 350.646V269.216C28.0526 266.82 24.6028 253.805 26.8436 243.411C28.2499 236.888 32.3096 229.01 43.6639 228.522C54.7169 228.047 62.921 238.424 63.6538 248.412C64.051 253.669 62.5072 258.888 59.3148 263.083H59.4532V274.699C83.4216 267.018 107.424 263.11 130.799 263.083C154.718 263.106 178.471 267.059 201.108 274.784C248.175 259.561 294.755 259.264 339.564 273.907V263.083H339.702C336.51 258.888 334.966 253.669 335.363 248.412C336.167 237.456 345.129 228.534 355.342 228.522H355.376C367.418 228.522 371.677 235.772 373.13 241.857C375.701 252.626 370.981 266.8 366.723 269.216V350.646C366.719 353.974 365.396 357.165 363.042 359.518C360.689 361.871 357.499 363.195 354.171 363.198Z" fill="#CACACA"/>
<path d="M272.564 341.408L279.615 346.445L302.397 321.646L291.991 314.213L272.564 341.408Z" fill="#FFB6B6"/>
<path d="M272.411 337.822L274.396 339.239L284.395 341.624L286.296 347.741L286.297 347.741C288.644 349.418 290.228 351.958 290.702 354.803C291.176 357.647 290.5 360.564 288.824 362.911L288.619 363.198L265.885 346.958L272.411 337.822Z" fill="#2F2E41"/>
<path d="M320.343 275.016H268.572C263.745 275.013 259.116 273.094 255.703 269.679C252.29 266.265 250.373 261.635 250.373 256.807C250.373 251.979 252.29 247.349 255.703 243.935C259.116 240.52 263.745 238.601 268.572 238.598H320.343C325.172 238.598 329.804 240.517 333.218 243.931C336.633 247.346 338.552 251.978 338.552 256.807C338.552 261.636 336.633 266.268 333.218 269.683C329.804 273.098 325.172 275.016 320.343 275.016Z" fill="#2F2E41"/>
<path d="M294.943 147.867L303.294 154.225L313.364 157.32C313.364 157.32 317.528 215.883 321.279 219.634C325.03 223.386 321.647 223.486 322.401 228.36C323.155 233.233 324.987 243.223 324.987 243.223C299.665 256.627 277.835 256.986 260.3 241.301C260.075 240.331 260.189 239.313 260.623 238.417C261.056 237.52 261.783 236.798 262.683 236.372C265.946 234.64 259.674 226.557 262.341 225.206C265.008 223.855 261.257 212.132 261.257 212.132L263.718 187.672L261.774 183.763L266.518 159.839L274.751 156.832L278.04 148.908L294.943 147.867Z" fill="#BFE6FE"/>
<path d="M300.174 93.1907C300.137 94.2483 300.332 95.3013 300.745 96.2754C301.159 97.2495 301.781 98.1212 302.568 98.8289C303.355 99.5366 304.287 100.063 305.3 100.371C306.312 100.68 307.38 100.762 308.427 100.614L320.196 123.488L326.752 111.839L314.572 91.9026C314.205 90.1591 313.211 88.6107 311.779 87.5508C310.347 86.491 308.576 85.9932 306.801 86.152C305.026 86.3108 303.372 87.115 302.15 88.4123C300.929 89.7095 300.226 91.4097 300.174 93.1907Z" fill="#FFB6B6"/>
<path d="M319.992 98.7866L345.234 137.908L345.151 138.088C345.056 138.295 339.34 150.64 333.801 161.947C332.948 163.688 332.099 165.405 331.276 167.049C330.921 167.758 330.571 168.453 330.226 169.133C327.9 173.719 325.867 177.509 324.654 179.31C321.971 183.381 317.976 186.412 313.332 187.899L313.215 187.929L313.104 187.882C310.833 186.924 308.956 185.22 307.783 183.052C306.61 180.884 306.211 178.38 306.651 175.955C308.841 164.256 313.719 153.225 320.902 143.735L324.994 138.341L310.774 107.424L319.992 98.7866Z" fill="#BFE6FE"/>
<path d="M276.383 88.3977C276.42 89.4553 276.225 90.5083 275.812 91.4824C275.398 92.4566 274.776 93.3282 273.989 94.0359C273.202 94.7436 272.27 95.2702 271.258 95.5785C270.245 95.8869 269.178 95.9695 268.13 95.8206L256.361 118.695L249.805 107.046L261.985 87.1097C262.352 85.3661 263.346 83.8177 264.778 82.7579C266.21 81.698 267.982 81.2003 269.756 81.359C271.531 81.5178 273.186 82.322 274.407 83.6193C275.628 84.9166 276.331 86.6168 276.383 88.3977Z" fill="#FFB6B6"/>
<path d="M256.564 93.9937L231.322 133.116L231.406 133.296C231.501 133.502 237.217 145.847 242.755 157.154C243.608 158.895 244.457 160.612 245.28 162.256C245.636 162.965 245.986 163.66 246.33 164.34C248.657 168.926 250.689 172.716 251.902 174.517C254.586 178.588 258.581 181.619 263.224 183.106L263.341 183.136L263.453 183.089C265.724 182.131 267.601 180.427 268.774 178.259C269.947 176.091 270.346 173.587 269.905 171.162C267.716 159.463 262.837 148.432 255.654 138.942L251.562 133.548L265.783 102.631L256.564 93.9937Z" fill="#BFE6FE"/>
<path d="M286.394 144.328C295.517 144.328 302.912 136.933 302.912 127.81C302.912 118.688 295.517 111.293 286.394 111.293C277.272 111.293 269.877 118.688 269.877 127.81C269.877 136.933 277.272 144.328 286.394 144.328Z" fill="#FFB6B6"/>
<path d="M272.94 113.62C274.298 109.668 281.06 106.927 292.022 106.546C302.984 106.165 305.765 119.084 305.765 119.084C313.083 125.02 297.95 140.914 297.218 140.341L297.547 137.355C298.093 132.409 300.409 128.55 297.463 123.395L294.635 123.428L289.27 124.459C288.936 124.524 288.589 124.476 288.285 124.324C287.98 124.172 287.734 123.924 287.584 123.619C287.434 123.313 287.388 122.966 287.455 122.632C287.521 122.298 287.696 121.996 287.951 121.771L288.001 121.727L287.879 121.539C285.989 122.406 284.041 123.21 281.975 123.331C279.651 123.468 277.11 122.543 275.996 120.498C275.699 119.936 275.518 119.32 275.462 118.686C272.328 119.938 270.895 123.803 270.895 123.803C270.895 123.803 271.581 117.572 272.94 113.62Z" fill="#2F2E41"/>
<path d="M317.55 334.382L310.937 339.981L286.193 317.14L295.953 308.876L317.55 334.382Z" fill="#FFB6B6"/>
<path d="M324.665 339.363L303.343 357.418L303.115 357.148C301.251 354.947 300.338 352.096 300.576 349.222C300.815 346.347 302.185 343.686 304.386 341.822L304.386 341.821L305.779 335.569L315.548 332.37L317.409 330.794L324.665 339.363Z" fill="#2F2E41"/>
<path d="M276.684 271.224L282.15 259.371C282.088 248.56 273.038 239.779 262.248 240.457C256.239 240.834 250.612 244.195 248.287 254.184C242.309 279.871 300.966 333.325 300.966 333.325L311.744 326.664L312.241 319.628L306.205 315.907L306.199 309.906L300.444 307.176L276.684 271.224Z" fill="#2F2E41"/>
<path d="M312.591 267.959L305.836 258.026C305.008 247.246 313.305 237.751 324.115 237.539C330.135 237.421 336.019 240.308 339.157 250.072C347.227 275.18 293.164 333.277 293.164 333.277L281.874 327.525L280.801 320.553L286.511 316.348L286.022 310.367L291.534 307.173L312.591 267.959Z" fill="#2F2E41"/>
<path d="M176.594 354.769L168.514 354.768L164.67 323.602L176.595 323.603L176.594 354.769Z" fill="#A0616A"/>
<path d="M176.879 363.198L152.031 363.197V362.883C152.031 360.318 153.05 357.858 154.864 356.045C156.678 354.231 159.138 353.212 161.703 353.212H161.703L166.242 349.769L174.71 353.212L176.879 353.212L176.879 363.198Z" fill="#2F2E41"/>
<path d="M233.766 354.769L241.845 354.768L245.689 323.602L233.764 323.603L233.766 354.769Z" fill="#A0616A"/>
<path d="M233.481 363.198L258.328 363.197V362.883C258.328 360.318 257.309 357.858 255.495 356.045C253.682 354.231 251.222 353.212 248.657 353.212H248.656L244.118 349.769L235.649 353.212L233.48 353.212L233.481 363.198Z" fill="#2F2E41"/>
<path d="M164.314 300.699C164.434 298.921 165.383 289.086 165.383 289.086L167.655 268.229L171.661 212.94L171.922 209.321L192.905 205.293L207.245 198.418L224.29 203.867L237.563 208.844C237.563 208.844 237.585 210.974 237.687 213.548C237.824 216.918 238.062 221.048 238.631 222.122C239.579 224.02 239.341 234.207 239.341 234.207C239.341 234.207 240.284 254.934 241.471 257.206C242.659 259.479 242.898 264.212 242.54 265.161C242.182 266.109 243.727 291.001 243.727 291.001C243.727 291.001 247.694 335.049 245.205 341.691C242.716 348.333 233.313 343.983 233.313 343.983C233.313 343.983 233.767 342.21 231.04 341.375C228.313 340.539 220.006 278.081 220.006 278.081C220.006 278.081 218.461 265.274 217.04 261.604C215.62 257.934 214.313 247.621 214.313 247.621C214.313 247.621 205.541 230.554 205.427 226.758C205.427 226.758 204.279 223.207 203.194 227.116C202.109 231.025 198.91 240.388 198.91 240.388L195.791 251.888L192.12 269.07L189.746 283.535C189.746 283.535 186.189 302.733 185.621 303.563C185.052 304.393 185.621 321.932 185.621 321.932C185.621 321.932 182.871 336.869 178.984 339.477C175.098 342.085 164.802 339.518 164.802 339.518C164.802 339.518 164.195 302.478 164.314 300.699Z" fill="#2F2E41"/>
<path d="M173.265 151.646L177.93 163.861L172.174 169.817L174.708 172.084L172.839 175.29L167.964 208.885L194.69 217.696L203.69 207.887L210.787 217.696L241.712 211.127L233.826 168.286V165.485L231.599 160.077V148.629L241.826 114.549L219.929 109.205L211.537 103.431L208.821 111.551L197.259 109.763L196.957 103.663L188.111 110.929L176.316 112.776L167.396 114.549L166.26 117.019L168.532 116.524L172.51 148.653L173.265 151.646Z" fill="#2F2E41"/>
<path d="M191.25 118.668L196.957 103.698L211.536 103.431L216.374 118.668L233.763 215.806C233.763 215.806 180.491 230.642 181.031 212.809C181.6 194.06 184.163 169.154 184.163 169.154L191.25 118.668Z" fill="#3F3D56"/>
<path d="M203.922 99.5113C213.408 99.5113 221.097 91.8221 221.097 82.337C221.097 72.8518 213.408 65.1626 203.922 65.1626C194.437 65.1626 186.748 72.8518 186.748 82.337C186.748 91.8221 194.437 99.5113 203.922 99.5113Z" fill="#A0616A"/>
<path d="M185.734 69.8778C188.53 66.8345 192.028 61.2639 202.621 58.9246C215.71 56.034 221.895 67.8585 218.594 68.0523C228.246 70.9751 222.046 90.9495 219.279 89.2743C219.255 89.2577 219.232 89.2399 219.21 89.2209C217.722 88.125 216.473 86.7371 215.539 85.1422C214.606 83.5472 214.007 81.7786 213.78 79.9445L213.254 75.2177C213.179 79.0635 209.249 79.5722 205.233 78.1559C205.47 77.3127 205.923 76.546 206.548 75.9314C207.172 75.3169 207.946 74.8756 208.792 74.6513C206.336 76.9172 203.138 78.5382 198.672 79.0547C199.22 76.9327 200.312 75.3707 202.022 74.4448L201.864 74.2891C200.227 75.5345 198.522 76.7315 196.554 77.2954C194.341 77.9299 191.688 77.5867 190.172 75.8539C189.763 75.3757 189.455 74.8205 189.264 74.2212C189.592 77.2668 187.549 80.7435 185.963 80.1466C184.642 79.89 183.873 71.9038 185.734 69.8778Z" fill="#2F2E41"/>
<path d="M225.097 81.3896L240.716 107.668L252.261 102.215C252.261 102.215 232.368 77.3693 231.735 76.6545C232.006 75.4468 231.904 74.1853 231.443 73.0366C230.982 71.888 230.183 70.9065 229.152 70.2218C228.121 69.5372 226.906 69.1818 225.668 69.2025C224.431 69.2233 223.229 69.6193 222.221 70.3381C221.213 71.0569 220.448 72.0647 220.025 73.2282C219.603 74.3916 219.544 75.6559 219.855 76.8538C220.167 78.0516 220.835 79.1267 221.771 79.9366C222.707 80.7465 223.867 81.2532 225.097 81.3896Z" fill="#A0616A"/>
<path d="M232.66 146.692L256.901 129.229C258.482 128.089 259.809 126.633 260.795 124.952C261.782 123.271 262.406 121.402 262.629 119.466C262.853 117.53 262.669 115.568 262.091 113.707C261.513 111.845 260.553 110.125 259.272 108.656L241.827 88.6436L234.227 98.9421L240.085 111.19L228.742 114.181L232.66 146.692Z" fill="#2F2E41"/>
<path d="M191.055 83.8598L175.435 110.138L163.891 104.685C163.891 104.685 183.783 79.8395 184.417 79.1247C184.146 77.917 184.247 76.6555 184.709 75.5068C185.17 74.3582 185.969 73.3767 187 72.692C188.031 72.0074 189.246 71.652 190.483 71.6727C191.721 71.6935 192.923 72.0895 193.931 72.8083C194.938 73.5272 195.704 74.535 196.127 75.6984C196.549 76.8619 196.608 78.1262 196.296 79.324C195.985 80.5219 195.317 81.5969 194.381 82.4068C193.445 83.2167 192.285 83.7234 191.055 83.8598Z" fill="#A0616A"/>
<path d="M183.491 149.161L159.25 131.698C157.669 130.559 156.343 129.102 155.356 127.421C154.37 125.74 153.745 123.872 153.522 121.936C153.299 119.999 153.482 118.038 154.06 116.176C154.638 114.315 155.598 112.595 156.879 111.125L174.324 91.1133L181.925 101.412L176.067 113.66L187.409 116.651L183.491 149.161Z" fill="#2F2E41"/>
<path d="M16.0182 93.7516C16.3906 94.3023 16.8793 94.7645 17.4497 95.1059C18.0201 95.4473 18.6584 95.6594 19.3197 95.7274C19.981 95.7954 20.6491 95.7175 21.277 95.4994C21.905 95.2812 22.4774 94.928 22.9541 94.4646L37.3931 101.719L36.4094 93.3797L22.8487 87.7694C22.0172 87.0203 20.9398 86.6022 19.8207 86.5944C18.7016 86.5865 17.6184 86.9894 16.7765 87.7268C15.9346 88.4641 15.3923 89.4847 15.2526 90.5951C15.1128 91.7055 15.3853 92.8286 16.0182 93.7516Z" fill="#9E616A"/>
<path d="M75.7528 127.411L68.5635 122.453C68.5635 122.453 60.3308 121.895 59.0926 119.277C57.8544 116.66 57.6457 117.54 56.3257 117.227C55.0058 116.914 54.3246 112.974 52.112 113.439C47.1338 114.485 23.7219 99.0148 26.2487 97.0813L28.1269 89.1616C30.1115 89.9025 32.1807 90.3933 34.2867 90.6225C37.4709 90.9129 44.9732 94.5511 46.0845 95.7441C47.1958 96.9372 49.1644 96.4746 51.8043 97.1007C54.4442 97.7267 55.3681 101.973 59.7466 100.843C65.9073 99.2533 97.8241 114.392 101.277 115.805C105.067 117.356 107.713 121.979 107.713 121.979L106.67 126.378L75.7528 127.411Z" fill="#BFE6FE"/>
<path d="M127.637 352.342H133.903L136.885 328.174H127.637L127.637 352.342Z" fill="#9E616A"/>
<path d="M125.592 348.05L135.603 347.453V351.742L145.12 358.314C145.59 358.639 145.944 359.105 146.13 359.645C146.317 360.185 146.325 360.771 146.155 361.316C145.985 361.862 145.646 362.338 145.185 362.677C144.725 363.015 144.169 363.198 143.598 363.198H131.68L129.626 358.956L128.824 363.198H124.33L125.592 348.05Z" fill="#2F2E41"/>
<path d="M49.1055 347.019L54.9271 349.336L66.6358 327.984L58.044 324.564L49.1055 347.019Z" fill="#9E616A"/>
<path d="M48.7927 342.275L58.3143 345.422L56.728 349.407L63.1395 359.034C63.4562 359.509 63.6126 360.073 63.586 360.644C63.5593 361.215 63.3509 361.762 62.9913 362.206C62.6316 362.649 62.1395 362.967 61.5868 363.111C61.0341 363.255 60.4497 363.219 59.9189 363.008L48.8462 358.6L48.5066 353.899L46.1924 357.544L42.0176 355.882L48.7927 342.275Z" fill="#2F2E41"/>
<path d="M115.008 280.426L104.559 231.667L88.2438 285.843L62.4088 337.215L62.272 337.488L54.0884 333.082C52.9334 312.222 55.6764 292.675 65.709 275.583L70.4597 228.667C70.6052 227.064 74.1489 189.43 85.37 182.756L88.6562 175.263L121.34 167.191L121.459 167.325C124.602 170.857 126.678 175.209 127.447 179.875L137.213 239.039L137.218 239.072L134.6 280.347L138.182 341.239H125.221C117.203 326.153 113.798 305.882 115.008 280.426Z" fill="#2F2E41"/>
<path d="M143.142 75.9304C143.64 76.3705 144.036 76.9145 144.301 77.5241C144.566 78.1337 144.695 78.794 144.677 79.4585C144.659 80.1231 144.496 80.7756 144.199 81.3703C143.902 81.9649 143.478 82.4872 142.957 82.9004L148.295 98.1524L140.151 96.1044L136.331 81.9348C135.695 81.0139 135.419 79.8917 135.555 78.7808C135.692 77.67 136.23 76.6476 137.07 75.9075C137.909 75.1674 138.991 74.761 140.11 74.7652C141.23 74.7694 142.308 75.184 143.142 75.9304Z" fill="#9E616A"/>
<path d="M79.0206 191.138C78.1404 191.138 77.6404 190.965 77.4468 190.595C77.1627 190.052 77.6557 189.342 78.2264 188.52C78.6245 187.947 79.7873 186.808 79.2155 186.738C70.5451 185.679 74.7071 132.224 78.4646 125.158C79.2281 123.722 78.4203 121.519 79.2801 119.083C81.6286 112.429 84.8342 110.384 91.2203 106.31C91.7387 105.98 92.2785 105.634 92.8397 105.274C93.5657 104.808 93.5253 103.261 93.4825 101.623C93.4351 99.8023 93.3858 97.9195 94.2777 96.7428L94.3357 96.6661L94.4293 96.6443C96.5865 96.1456 103.842 95.2198 108.139 96.6511L108.198 96.6713L108.242 96.7154C109.263 97.736 109.356 99.7131 109.446 101.625C109.52 103.195 109.589 104.677 110.167 105.32C114.582 110.241 119.589 110.145 119.639 110.144L119.887 110.137L119.912 110.384C123.007 116.275 120.584 138.154 122.735 151.745C124.921 165.552 143.588 177.306 127.604 179.393C127.638 179.446 127.658 179.507 127.659 179.571C127.661 179.634 127.646 179.696 127.615 179.752C126.649 181.556 82.3381 191.138 79.0206 191.138Z" fill="#BFE6FE"/>
<path d="M151.277 123.809L142.406 128.21C125.311 134.776 116.376 133.177 111.888 130.68C107.098 128.017 106.268 123.933 106.235 123.76L106.232 123.677L107.327 115.009C107.466 113.907 107.837 112.849 108.417 111.902C108.996 110.955 109.77 110.143 110.687 109.518C111.604 108.893 112.644 108.47 113.737 108.278C114.83 108.085 115.951 108.127 117.027 108.401L137.437 113.595L137.065 103.687L137.872 100.12L136.383 95.7835L136.993 87.0746L144.314 85.2827L151.994 99.0379L150.614 102.834L151.914 104.724L151.912 104.812L151.277 123.809Z" fill="#BFE6FE"/>
<path d="M399.366 363.774L0.634194 363.938C0.466346 363.937 0.305541 363.87 0.187026 363.751C0.06851 363.632 0.00195312 363.471 0.00195312 363.304C0.00195312 363.136 0.06851 362.975 0.187026 362.856C0.305541 362.737 0.466346 362.67 0.634194 362.67L399.366 362.506C399.534 362.506 399.695 362.573 399.813 362.692C399.932 362.811 399.998 362.972 399.998 363.14C399.998 363.308 399.932 363.469 399.813 363.588C399.695 363.707 399.534 363.774 399.366 363.774Z" fill="#CACACA"/>
<path d="M275.576 56.4351C280.481 46.006 276.512 33.8144 269.424 30.4808C262.336 27.1472 250.414 31.8646 245.509 42.2937C240.969 51.9471 244.351 63.2539 250.172 67.373C250.074 67.4018 249.983 67.4491 249.903 67.5123L248.504 68.6644C248.397 68.7522 248.315 68.8658 248.265 68.9944C248.214 69.1231 248.198 69.2624 248.216 69.3993C248.235 69.5362 248.288 69.666 248.371 69.7765C248.454 69.8869 248.564 69.9744 248.69 70.0305L252.218 71.5982C252.344 71.6543 252.483 71.6773 252.62 71.6648C252.758 71.6523 252.89 71.6049 253.004 71.527C253.118 71.4491 253.21 71.3434 253.272 71.2198C253.334 71.0962 253.363 70.9589 253.357 70.8209L253.274 69.0106C253.27 68.9476 253.258 68.8853 253.24 68.8251C260.132 70.719 271.026 66.1096 275.576 56.4351Z" fill="#CCCCCC"/>
<path d="M271.558 41.4775C272.671 44.708 272.502 48.2427 271.084 51.3519C269.667 54.4611 267.11 56.9075 263.942 58.1861C263.22 58.4866 263.796 59.5575 264.513 59.259C267.909 57.8444 270.644 55.1981 272.171 51.851C273.698 48.5039 273.902 44.7034 272.744 41.2117C272.499 40.4752 271.311 40.7356 271.558 41.4775Z" fill="white"/>
<path d="M361.635 91.3805C371.56 85.5224 375.143 73.2117 371.161 66.4663C367.18 59.721 354.671 56.9081 344.746 62.7662C335.559 68.1886 331.989 79.4373 334.481 86.1189C334.384 86.0876 334.282 86.0752 334.18 86.0824L332.375 86.2471C332.238 86.2597 332.106 86.3072 331.992 86.3851C331.878 86.4631 331.785 86.5689 331.724 86.6925C331.662 86.8161 331.633 86.9535 331.64 87.0915C331.646 87.2295 331.687 87.3635 331.76 87.481L333.793 90.7628C333.866 90.8802 333.968 90.9771 334.088 91.0443C334.209 91.1114 334.345 91.1466 334.483 91.1464C334.621 91.1463 334.757 91.1108 334.878 91.0435C334.998 90.9761 335.1 90.879 335.172 90.7614L336.123 89.2188C336.155 89.1644 336.181 89.1063 336.199 89.0459C340.829 94.4913 352.428 96.8147 361.635 91.3805Z" fill="#BFE6FE"/>
<path d="M366.736 76.7562C365.837 80.0529 363.707 82.8789 360.786 84.6507C357.864 86.4226 354.374 87.0051 351.035 86.278C350.269 86.12 350.143 87.3295 350.903 87.4865C354.506 88.229 358.257 87.5819 361.403 85.675C364.549 83.7681 366.858 80.7422 367.866 77.2044C368.078 76.4578 366.95 76.004 366.736 76.7562Z" fill="white"/>
<path d="M298.459 43.4785C297.209 40.7271 296.629 37.7185 296.766 34.6993C296.903 31.6802 297.753 28.7365 299.248 26.1096C299.674 25.3695 300.098 24.4737 301.032 24.3314C301.385 24.2672 301.749 24.3246 302.065 24.4942C302.381 24.6638 302.631 24.9357 302.772 25.2653C302.897 25.7038 302.874 26.1711 302.707 26.5953C302.54 27.0195 302.238 27.3769 301.848 27.6125C301.457 27.848 301 27.9486 300.547 27.8987C300.094 27.8488 299.67 27.6512 299.34 27.3364C297.569 25.9095 297.794 23.3984 297.964 21.377C298.352 16.771 298.346 11.9355 296.387 7.64861C294.574 3.6823 290.873 0.364717 286.403 0.00239414C285.621 -0.0609769 285.576 1.15418 286.355 1.21725C290.788 1.5766 294.257 5.22894 295.73 9.22626C296.562 11.6329 296.976 14.1642 296.954 16.7105C296.968 18.0174 296.908 19.3243 296.807 20.6271C296.654 21.8971 296.614 23.1782 296.688 24.4552C296.897 26.5394 298.157 28.774 300.411 29.107C302.513 29.4177 304.566 27.2185 303.998 25.1287C303.861 24.6769 303.613 24.2662 303.278 23.9334C302.944 23.6006 302.531 23.3562 302.079 23.222C301.626 23.0877 301.147 23.0679 300.685 23.1643C300.222 23.2607 299.791 23.4704 299.43 23.7744C298.641 24.4336 298.128 25.5658 297.677 26.4705C296.317 29.1924 295.585 32.1848 295.535 35.2273C295.484 38.2697 296.117 41.2847 297.387 44.0501C297.72 44.7584 298.792 44.185 298.459 43.4785Z" fill="#CCCCCC"/>
<path d="M114.94 100.148C114.482 99.3117 113.694 96.9206 112.81 96.9525C111.906 96.9922 111 96.9152 110.116 96.7236C110.02 96.7076 109.924 96.6863 109.833 96.665C106.099 95.733 102.27 95.2327 98.4212 95.1739C95.3165 95.1313 91.9083 95.504 89.7409 97.7247C87.5735 99.9453 87.8931 104.525 90.8805 105.372C80.8967 107.1 70.6338 104.826 62.3156 99.04C57.0276 95.323 52.7887 90.3438 48.3048 85.6895C43.8209 81.0299 38.879 76.5513 32.8348 74.2721C26.7852 71.9875 19.3884 72.307 14.5157 76.5619C8.5727 81.7488 8.11472 90.674 8.1094 98.5608C8.10407 101.511 9.02535 100.888 11.6294 102.278C14.0471 103.567 16.5873 106.219 18.0624 103.913C19.5375 101.607 19.7984 98.7578 20.102 96.0366C20.4002 93.3153 20.8422 90.4503 22.5676 88.3255C25.5338 84.6724 31.3756 84.6351 35.4708 86.9516C39.566 89.2681 42.3191 93.3207 44.9232 97.2401C47.5273 101.154 50.2751 105.217 54.365 107.55C59.7382 110.612 66.4853 110.159 72.0929 112.769C75.6555 114.43 78.5365 117.215 81.492 119.798C84.4529 122.381 87.696 124.868 91.5356 125.704C95.3698 126.545 99.9229 125.278 101.808 121.832C103.507 118.717 102.676 114.728 104.188 111.512C105.355 109.03 107.735 107.385 109.881 105.67C110.765 104.962 110.994 107.401 111.745 106.538C113.912 106.107 115.947 101.985 114.94 100.148Z" fill="#3F3D56"/>
<path d="M100.009 95.7417C109.302 95.7417 116.835 88.208 116.835 78.9148C116.835 69.6216 109.302 62.0879 100.009 62.0879C90.7153 62.0879 83.1816 69.6216 83.1816 78.9148C83.1816 88.208 90.7153 95.7417 100.009 95.7417Z" fill="#2F2E41"/>
<path d="M101.363 97.1305C108.039 96.9414 113.297 91.3761 113.108 84.7002C112.919 78.0243 107.354 72.7657 100.678 72.9549C94.0017 73.144 88.7432 78.7093 88.9323 85.3852C89.1215 92.0611 94.6867 97.3197 101.363 97.1305Z" fill="#9E616A"/>
<path d="M101.136 66.6006L96.2343 66.7395C93.1451 66.8295 90.2178 68.1415 88.0948 70.3875C85.9718 72.6335 84.8266 75.63 84.9106 78.7194L84.9136 78.828L85.0029 78.884C87.6674 80.6469 90.8124 81.5417 94.0058 81.4454L94.2814 81.4376L96.99 81.3149C97.4456 80.1417 97.5979 78.8726 97.4329 77.625C97.842 78.8076 98.1613 80.0195 98.3881 81.2502L110.541 80.6969C111.248 80.6619 111.914 80.3519 112.396 79.8332C112.878 79.3144 113.138 78.6279 113.12 77.9201C113.029 74.8309 111.716 71.904 109.469 69.7819C107.223 67.6597 104.226 66.5156 101.136 66.6006Z" fill="#2F2E41"/>
<path d="M91.3683 63.5666C90.262 64.931 88.4853 65.4995 86.8891 66.2384C84.0726 67.5704 81.6236 69.5692 79.7543 72.0616C77.885 74.5541 76.6518 77.4649 76.1618 80.5416C75.7857 83.047 75.9173 85.6258 75.2805 88.076C74.6478 90.526 72.9784 92.9595 70.4975 93.4519C68.8188 93.7878 67.1092 93.1843 65.5043 92.5862C64.6217 92.2602 63.739 91.9328 62.8563 91.604C63.7019 89.2942 64.546 86.9844 65.3888 84.6747C63.9914 86.8715 62.3515 88.9043 60.4999 90.7347C57.3367 89.5623 54.1707 88.39 51.002 87.2178C58.7108 87.0286 57.1835 79.5833 58.6952 72.0269C59.5262 67.8746 67.5183 64.8525 68.9896 60.8826C69.7844 58.7295 71.1794 56.8492 73.0095 55.4641C74.8397 54.0791 77.0283 53.2473 79.3163 53.0673C81.6044 52.8873 83.8961 53.3665 85.9203 54.4483C87.9445 55.5301 89.6164 57.1692 90.7382 59.1715C92.3386 59.7572 92.4543 62.2195 91.3683 63.5666Z" fill="#2F2E41"/>
<path d="M92.1388 68.5707C95.5994 68.5707 98.4046 65.7654 98.4046 62.3049C98.4046 58.8444 95.5994 56.0391 92.1388 56.0391C88.6783 56.0391 85.873 58.8444 85.873 62.3049C85.873 65.7654 88.6783 68.5707 92.1388 68.5707Z" fill="#2F2E41"/>
</g>
<defs>
<clipPath id="clip0_1257_328">
<rect width="400" height="363.938" fill="white"/>
</clipPath>
</defs>
</svg>
