<svg width="236" height="200" viewBox="0 0 236 200" fill="none" xmlns="http://www.w3.org/2000/svg">
<path d="M227.343 11.4217C221.976 7.26536 214.968 5.85136 208.406 7.60919L141.976 25.1959C131.015 28.1099 123.383 38.024 123.374 49.3675V146.649C115.39 137.61 102.093 135.571 91.7728 141.798C81.4446 148.024 77.0541 160.743 81.3274 172.016C85.6009 183.29 97.3274 189.899 109.187 187.711C121.047 185.532 129.647 175.18 129.626 163.125V79.4064L229.626 52.938V118.525C221.641 109.486 208.344 107.439 198.024 113.673C187.696 119.9 183.305 132.618 187.579 143.892C191.852 155.165 203.579 161.775 215.439 159.587C227.29 157.407 235.892 147.056 235.877 135V28.7585C235.901 21.9695 232.744 15.5554 227.346 11.4219L227.343 11.4217ZM104.624 181.872C97.0384 181.872 90.2026 177.301 87.3044 170.294C84.3981 163.294 86.0076 155.223 91.3669 149.864C96.7263 144.504 104.797 142.895 111.797 145.801C118.805 148.7 123.375 155.535 123.375 163.121C123.367 173.473 114.977 181.863 104.625 181.871L104.624 181.872ZM210.874 153.748C203.288 153.748 196.453 149.178 193.554 142.17C190.648 135.17 192.258 127.1 197.617 121.74C202.976 116.381 211.047 114.772 218.047 117.678C225.055 120.576 229.625 127.412 229.625 134.998C229.617 145.349 221.227 153.739 210.875 153.748L210.874 153.748ZM129.624 72.9367V49.3584V49.3662C129.632 40.8583 135.359 33.4208 143.578 31.2412L209.999 13.6545C214.687 12.4123 219.687 13.4201 223.531 16.381C227.374 19.3342 229.624 23.9123 229.624 28.756V46.4677L129.624 72.9367Z" fill="#BFE5FD"/>
<path d="M75 54.9916C73.2735 54.9916 71.875 53.5932 71.875 51.8666C71.875 46.1948 75.6953 41.2337 81.1797 39.7806L99.203 35.0071C100.867 34.5696 102.578 35.5618 103.023 37.2336C103.461 38.8976 102.469 40.6086 100.797 41.0539L82.7735 45.8274V45.8196C80.0392 46.554 78.125 49.0306 78.125 51.8664C78.125 52.6946 77.7969 53.4914 77.2109 54.0774C76.625 54.6634 75.8282 54.9916 75 54.9916Z" fill="black"/>
<path d="M115.623 34.3769C115.623 38.5409 109.373 38.5409 109.373 34.3769C109.373 30.2129 115.623 30.2129 115.623 34.3769Z" fill="black"/>
<path d="M31.25 168.75C29.5235 168.75 28.125 167.352 28.125 165.625C28.1328 158.727 33.7265 153.133 40.625 153.125C42.3515 153.125 43.75 154.523 43.75 156.25C43.75 157.977 42.3516 159.375 40.625 159.375C37.1718 159.383 34.3828 162.172 34.375 165.625C34.375 166.453 34.0469 167.25 33.4609 167.836C32.875 168.422 32.0782 168.75 31.25 168.75Z" fill="black"/>
<path d="M137.5 140.624C135.773 140.624 134.375 139.225 134.375 137.499C134.383 130.6 139.977 125.006 146.875 124.999C148.602 124.999 150 126.397 150 128.124C150 129.85 148.602 131.249 146.875 131.249C143.422 131.256 140.633 134.045 140.625 137.499C140.625 138.327 140.297 139.124 139.711 139.71C139.125 140.295 138.328 140.624 137.5 140.624Z" fill="black"/>
<path d="M163.343 13.9217C157.976 9.76536 150.968 8.35136 144.406 10.1092L77.9761 27.6959C67.0151 30.6099 59.3828 40.524 59.3744 51.8675V149.149C51.3901 140.11 38.0928 138.071 27.7728 144.298C17.4446 150.524 13.0541 163.243 17.3274 174.516C21.6009 185.79 33.3274 192.399 45.1874 190.211C57.0468 188.032 65.6474 177.68 65.6258 165.625V81.9064L165.626 55.438V121.025C157.641 111.986 144.344 109.939 134.024 116.173C123.696 122.4 119.305 135.118 123.579 146.392C127.852 157.665 139.579 164.275 151.439 162.087C163.29 159.907 171.892 149.556 171.877 137.5V31.2585C171.901 24.4695 168.744 18.0554 163.346 13.9219L163.343 13.9217ZM40.6244 184.372C33.0384 184.372 26.2026 179.801 23.3044 172.794C20.3981 165.794 22.0076 157.723 27.3669 152.364C32.7263 147.004 40.7966 145.395 47.7969 148.301C54.8048 151.2 59.3751 158.035 59.3751 165.621C59.3673 175.973 50.9766 184.363 40.6251 184.371L40.6244 184.372ZM146.874 156.248C139.288 156.248 132.453 151.678 129.554 144.67C126.648 137.67 128.258 129.6 133.617 124.24C138.976 118.881 147.047 117.272 154.047 120.178C161.055 123.076 165.625 129.912 165.625 137.498C165.617 147.849 157.227 156.239 146.875 156.248L146.874 156.248ZM65.6244 75.4367V51.8584V51.8662C65.6322 43.3583 71.3588 35.9208 79.5776 33.7412L145.999 16.1545C150.687 14.9123 155.687 15.9201 159.531 18.881C163.374 21.8342 165.624 26.4123 165.624 31.256V48.9677L65.6244 75.4367Z" fill="black"/>
</svg>
