<svg width="150" height="213" viewBox="0 0 150 213" fill="none" xmlns="http://www.w3.org/2000/svg">
<g clip-path="url(#clip0_906_728)">
<path d="M96.3991 59.1591C96.3991 59.1591 90.024 60.2205 86.7485 59.6251C83.473 59.0298 76.9736 62.4088 76.9736 62.4088L59.7982 68.7676C59.7982 68.7676 44.263 81.4962 42.0784 72.6274C40.855 67.6605 56.8655 63.6684 56.8655 63.6684L85.0075 50.1882L95.247 46.6489L96.3991 59.1591Z" fill="#FFB9B9"/>
<path d="M97.6249 96.25L93.1352 100.553L93.9363 119.303C93.9363 119.303 94.8585 143.893 94.5511 144.816C94.2437 145.738 88.7109 183.238 88.7109 183.238C88.7109 183.238 95.1659 186.311 101.006 184.467C101.006 184.467 106.846 156.803 106.846 148.811L113.608 120.84L124.059 152.807C124.059 152.807 124.674 174.324 125.904 181.393C127.133 188.463 127.133 189.385 127.133 189.385C127.133 189.385 136.969 192.152 139.428 189.385C139.428 189.385 138.199 153.115 137.277 149.426L135.125 105.471L97.6249 96.25Z" fill="#2F2E41"/>
<path d="M91.1698 183.238C91.1698 183.238 90.5551 182.316 88.7108 184.775C86.8666 187.234 81.0264 191.844 81.0264 191.844C81.0264 191.844 65.0428 203.217 77.0305 203.832C89.0182 204.447 91.1698 198.299 91.1698 198.299C91.1698 198.299 101.313 196.455 101.621 194.303C101.928 192.152 100.391 183.545 100.391 183.545L91.1698 183.238Z" fill="#2F2E41"/>
<path d="M127.747 188.771C127.747 188.771 125.595 196.148 126.21 199.221C126.825 202.295 124.981 213.668 133.587 212.746C142.194 211.824 139.427 201.988 139.427 201.988L136.661 189.385L127.747 188.771Z" fill="#2F2E41"/>
<path d="M115.606 27.8587C121.208 27.8587 125.75 23.3173 125.75 17.7152C125.75 12.1132 121.208 7.57178 115.606 7.57178C110.004 7.57178 105.463 12.1132 105.463 17.7152C105.463 23.3173 110.004 27.8587 115.606 27.8587Z" fill="#FFB9B9"/>
<path d="M109.613 23.0945C109.613 23.0945 112.687 33.8527 110.228 37.8486C107.769 41.8445 126.826 38.4634 128.056 34.7748C128.056 34.7748 121.908 28.0125 122.83 21.5576L109.613 23.0945Z" fill="#FFB9B9"/>
<path d="M114.53 37.5413C114.53 37.5413 122.944 38.1102 127.036 33.5225L137.984 38.2011C139.18 38.7123 140.167 39.6143 140.784 40.7596C141.401 41.9049 141.61 43.2255 141.378 44.5055L135.739 75.6561C135.739 75.6561 138.319 95.3282 136.969 108.545C135.748 120.487 91.4768 108.545 93.0137 98.402C93.1784 97.3152 93.3303 96.2037 93.4704 95.0852C94.763 85.0944 96.6317 75.1865 99.0669 65.4111C99.8843 62.0716 97.6244 43.0741 97.6244 43.0741L111.154 34.1095C111.154 34.1095 111.764 37.5413 114.53 37.5413Z" fill="black"/>
<path d="M105.41 42.2791L102.838 39.6353L83.998 50.2445C83.998 50.2445 89.517 59.8846 91.6903 59.9146C92.5232 59.926 102.407 60.4095 104.816 57.2132C108.692 52.0697 105.41 42.2791 105.41 42.2791Z" fill="black"/>
<path d="M113.115 11.0781C114.62 10.8427 116.138 10.6922 117.66 10.6275C118.763 10.5807 119.912 10.5881 120.909 11.0628C122.412 11.7785 123.254 13.3964 123.805 14.967C124.356 16.5376 124.747 18.2161 125.77 19.5295C127.472 17.7534 127.812 15.1128 128.065 12.6663C128.243 10.9455 128.401 9.11061 127.605 7.57442C127.115 6.62825 126.307 5.89091 125.488 5.20924C121.578 1.95517 116.612 -0.605345 111.578 0.125536L111.461 0.902724C110.602 0.876898 109.742 0.930919 108.893 1.06409L109.073 2.99227L106.399 3.16189L106.296 5.17142L103.592 5.26517C103.644 6.0374 103.98 6.76304 104.535 7.30225C104.119 7.6028 103.647 7.81618 103.146 7.9296C103.597 9.67519 104.035 11.4248 104.501 13.1665C104.844 14.4494 104.783 15.583 106.159 14.9569C107.207 14.4802 107.916 12.9641 108.975 12.3378C110.223 11.5999 111.7 11.2995 113.115 11.0781Z" fill="#2F2E41"/>
<path d="M146.416 55.8643L146.565 66.6972L143.444 97.7447C143.444 97.7447 145.127 114.159 140.04 114.696C130.956 115.653 137.652 96.7183 137.652 96.7183L137.799 78.4042C137.799 78.4042 138.77 71.1435 137.097 68.2649C135.425 65.3863 134.258 59.0297 134.258 59.0297L146.416 55.8643Z" fill="#FFB9B9"/>
<path d="M137.892 39.0781C139.137 39.0778 140.349 39.4822 141.344 40.2304C142.339 40.9786 143.064 42.03 143.41 43.2262C145.373 50.0282 148.938 62.828 148.036 63.0535C146.806 63.3609 132.359 64.283 132.359 64.283L137.892 39.0781Z" fill="black"/>
<path d="M25.7051 91.2283L25.7793 91.2462C27.1215 91.5701 28.3272 92.3095 29.2245 93.3589C30.1219 94.4083 30.6651 95.7141 30.7768 97.0904C30.8885 98.4666 30.5629 99.8429 29.8465 101.023C29.1301 102.204 28.0594 103.128 26.787 103.664C26.2864 103.876 25.7609 104.025 25.223 104.105C24.2683 104.251 23.2931 104.184 22.3673 103.909C21.4414 103.635 20.5876 103.159 19.8669 102.516C19.1462 101.873 18.5763 101.079 18.198 100.19C17.8197 99.3016 17.6423 98.3404 17.6784 97.3753C17.7146 96.4102 17.9634 95.4649 18.4071 94.6071C18.8508 93.7493 19.4784 93 20.2452 92.4128C21.0119 91.8256 21.8989 91.4149 22.8427 91.2102C23.7866 91.0054 24.764 91.0116 25.7051 91.2283Z" fill="black"/>
<path d="M25.7055 91.2283C26.3408 95.345 26.7023 99.4993 26.7874 103.664C26.2867 103.876 25.7612 104.025 25.2233 104.105C25.2624 99.7313 24.8808 95.3637 24.084 91.0628C24.6293 91.0502 25.174 91.1058 25.7055 91.2283Z" fill="#E6E6E6"/>
<path d="M51.8116 92.5975L29.3105 93.5106L29.9443 100.959L52.3068 97.5861C52.7038 97.5313 53.0636 97.3232 53.3091 97.0064C53.5547 96.6896 53.6665 96.2893 53.6207 95.8912L53.5904 95.628L54.4732 95.5914C54.5815 95.5869 54.6877 95.5597 54.7849 95.5116C54.8821 95.4635 54.968 95.3955 55.0373 95.3121C55.1065 95.2287 55.1575 95.1317 55.1869 95.0273C55.2163 94.9229 55.2235 94.8136 55.208 94.7063L55.2026 94.6689C55.1739 94.4705 55.0694 94.2909 54.9111 94.1679C54.7527 94.0449 54.5529 93.988 54.3536 94.0093L53.4156 94.1092L53.3978 93.9548C53.3535 93.5702 53.1655 93.2165 52.8713 92.9647C52.5771 92.7129 52.1985 92.5818 51.8116 92.5975Z" fill="#3F3D56"/>
<path d="M39.3482 96.9824C39.325 97.0791 39.2708 97.1655 39.194 97.2287C39.1172 97.2918 39.0219 97.3282 38.9225 97.3323L37.3064 97.3992C37.1962 97.4034 37.0883 97.3679 37.0022 97.2991C36.9161 97.2303 36.8575 97.1329 36.8373 97.0246L36.6735 96.1315C36.6622 96.0695 36.6637 96.0059 36.6781 95.9446C36.6925 95.8833 36.7193 95.8256 36.757 95.7751C36.7947 95.7247 36.8424 95.6825 36.8972 95.6514C36.9519 95.6202 37.0125 95.6007 37.0751 95.594L38.7104 95.4197C38.8282 95.4068 38.9463 95.4402 39.0399 95.5129C39.1335 95.5856 39.1951 95.6918 39.2117 95.8092L39.3564 96.8096C39.3647 96.8672 39.3619 96.9258 39.3482 96.9824ZM36.9752 96.0131C36.9702 96.0339 36.9696 96.0554 36.9735 96.0764L37.1374 96.9696C37.1441 97.0057 37.1636 97.0382 37.1923 97.0611C37.221 97.084 37.257 97.0959 37.2937 97.0945L38.9098 97.0275C38.9311 97.0266 38.952 97.0213 38.9712 97.0118C38.9903 97.0023 39.0072 96.989 39.0209 96.9725C39.0345 96.9561 39.0445 96.937 39.0503 96.9165C39.0561 96.8959 39.0575 96.8744 39.0545 96.8532L38.9097 95.8528C38.9042 95.8137 38.8837 95.7783 38.8525 95.7541C38.8213 95.7299 38.782 95.7187 38.7427 95.7231L37.1074 95.8973C37.0865 95.8994 37.0663 95.9059 37.048 95.9163C37.0298 95.9266 37.0139 95.9407 37.0015 95.9576C36.989 95.9741 36.9801 95.993 36.9752 96.0131Z" fill="#E6E6E6"/>
</g>
<defs>
<clipPath id="clip0_906_728">
<rect width="150" height="212.799" fill="white"/>
</clipPath>
</defs>
</svg>
