<svg width="300" height="217" viewBox="0 0 300 217" fill="none" xmlns="http://www.w3.org/2000/svg">
<path d="M269.958 139.44H93.9468C93.1995 139.44 92.4827 139.737 91.9543 140.265C91.4258 140.794 91.1289 141.511 91.1289 142.258C91.1289 143.005 91.4258 143.722 91.9543 144.25C92.4827 144.779 93.1995 145.076 93.9468 145.076H98.9324V212.489C98.9324 213.236 99.2293 213.953 99.7577 214.482C100.286 215.01 101.003 215.307 101.75 215.307C102.498 215.307 103.214 215.01 103.743 214.482C104.271 213.953 104.568 213.236 104.568 212.489L104.611 145.076H258.903V212.489C258.903 213.236 259.2 213.953 259.729 214.482C260.257 215.01 260.974 215.307 261.721 215.307C262.469 215.307 263.185 215.01 263.714 214.482C264.242 213.953 264.539 213.236 264.539 212.489V146.562L265.359 145.076H269.958C270.706 145.076 271.422 144.779 271.951 144.25C272.479 143.722 272.776 143.005 272.776 142.258C272.776 141.511 272.479 140.794 271.951 140.265C271.422 139.737 270.706 139.44 269.958 139.44Z" fill="#CCCCCC"/>
<path d="M191.53 140.915H138.214C137.182 140.914 136.192 140.503 135.462 139.773C134.732 139.043 134.321 138.053 134.32 137.021V107.667C134.321 106.635 134.732 105.645 135.462 104.915C136.192 104.185 137.182 103.775 138.214 103.773H191.53C192.562 103.775 193.552 104.185 194.282 104.915C195.012 105.645 195.423 106.635 195.424 107.667V137.021C195.423 138.053 195.012 139.043 194.282 139.773C193.552 140.503 192.562 140.914 191.53 140.915Z" fill="#3F3D56"/>
<path d="M191.529 106.77H138.214C137.976 106.771 137.748 106.865 137.58 107.033C137.412 107.202 137.317 107.43 137.316 107.667V137.021C137.317 137.259 137.412 137.487 137.58 137.655C137.748 137.824 137.976 137.918 138.214 137.919H191.529C191.767 137.918 191.995 137.824 192.163 137.655C192.331 137.487 192.426 137.259 192.426 137.021V107.667C192.426 107.43 192.331 107.202 192.163 107.033C191.995 106.865 191.767 106.771 191.529 106.77Z" fill="white"/>
<path d="M169.418 127.553C169.418 127.553 163.036 126.082 159.525 128.778C156.015 131.475 163.993 137.603 163.993 137.603L169.418 127.553Z" fill="#2F2E41"/>
<path d="M165.184 124.774C168.509 124.774 171.205 122.078 171.205 118.753C171.205 115.428 168.509 112.733 165.184 112.733C161.859 112.733 159.164 115.428 159.164 118.753C159.164 122.078 161.859 124.774 165.184 124.774Z" fill="#A0616A"/>
<path d="M160.529 110.302C160.93 109.621 161.512 109.063 162.211 108.692C162.909 108.32 163.696 108.149 164.486 108.197C165.311 108.3 166.117 108.526 166.877 108.866L170.812 110.401C171.831 110.799 172.946 111.285 173.388 112.285C173.798 113.213 173.492 114.285 173.182 115.251L171.71 119.843C171.547 118.804 171.267 117.786 170.875 116.81C170.478 115.827 169.759 115.007 168.836 114.484C167.814 113.96 166.609 113.971 165.461 114.026C163.836 114.104 162.069 114.311 160.914 115.457C160.301 116.108 159.885 116.92 159.715 117.798C159.548 118.671 159.464 119.559 159.464 120.448C158.797 119.302 158.236 118.098 157.786 116.851C157.417 115.923 157.206 114.939 157.163 113.94C157.125 112.933 157.459 111.947 158.102 111.171C158.428 110.792 158.854 110.512 159.331 110.361C159.808 110.211 160.318 110.197 160.803 110.321L160.529 110.302Z" fill="#2F2E41"/>
<path d="M179.559 132.773C179.503 132.569 179.387 132.387 179.228 132.249C179.068 132.111 178.871 132.023 178.662 131.997C178.648 131.987 178.633 131.978 178.618 131.971L169.631 126.934C169.374 126.79 169.072 126.751 168.787 126.824C168.502 126.898 168.256 127.078 168.101 127.328L165.643 131.308L161.941 127.605L161.882 127.546C161.692 127.356 161.441 127.239 161.173 127.216C160.906 127.193 160.638 127.264 160.418 127.418L153.032 132.591C153.019 132.591 153.006 132.595 152.993 132.595C152.639 132.654 152.316 132.832 152.077 133.099C151.839 133.366 151.698 133.707 151.679 134.065L151.488 137.919H180.985L179.559 132.773Z" fill="#BFE6FE"/>
<path d="M196.022 137.32H190.331C190.331 137.161 190.268 137.009 190.155 136.897C190.043 136.784 189.891 136.721 189.732 136.721H187.935C187.776 136.721 187.623 136.784 187.511 136.897C187.399 137.009 187.336 137.161 187.336 137.32H185.538C185.538 137.161 185.475 137.009 185.363 136.897C185.251 136.784 185.098 136.721 184.939 136.721H183.142C182.983 136.721 182.831 136.784 182.719 136.897C182.606 137.009 182.543 137.161 182.543 137.32H180.746C180.746 137.161 180.683 137.009 180.57 136.897C180.458 136.784 180.306 136.721 180.147 136.721H178.35C178.191 136.721 178.038 136.784 177.926 136.897C177.814 137.009 177.751 137.161 177.751 137.32H175.953C175.953 137.161 175.89 137.009 175.778 136.897C175.666 136.784 175.513 136.721 175.354 136.721H173.557C173.398 136.721 173.246 136.784 173.134 136.897C173.021 137.009 172.958 137.161 172.958 137.32H171.161C171.161 137.161 171.098 137.009 170.986 136.897C170.873 136.784 170.721 136.721 170.562 136.721H168.765C168.606 136.721 168.454 136.784 168.341 136.897C168.229 137.009 168.166 137.161 168.166 137.32H166.369C166.369 137.161 166.305 137.009 166.193 136.897C166.081 136.784 165.928 136.721 165.77 136.721H163.972C163.814 136.721 163.661 136.784 163.549 136.897C163.436 137.009 163.373 137.161 163.373 137.32H161.576C161.576 137.161 161.513 137.009 161.401 136.897C161.288 136.784 161.136 136.721 160.977 136.721H159.18C159.021 136.721 158.869 136.784 158.756 136.897C158.644 137.009 158.581 137.161 158.581 137.32H156.784C156.784 137.161 156.721 137.009 156.608 136.897C156.496 136.784 156.344 136.721 156.185 136.721H154.388C154.229 136.721 154.076 136.784 153.964 136.897C153.852 137.009 153.788 137.161 153.788 137.32H151.991C151.991 137.161 151.928 137.009 151.816 136.897C151.704 136.784 151.551 136.721 151.392 136.721H149.595C149.436 136.721 149.284 136.784 149.172 136.897C149.059 137.009 148.996 137.161 148.996 137.32H147.199C147.199 137.161 147.136 137.009 147.023 136.897C146.911 136.784 146.759 136.721 146.6 136.721H144.803C144.644 136.721 144.491 136.784 144.379 136.897C144.267 137.009 144.204 137.161 144.204 137.32H142.406C142.406 137.161 142.343 137.009 142.231 136.897C142.119 136.784 141.966 136.721 141.807 136.721H140.01C139.851 136.721 139.699 136.784 139.587 136.897C139.474 137.009 139.411 137.161 139.411 137.32H133.72C133.244 137.321 132.788 137.511 132.451 137.848C132.115 138.185 131.926 138.641 131.926 139.117C131.926 139.594 132.115 140.05 132.451 140.387C132.788 140.724 133.244 140.914 133.72 140.915H196.022C196.498 140.915 196.956 140.725 197.293 140.388C197.63 140.051 197.819 139.594 197.819 139.117C197.819 138.641 197.63 138.184 197.293 137.847C196.956 137.51 196.498 137.32 196.022 137.32Z" fill="#3F3D56"/>
<path d="M124.456 126.883V138.817H94.5587C93.7577 138.844 92.9592 138.711 92.211 138.424C91.4628 138.136 90.78 137.701 90.2035 137.144C89.627 136.588 89.1685 135.92 88.8554 135.183C88.5422 134.445 88.3809 133.652 88.3809 132.85C88.3809 132.049 88.5422 131.255 88.8554 130.517C89.1685 129.78 89.627 129.113 90.2035 128.556C90.78 127.999 91.4628 127.564 92.211 127.277C92.9592 126.989 93.7577 126.856 94.5587 126.883H124.456Z" fill="#F2F2F2"/>
<path d="M125.19 138.725C125.19 138.847 125.142 138.964 125.055 139.05C124.969 139.136 124.853 139.184 124.731 139.184H94.0261C92.3585 139.184 90.7591 138.522 89.5799 137.342C88.4007 136.163 87.7383 134.564 87.7383 132.896C87.7383 131.229 88.4007 129.629 89.5799 128.45C90.7591 127.271 92.3585 126.608 94.0261 126.608H124.731C124.853 126.608 124.969 126.657 125.055 126.743C125.142 126.829 125.19 126.946 125.19 127.067C125.19 127.189 125.142 127.306 125.055 127.392C124.969 127.478 124.853 127.526 124.731 127.526H94.0261C92.6028 127.528 91.2381 128.094 90.2321 129.101C89.2261 130.108 88.661 131.473 88.661 132.896C88.661 134.32 89.2261 135.685 90.2321 136.692C91.2381 137.699 92.6028 138.265 94.0261 138.266H124.731C124.853 138.266 124.969 138.315 125.055 138.401C125.141 138.487 125.19 138.603 125.19 138.725Z" fill="#BFE6FE"/>
<path d="M124.456 129.638H92.3288C92.3166 129.638 92.3046 129.635 92.2934 129.631C92.2822 129.626 92.272 129.62 92.2634 129.611C92.2548 129.602 92.248 129.592 92.2434 129.581C92.2387 129.57 92.2363 129.558 92.2363 129.546C92.2363 129.534 92.2387 129.522 92.2434 129.511C92.248 129.499 92.2548 129.489 92.2634 129.481C92.272 129.472 92.2822 129.465 92.2934 129.461C92.3046 129.456 92.3166 129.454 92.3288 129.454H124.456C124.481 129.454 124.504 129.464 124.521 129.481C124.538 129.498 124.548 129.522 124.548 129.546C124.548 129.57 124.538 129.593 124.521 129.611C124.504 129.628 124.481 129.638 124.456 129.638Z" fill="#CCCCCC"/>
<path d="M124.456 131.84H92.3288C92.3166 131.84 92.3046 131.838 92.2934 131.834C92.2822 131.829 92.272 131.822 92.2634 131.814C92.2548 131.805 92.248 131.795 92.2434 131.784C92.2387 131.773 92.2363 131.761 92.2363 131.749C92.2363 131.736 92.2387 131.724 92.2434 131.713C92.248 131.702 92.2548 131.692 92.2634 131.683C92.272 131.675 92.2822 131.668 92.2934 131.664C92.3046 131.659 92.3166 131.657 92.3288 131.657H124.456C124.481 131.657 124.504 131.667 124.521 131.684C124.538 131.701 124.548 131.724 124.548 131.749C124.548 131.773 124.538 131.796 124.521 131.813C124.504 131.83 124.481 131.84 124.456 131.84Z" fill="#CCCCCC"/>
<path d="M124.456 134.043H92.3288C92.3166 134.044 92.3046 134.041 92.2934 134.037C92.2822 134.032 92.272 134.025 92.2634 134.017C92.2548 134.008 92.248 133.998 92.2434 133.987C92.2387 133.976 92.2363 133.964 92.2363 133.952C92.2363 133.94 92.2387 133.928 92.2434 133.916C92.248 133.905 92.2548 133.895 92.2634 133.887C92.272 133.878 92.2822 133.871 92.2934 133.867C92.3046 133.862 92.3166 133.86 92.3288 133.86H124.456C124.481 133.86 124.504 133.87 124.521 133.887C124.538 133.904 124.548 133.927 124.548 133.952C124.548 133.976 124.538 133.999 124.521 134.016C124.504 134.034 124.481 134.043 124.456 134.043Z" fill="#CCCCCC"/>
<path d="M124.456 136.247H92.3288C92.3166 136.247 92.3046 136.244 92.2934 136.24C92.2822 136.235 92.272 136.228 92.2634 136.22C92.2548 136.211 92.248 136.201 92.2434 136.19C92.2387 136.179 92.2363 136.167 92.2363 136.155C92.2363 136.143 92.2387 136.131 92.2434 136.12C92.248 136.108 92.2548 136.098 92.2634 136.09C92.272 136.081 92.2822 136.074 92.2934 136.07C92.3046 136.065 92.3166 136.063 92.3288 136.063H124.456C124.481 136.063 124.504 136.073 124.521 136.09C124.538 136.107 124.548 136.131 124.548 136.155C124.548 136.179 124.538 136.202 124.521 136.219C124.504 136.237 124.481 136.246 124.456 136.247Z" fill="#CCCCCC"/>
<path d="M118.821 114.311V126.244H88.9239C88.1229 126.272 87.3245 126.139 86.5762 125.851C85.828 125.564 85.1453 125.129 84.5688 124.572C83.9923 124.015 83.5338 123.348 83.2206 122.61C82.9075 121.873 82.7461 121.079 82.7461 120.278C82.7461 119.476 82.9075 118.683 83.2206 117.945C83.5338 117.207 83.9923 116.54 84.5688 115.983C85.1453 115.427 85.828 114.992 86.5762 114.704C87.3245 114.417 88.1229 114.283 88.9239 114.311H118.821Z" fill="#F2F2F2"/>
<path d="M119.555 126.153C119.555 126.275 119.507 126.391 119.421 126.477C119.335 126.563 119.218 126.612 119.096 126.612H88.3913C87.5656 126.612 86.748 126.449 85.9851 126.133C85.2222 125.817 84.5291 125.354 83.9452 124.77C83.3613 124.186 82.8981 123.493 82.5821 122.73C82.2662 121.967 82.1035 121.15 82.1035 120.324C82.1035 119.498 82.2662 118.681 82.5821 117.918C82.8981 117.155 83.3613 116.462 83.9452 115.878C84.5291 115.294 85.2222 114.831 85.9851 114.515C86.748 114.199 87.5656 114.036 88.3913 114.036H119.096C119.218 114.036 119.335 114.084 119.421 114.171C119.507 114.257 119.555 114.373 119.555 114.495C119.555 114.617 119.507 114.734 119.421 114.82C119.335 114.906 119.218 114.954 119.096 114.954H88.3913C86.968 114.955 85.6034 115.522 84.5974 116.529C83.5914 117.535 83.0263 118.901 83.0263 120.324C83.0263 121.747 83.5914 123.112 84.5974 124.119C85.6034 125.126 86.968 125.693 88.3913 125.694H119.096C119.218 125.694 119.335 125.742 119.421 125.828C119.507 125.914 119.555 126.031 119.555 126.153Z" fill="#3F3D56"/>
<path d="M118.82 117.065H86.692C86.6799 117.066 86.6679 117.063 86.6567 117.059C86.6455 117.054 86.6353 117.047 86.6267 117.039C86.6181 117.03 86.6113 117.02 86.6067 117.009C86.602 116.998 86.5996 116.986 86.5996 116.974C86.5996 116.962 86.602 116.95 86.6067 116.938C86.6113 116.927 86.6181 116.917 86.6267 116.909C86.6353 116.9 86.6455 116.893 86.6567 116.889C86.6679 116.884 86.6799 116.882 86.692 116.882H118.82C118.844 116.882 118.867 116.892 118.884 116.909C118.901 116.926 118.911 116.949 118.911 116.974C118.911 116.998 118.901 117.021 118.884 117.038C118.867 117.056 118.844 117.065 118.82 117.065Z" fill="#CCCCCC"/>
<path d="M118.82 119.268H86.692C86.6799 119.268 86.6679 119.266 86.6567 119.261C86.6455 119.257 86.6353 119.25 86.6267 119.241C86.6181 119.233 86.6113 119.223 86.6067 119.212C86.602 119.2 86.5996 119.188 86.5996 119.176C86.5996 119.164 86.602 119.152 86.6067 119.141C86.6113 119.13 86.6181 119.12 86.6267 119.111C86.6353 119.103 86.6455 119.096 86.6567 119.091C86.6679 119.087 86.6799 119.084 86.692 119.084H118.82C118.844 119.085 118.867 119.094 118.884 119.112C118.901 119.129 118.911 119.152 118.911 119.176C118.911 119.201 118.901 119.224 118.884 119.241C118.867 119.258 118.844 119.268 118.82 119.268Z" fill="#CCCCCC"/>
<path d="M118.82 121.471H86.692C86.6799 121.471 86.6679 121.469 86.6567 121.464C86.6455 121.46 86.6353 121.453 86.6267 121.445C86.6181 121.436 86.6113 121.426 86.6067 121.415C86.602 121.403 86.5996 121.391 86.5996 121.379C86.5996 121.367 86.602 121.355 86.6067 121.344C86.6113 121.333 86.6181 121.323 86.6267 121.314C86.6353 121.306 86.6455 121.299 86.6567 121.294C86.6679 121.29 86.6799 121.288 86.692 121.288H118.82C118.844 121.288 118.867 121.298 118.884 121.315C118.901 121.332 118.911 121.355 118.911 121.379C118.911 121.404 118.901 121.427 118.884 121.444C118.867 121.461 118.844 121.471 118.82 121.471Z" fill="#CCCCCC"/>
<path d="M118.82 123.674H86.692C86.6799 123.674 86.6679 123.672 86.6567 123.667C86.6455 123.663 86.6353 123.656 86.6267 123.648C86.6181 123.639 86.6113 123.629 86.6067 123.618C86.602 123.607 86.5996 123.595 86.5996 123.583C86.5996 123.57 86.602 123.558 86.6067 123.547C86.6113 123.536 86.6181 123.526 86.6267 123.517C86.6353 123.509 86.6455 123.502 86.6567 123.498C86.6679 123.493 86.6799 123.491 86.692 123.491H118.82C118.844 123.491 118.867 123.501 118.884 123.518C118.901 123.535 118.911 123.558 118.911 123.583C118.911 123.607 118.901 123.63 118.884 123.647C118.867 123.664 118.844 123.674 118.82 123.674Z" fill="#CCCCCC"/>
<path d="M153.599 181.232V170.828C153.599 170.368 153.416 169.927 153.091 169.602C152.766 169.276 152.325 169.094 151.865 169.094H112.414C111.954 169.094 111.513 169.276 111.188 169.602C110.862 169.927 110.68 170.368 110.68 170.828V181.232H153.599Z" fill="#CCCCCC"/>
<path d="M153.599 185.134H110.68V198.574H153.599V185.134Z" fill="#CCCCCC"/>
<path d="M110.68 202.475V212.88C110.68 213.34 110.862 213.781 111.188 214.106C111.513 214.431 111.954 214.614 112.414 214.614H151.865C152.325 214.614 152.766 214.431 153.091 214.106C153.416 213.781 153.599 213.34 153.599 212.88V202.475H110.68Z" fill="#CCCCCC"/>
<path d="M131.924 176.897C132.642 176.897 133.224 176.315 133.224 175.596C133.224 174.878 132.642 174.296 131.924 174.296C131.205 174.296 130.623 174.878 130.623 175.596C130.623 176.315 131.205 176.897 131.924 176.897Z" fill="white"/>
<path d="M131.924 194.238C132.642 194.238 133.224 193.656 133.224 192.938C133.224 192.219 132.642 191.637 131.924 191.637C131.205 191.637 130.623 192.219 130.623 192.938C130.623 193.656 131.205 194.238 131.924 194.238Z" fill="white"/>
<path d="M131.994 211.212C132.712 211.212 133.295 210.63 133.295 209.911C133.295 209.193 132.712 208.611 131.994 208.611C131.276 208.611 130.693 209.193 130.693 209.911C130.693 210.63 131.276 211.212 131.994 211.212Z" fill="white"/>
<path d="M148.733 157.231V169.164H118.836C118.035 169.192 117.237 169.058 116.488 168.771C115.74 168.483 115.057 168.048 114.481 167.492C113.904 166.935 113.446 166.268 113.133 165.53C112.82 164.792 112.658 163.999 112.658 163.197C112.658 162.396 112.82 161.602 113.133 160.865C113.446 160.127 113.904 159.46 114.481 158.903C115.057 158.346 115.74 157.911 116.488 157.624C117.237 157.336 118.035 157.203 118.836 157.231H148.733Z" fill="#F2F2F2"/>
<path d="M149.469 169.072C149.469 169.193 149.42 169.31 149.334 169.396C149.248 169.482 149.131 169.531 149.01 169.531H118.305C117.479 169.531 116.66 169.369 115.897 169.054C115.133 168.738 114.44 168.275 113.855 167.691C113.271 167.107 112.807 166.414 112.491 165.65C112.175 164.887 112.012 164.069 112.012 163.243C112.012 162.417 112.175 161.599 112.491 160.835C112.807 160.072 113.271 159.379 113.855 158.795C114.44 158.211 115.133 157.748 115.897 157.432C116.66 157.117 117.479 156.954 118.305 156.955H149.01C149.131 156.955 149.248 157.003 149.334 157.089C149.42 157.176 149.469 157.292 149.469 157.414C149.469 157.536 149.42 157.652 149.334 157.739C149.248 157.825 149.131 157.873 149.01 157.873H118.305C116.881 157.874 115.517 158.441 114.511 159.448C113.505 160.454 112.94 161.82 112.94 163.243C112.94 164.666 113.505 166.031 114.511 167.038C115.517 168.045 116.881 168.612 118.305 168.613H149.01C149.131 168.613 149.248 168.661 149.334 168.747C149.42 168.833 149.469 168.95 149.469 169.072Z" fill="#3F3D56"/>
<path d="M148.734 159.984H116.606C116.594 159.984 116.582 159.982 116.571 159.978C116.56 159.973 116.549 159.966 116.541 159.958C116.532 159.949 116.525 159.939 116.521 159.928C116.516 159.917 116.514 159.905 116.514 159.893C116.514 159.88 116.516 159.868 116.521 159.857C116.525 159.846 116.532 159.836 116.541 159.827C116.549 159.819 116.56 159.812 116.571 159.808C116.582 159.803 116.594 159.801 116.606 159.801H148.734C148.758 159.801 148.781 159.811 148.798 159.828C148.815 159.845 148.825 159.868 148.825 159.893C148.825 159.917 148.815 159.94 148.798 159.957C148.781 159.974 148.758 159.984 148.734 159.984Z" fill="#CCCCCC"/>
<path d="M148.734 162.187H116.606C116.594 162.188 116.582 162.185 116.571 162.181C116.56 162.176 116.549 162.169 116.541 162.161C116.532 162.152 116.525 162.142 116.521 162.131C116.516 162.12 116.514 162.108 116.514 162.096C116.514 162.084 116.516 162.072 116.521 162.06C116.525 162.049 116.532 162.039 116.541 162.031C116.549 162.022 116.56 162.015 116.571 162.011C116.582 162.006 116.594 162.004 116.606 162.004H148.734C148.758 162.004 148.781 162.014 148.798 162.031C148.815 162.048 148.825 162.071 148.825 162.096C148.825 162.12 148.815 162.143 148.798 162.16C148.781 162.178 148.758 162.187 148.734 162.187Z" fill="#CCCCCC"/>
<path d="M148.734 164.39H116.606C116.594 164.39 116.582 164.388 116.571 164.383C116.56 164.379 116.549 164.372 116.541 164.363C116.532 164.355 116.525 164.345 116.521 164.334C116.516 164.322 116.514 164.31 116.514 164.298C116.514 164.286 116.516 164.274 116.521 164.263C116.525 164.252 116.532 164.242 116.541 164.233C116.549 164.225 116.56 164.218 116.571 164.213C116.582 164.209 116.594 164.206 116.606 164.207H148.734C148.758 164.207 148.781 164.216 148.798 164.234C148.815 164.251 148.825 164.274 148.825 164.298C148.825 164.323 148.815 164.346 148.798 164.363C148.781 164.38 148.758 164.39 148.734 164.39Z" fill="#CCCCCC"/>
<path d="M148.734 166.593H116.606C116.594 166.593 116.582 166.591 116.571 166.586C116.56 166.582 116.549 166.575 116.541 166.567C116.532 166.558 116.525 166.548 116.521 166.537C116.516 166.526 116.514 166.514 116.514 166.501C116.514 166.489 116.516 166.477 116.521 166.466C116.525 166.455 116.532 166.445 116.541 166.436C116.549 166.428 116.56 166.421 116.571 166.416C116.582 166.412 116.594 166.41 116.606 166.41H148.734C148.758 166.41 148.781 166.42 148.798 166.437C148.815 166.454 148.825 166.477 148.825 166.501C148.825 166.526 148.815 166.549 148.798 166.566C148.781 166.583 148.758 166.593 148.734 166.593Z" fill="#CCCCCC"/>
<path d="M108.43 79.3446V3.26074C108.431 2.39624 108.775 1.56743 109.386 0.956137C109.997 0.344844 110.826 0.00098334 111.69 0H171.833C172.697 0.000989065 173.526 0.344852 174.137 0.956144C174.749 1.56744 175.093 2.39624 175.094 3.26074V79.3446C175.093 80.2091 174.749 81.0379 174.137 81.6492C173.526 82.2604 172.697 82.6043 171.833 82.6053H111.69C110.826 82.6043 109.997 82.2604 109.386 81.6492C108.775 81.0379 108.431 80.2091 108.43 79.3446ZM111.69 0.724609C111.018 0.725362 110.373 0.992804 109.898 1.46826C109.422 1.94371 109.155 2.58835 109.154 3.26074V79.3446C109.155 80.0169 109.422 80.6616 109.898 81.137C110.373 81.6125 111.018 81.8799 111.69 81.8807H171.833C172.505 81.8799 173.15 81.6125 173.625 81.137C174.101 80.6616 174.368 80.0169 174.369 79.3446V3.26074C174.368 2.58835 174.101 1.94371 173.625 1.46826C173.15 0.992804 172.505 0.725363 171.833 0.724609H111.69Z" fill="#E6E6E6"/>
<path d="M145.135 34.9413V19.3188C145.135 18.8866 145.307 18.4722 145.613 18.1665C145.918 17.8609 146.333 17.689 146.765 17.6885H160.004C160.436 17.689 160.85 17.8609 161.156 18.1665C161.462 18.4722 161.634 18.8866 161.634 19.3188V34.9413C161.634 35.3735 161.462 35.7879 161.156 36.0936C160.85 36.3992 160.436 36.5711 160.004 36.5716H146.765C146.333 36.5711 145.918 36.3992 145.613 36.0936C145.307 35.7879 145.135 35.3735 145.135 34.9413Z" fill="#BFE6FE"/>
<path d="M119.41 42.1873V26.5649C119.411 26.1327 119.583 25.7183 119.888 25.4126C120.194 25.107 120.608 24.935 121.041 24.9346H134.279C134.711 24.935 135.126 25.107 135.431 25.4126C135.737 25.7183 135.909 26.1327 135.909 26.5649V42.1873C135.909 42.6196 135.737 43.034 135.431 43.3397C135.126 43.6453 134.711 43.8172 134.279 43.8177H121.041C120.608 43.8172 120.194 43.6453 119.888 43.3396C119.583 43.034 119.411 42.6196 119.41 42.1873Z" fill="#CCCCCC"/>
<path d="M140.062 64.2879V48.6655C140.063 48.2333 140.235 47.8189 140.541 47.5132C140.846 47.2076 141.261 47.0356 141.693 47.0352H154.931C155.364 47.0356 155.778 47.2076 156.084 47.5132C156.389 47.8189 156.561 48.2333 156.562 48.6655V64.2879C156.561 64.7202 156.389 65.1346 156.084 65.4402C155.778 65.7459 155.364 65.9178 154.931 65.9183H141.693C141.261 65.9178 140.846 65.7459 140.541 65.4402C140.235 65.1346 140.063 64.7202 140.062 64.2879Z" fill="#FF6584"/>
<path d="M219.175 135.712H205.553C205.424 135.712 205.297 135.742 205.181 135.799L201.743 137.52C201.63 137.568 201.533 137.648 201.465 137.751C201.397 137.853 201.361 137.974 201.361 138.097C201.361 138.219 201.397 138.34 201.465 138.442C201.533 138.545 201.63 138.625 201.743 138.673L205.181 140.394C205.297 140.451 205.424 140.481 205.553 140.481H219.175C219.363 140.492 219.547 140.428 219.688 140.304C219.829 140.18 219.916 140.005 219.929 139.818V136.375C219.916 136.188 219.829 136.013 219.688 135.889C219.547 135.765 219.363 135.701 219.175 135.712Z" fill="#3F3D56"/>
<path d="M219.929 136.375V139.818C219.916 140.005 219.829 140.18 219.688 140.304C219.547 140.428 219.362 140.492 219.175 140.481H216.461V135.712H219.175C219.362 135.701 219.547 135.765 219.688 135.889C219.829 136.013 219.916 136.188 219.929 136.375Z" fill="#BFE6FE"/>
<path d="M219.073 109.961C219.69 109.694 220.356 109.562 221.028 109.571C221.7 109.58 222.362 109.731 222.972 110.014C223.581 110.297 224.124 110.706 224.565 111.213C225.005 111.72 225.334 112.315 225.528 112.958C225.589 113.162 225.635 113.37 225.667 113.58L244.715 123.026L249.124 120.105L254.609 126.419L247.878 131.886C247.068 132.538 246.07 132.912 245.031 132.952C243.992 132.992 242.968 132.696 242.111 132.108L222.785 118.744C222.641 118.805 222.494 118.858 222.345 118.904C221.702 119.099 221.025 119.155 220.358 119.07C219.691 118.984 219.05 118.759 218.477 118.409C217.903 118.058 217.41 117.591 217.03 117.036C216.65 116.482 216.391 115.854 216.271 115.193C216.235 115.001 216.212 114.807 216.201 114.612C216.147 113.636 216.393 112.667 216.907 111.836C217.421 111.004 218.176 110.35 219.073 109.961Z" fill="#FFB8B8"/>
<path d="M258.747 168.118H237.933C237.933 168.716 216.483 169.201 216.483 169.201C216.146 169.455 215.839 169.746 215.568 170.069C214.753 171.04 214.308 172.269 214.311 173.537V174.404C214.311 175.841 214.882 177.219 215.898 178.235C216.914 179.251 218.293 179.822 219.73 179.823H258.747C260.184 179.822 261.561 179.25 262.577 178.234C263.593 177.218 264.165 175.841 264.166 174.404V173.537C264.164 172.1 263.592 170.723 262.577 169.707C261.561 168.691 260.184 168.12 258.747 168.118Z" fill="#3F3D56"/>
<path d="M236.106 216.024H241.742V179.608H236.106V216.024Z" fill="#3F3D56"/>
<path d="M220.064 215.826C220.064 216.435 228.605 216.062 239.14 216.062C249.675 216.062 258.215 216.435 258.215 215.826C258.215 215.217 249.675 210.388 239.14 210.388C228.605 210.388 220.064 215.217 220.064 215.826Z" fill="#3F3D56"/>
<path d="M225.154 211.558L219.839 211.557L217.311 197.772L225.155 197.773L225.154 211.558Z" fill="#FFB8B8"/>
<path d="M226.509 216.71L209.371 216.709V216.492C209.371 215.616 209.544 214.749 209.879 213.939C210.214 213.13 210.705 212.395 211.325 211.775C211.944 211.156 212.68 210.665 213.489 210.329C214.298 209.994 215.166 209.822 216.042 209.822H216.042L226.509 209.822L226.509 216.71Z" fill="#2F2E41"/>
<path d="M217.204 203.009L206.608 179.249C205.723 177.246 205.625 174.984 206.334 172.912C207.042 170.841 208.505 169.112 210.431 168.071L233.414 155.746L243.901 154.854L253.575 153.975L253.645 154.093C253.734 154.244 255.814 157.837 254.408 161.776C253.342 164.764 250.567 167.098 246.163 168.713C235.882 172.483 224.006 175.705 219.377 176.915C219.172 176.967 218.981 177.062 218.816 177.194C218.651 177.325 218.515 177.49 218.418 177.678C218.321 177.863 218.263 178.067 218.249 178.275C218.234 178.484 218.263 178.694 218.333 178.891L228.177 201.007C228.28 201.288 228.317 201.588 228.285 201.885C228.254 202.182 228.154 202.468 227.995 202.721C227.835 202.973 227.62 203.186 227.365 203.342C227.11 203.498 226.823 203.593 226.526 203.621L219.17 204.157C219.108 204.163 219.046 204.165 218.984 204.165C218.607 204.165 218.238 204.056 217.922 203.851C217.607 203.646 217.357 203.353 217.204 203.009Z" fill="#2F2E41"/>
<path d="M227.754 211.558L222.439 211.557L219.91 197.772L227.754 197.773L227.754 211.558Z" fill="#FFB8B8"/>
<path d="M229.11 216.71L211.973 216.709V216.492C211.973 215.616 212.145 214.749 212.48 213.939C212.816 213.13 213.307 212.395 213.926 211.775C214.546 211.156 215.281 210.665 216.09 210.329C216.9 209.994 217.767 209.822 218.643 209.822H218.644L229.111 209.822L229.11 216.71Z" fill="#2F2E41"/>
<path d="M220.239 204.31L209.643 180.55C208.758 178.547 208.66 176.284 209.369 174.213C210.077 172.141 211.54 170.413 213.466 169.371L236.449 157.047L246.936 156.155L256.61 155.276L256.68 155.394C256.769 155.545 258.849 159.137 257.443 163.077C256.377 166.065 253.603 168.399 249.198 170.014C238.917 173.784 227.041 177.006 222.412 178.216C222.207 178.268 222.016 178.363 221.851 178.494C221.686 178.626 221.55 178.791 221.453 178.978C221.356 179.164 221.299 179.367 221.284 179.576C221.269 179.785 221.298 179.995 221.368 180.192L231.212 202.308C231.315 202.588 231.352 202.889 231.32 203.186C231.289 203.483 231.189 203.769 231.03 204.021C230.87 204.274 230.655 204.486 230.4 204.643C230.145 204.799 229.858 204.894 229.561 204.922L222.205 205.457C222.143 205.463 222.081 205.466 222.019 205.466C221.642 205.466 221.274 205.357 220.958 205.152C220.642 204.946 220.392 204.654 220.239 204.31Z" fill="#2F2E41"/>
<path d="M214.957 131.724C210.505 125.802 206.985 119.233 204.52 112.245C204.377 111.827 204.387 111.372 204.549 110.961C204.71 110.55 205.012 110.209 205.401 110L220.637 101.836C220.884 101.703 221.157 101.628 221.437 101.616C221.717 101.605 221.996 101.658 222.252 101.77C222.514 101.884 222.746 102.055 222.93 102.272C223.115 102.489 223.248 102.745 223.319 103.021C225.093 109.754 228.426 115.975 233.05 121.181C233.241 121.393 233.38 121.646 233.458 121.92C233.536 122.194 233.551 122.482 233.5 122.762C233.452 123.038 233.342 123.299 233.177 123.526C233.013 123.753 232.798 123.939 232.551 124.071L217.315 132.235C216.925 132.442 216.474 132.505 216.043 132.412C215.611 132.318 215.226 132.075 214.957 131.724Z" fill="#CCCCCC"/>
<path d="M215.996 130.943C216.078 131.046 216.193 131.116 216.321 131.143C216.45 131.169 216.583 131.15 216.699 131.088L231.936 122.924C232.01 122.886 232.074 122.831 232.123 122.763C232.172 122.696 232.205 122.618 232.219 122.535C232.234 122.449 232.23 122.359 232.206 122.274C232.181 122.19 232.137 122.112 232.078 122.046C227.317 116.687 223.886 110.282 222.06 103.351C222.039 103.265 221.998 103.185 221.941 103.118C221.884 103.051 221.813 102.998 221.732 102.963C221.655 102.929 221.572 102.913 221.489 102.916C221.405 102.919 221.323 102.942 221.25 102.983L206.014 111.146C205.899 111.209 205.809 111.31 205.76 111.431C205.711 111.553 205.706 111.688 205.745 111.813C208.166 118.675 211.623 125.127 215.996 130.943Z" fill="white"/>
<path d="M265.576 129.547L253.643 134.081L250.73 125.989C250.343 124.914 250.348 123.737 250.745 122.666C251.142 121.595 251.904 120.699 252.898 120.136C253.903 119.567 255.079 119.375 256.213 119.597C257.347 119.818 258.364 120.437 259.081 121.343L265.576 129.547Z" fill="#BFE6FE"/>
<path d="M235.224 161.61C234.973 161.433 234.762 161.204 234.607 160.938C234.451 160.673 234.353 160.378 234.321 160.072C232.792 145.805 233.857 134.64 237.575 125.938C238.229 124.438 239.216 123.105 240.46 122.04C241.704 120.975 243.173 120.206 244.757 119.791L254.403 119.304L254.452 119.328C256.629 120.394 258.404 122.134 259.515 124.288C260.625 126.442 261.012 128.897 260.617 131.289C257.514 139.466 254.917 147.981 256.898 154.849C256.981 155.136 257.005 155.437 256.969 155.734C256.933 156.031 256.837 156.317 256.688 156.576C256.543 156.826 256.349 157.044 256.116 157.216C255.884 157.389 255.619 157.511 255.337 157.577L236.965 161.947C236.668 162.018 236.358 162.025 236.058 161.967C235.758 161.909 235.473 161.787 235.224 161.61Z" fill="#BFE6FE"/>
<path d="M251.183 115.701C257.064 115.701 261.831 110.934 261.831 105.054C261.831 99.173 257.064 94.4058 251.183 94.4058C245.302 94.4058 240.535 99.173 240.535 105.054C240.535 110.934 245.302 115.701 251.183 115.701Z" fill="#FFB8B8"/>
<path d="M221.638 113.487L213.339 117.15C213.024 117.289 212.666 117.297 212.344 117.172C212.023 117.047 211.764 116.8 211.624 116.485L211.419 116.02C211.28 115.705 211.272 115.347 211.397 115.025C211.521 114.704 211.768 114.445 212.084 114.305L220.382 110.642C220.697 110.503 221.055 110.495 221.377 110.62C221.698 110.744 221.957 110.991 222.097 111.307L222.302 111.772C222.441 112.087 222.449 112.445 222.324 112.767C222.2 113.088 221.953 113.347 221.638 113.487Z" fill="#CCCCCC"/>
<path d="M224.673 119.123L216.374 122.786C216.059 122.925 215.701 122.933 215.379 122.808C215.058 122.684 214.799 122.437 214.659 122.121L214.454 121.656C214.315 121.341 214.307 120.983 214.432 120.661C214.556 120.34 214.803 120.081 215.119 119.941L223.417 116.278C223.733 116.139 224.09 116.131 224.412 116.256C224.734 116.381 224.992 116.628 225.132 116.943L225.337 117.408C225.476 117.723 225.484 118.081 225.36 118.403C225.235 118.724 224.988 118.983 224.673 119.123Z" fill="#CCCCCC"/>
<path d="M231.072 141.136L212.571 126.541C212.424 126.593 212.274 126.637 212.122 126.673C211.469 126.826 210.791 126.84 210.133 126.713C209.474 126.587 208.849 126.323 208.299 125.94C207.745 125.556 207.28 125.059 206.934 124.48C206.588 123.902 206.37 123.257 206.294 122.587C206.169 121.517 206.411 120.436 206.978 119.521C207.545 118.605 208.405 117.907 209.419 117.542C210.051 117.315 210.725 117.224 211.395 117.276C212.065 117.327 212.716 117.52 213.307 117.84C213.897 118.161 214.413 118.603 214.821 119.137C215.229 119.671 215.519 120.285 215.673 120.94C215.721 121.147 215.754 121.357 215.772 121.569L234.189 132.194L238.772 129.555L243.849 136.202L236.733 141.274C235.9 141.863 234.899 142.167 233.88 142.142C232.86 142.118 231.875 141.765 231.072 141.136Z" fill="#FFB8B8"/>
<path d="M246.107 138.272L235.551 131.094L240.512 124.068C241.17 123.135 242.138 122.465 243.243 122.176C244.348 121.887 245.519 121.998 246.55 122.49C247.593 122.987 248.424 123.84 248.892 124.896C249.361 125.952 249.437 127.141 249.105 128.248L246.107 138.272Z" fill="#BFE6FE"/>
<path d="M247.28 103.468C244.543 105.341 240.95 107.266 238.155 105.271C236.32 103.962 235.741 101.536 236.486 99.4081C237.824 95.5807 241.501 93.8957 245.018 92.6041C249.589 90.925 254.566 89.5892 259.285 90.7917C264.004 91.9942 268.175 96.5632 267.323 101.358C266.638 105.214 263.001 108.422 263.517 112.304C264.037 116.211 268.431 118.268 272.31 118.966C276.189 119.664 280.53 119.889 283.317 122.675C286.874 126.229 285.986 132.583 282.639 136.335C279.293 140.088 274.243 141.789 269.35 142.945C262.867 144.478 255.855 145.283 249.697 142.74C243.54 140.197 238.748 133.352 240.532 126.934C241.286 124.223 243.06 121.931 244.776 119.701C246.491 117.47 248.228 115.137 248.882 112.401C249.427 110.12 249.024 107.472 247.512 105.761C247.236 105.462 247.063 105.083 247.017 104.679C246.971 104.275 247.054 103.867 247.254 103.513L247.28 103.468Z" fill="#2F2E41"/>
<path d="M47.2848 155.202C44.541 156.166 41.5951 156.408 38.7309 155.903C35.8667 155.399 33.1807 154.165 30.9317 152.321C25.2039 147.514 23.4081 139.593 21.9469 132.26C20.5063 125.029 19.0656 117.798 17.625 110.568L26.6734 116.798C33.1805 121.279 39.8341 125.903 44.3396 132.393C48.8451 138.883 50.8117 147.742 47.1917 154.764" fill="#E6E6E6"/>
<path d="M46.5112 181.464C47.427 174.793 48.3687 168.037 47.7263 161.294C47.1558 155.306 45.329 149.458 41.6098 144.662C39.6356 142.122 37.2335 139.945 34.5113 138.23C33.8015 137.782 33.1481 138.907 33.8549 139.353C38.565 142.33 42.2082 146.725 44.259 151.906C46.5241 157.668 46.8879 163.948 46.4976 170.068C46.2615 173.769 45.7612 177.446 45.2571 181.118C45.2173 181.284 45.2421 181.459 45.3264 181.608C45.4108 181.756 45.5483 181.867 45.7113 181.918C45.8775 181.963 46.0548 181.94 46.2045 181.855C46.3543 181.77 46.4645 181.63 46.5112 181.464Z" fill="#F2F2F2"/>
<path d="M37.692 169.66C36.5152 171.448 34.8977 172.904 32.9953 173.886C31.0928 174.868 28.9696 175.343 26.8301 175.266C21.3316 175.005 16.7476 171.167 12.6212 167.524L0.416016 156.748L8.49382 156.361C14.3029 156.083 20.2619 155.824 25.7948 157.615C31.3278 159.407 36.4305 163.718 37.4423 169.445" fill="#E6E6E6"/>
<path d="M49.101 185.299C44.693 177.499 39.5801 168.831 30.4443 166.06C27.9041 165.293 25.2405 165.017 22.597 165.25C21.7639 165.322 21.9719 166.606 22.8036 166.534C27.2346 166.166 31.6572 167.337 35.3266 169.848C38.8576 172.251 41.6069 175.592 43.9339 179.136C45.3592 181.306 46.6359 183.569 47.9129 185.829C48.321 186.551 49.5138 186.029 49.101 185.299Z" fill="#F2F2F2"/>
<path d="M56.1634 193.509C56.0149 191.788 55.397 190.14 54.377 188.746C53.3571 187.352 51.9742 186.265 50.3789 185.602V181.093H42.8161V185.744C41.2994 186.439 39.9941 187.524 39.0333 188.888C38.0724 190.252 37.4905 191.846 37.3467 193.509L35.5684 214.181H57.9417L56.1634 193.509Z" fill="#F2F2F2"/>
</svg>
