<svg width="250" height="277" viewBox="0 0 250 277" fill="none" xmlns="http://www.w3.org/2000/svg">
<g clip-path="url(#clip0_906_560)">
<path d="M138.686 261.936C152.551 253.428 162.89 237.738 161.301 221.549C148.688 233.952 132.094 241.494 114.455 242.841C107.65 243.335 100.03 243.177 95.08 247.872C91.9997 250.793 90.6064 255.147 90.4256 259.388C90.2448 263.629 91.1508 267.833 92.0516 271.982L91.7747 273.005C108.041 272.846 124.821 270.445 138.686 261.936Z" fill="#F0F0F0"/>
<path d="M160.961 221.536C155.526 233.856 146.348 244.149 134.73 250.955C132.254 252.465 129.557 253.574 126.736 254.244C123.967 254.807 121.098 254.619 118.427 253.699C115.918 252.89 113.447 251.773 110.786 251.589C109.422 251.515 108.058 251.729 106.784 252.219C105.509 252.709 104.353 253.463 103.39 254.431C100.928 256.781 99.457 259.875 98.1239 262.952C96.6438 266.367 95.1605 269.938 92.2676 272.419C91.9171 272.72 92.404 273.246 92.754 272.946C97.7871 268.629 98.5218 261.505 102.523 256.447C104.39 254.088 106.98 252.276 110.086 252.281C112.801 252.285 115.352 253.435 117.884 254.275C120.477 255.211 123.26 255.498 125.989 255.111C128.835 254.588 131.571 253.583 134.079 252.142C139.779 248.986 144.948 244.954 149.395 240.193C154.501 234.788 158.645 228.549 161.647 221.746C161.832 221.325 161.145 221.118 160.961 221.536Z" fill="white"/>
<path d="M138.6 248.984C140.006 250.778 142.005 252.014 144.238 252.471C146.472 252.927 148.795 252.575 150.793 251.477C151.197 251.254 150.868 250.616 150.464 250.84C148.606 251.866 146.442 252.194 144.363 251.764C142.283 251.335 140.426 250.176 139.127 248.497C138.844 248.133 138.319 248.621 138.6 248.984Z" fill="white"/>
<path d="M119.645 254.276C120.164 249.645 122.409 245.379 125.934 242.33C126.283 242.028 125.796 241.502 125.447 241.803C121.786 244.983 119.458 249.427 118.928 254.247C118.878 254.707 119.595 254.733 119.645 254.276Z" fill="white"/>
<path d="M153.606 234.463C152.917 233.882 152.384 233.139 152.053 232.301C151.722 231.463 151.604 230.556 151.711 229.661C151.767 229.202 151.05 229.177 150.994 229.633C150.881 230.622 151.012 231.623 151.376 232.55C151.739 233.477 152.324 234.301 153.079 234.949C153.146 235.017 153.235 235.056 153.329 235.06C153.423 235.063 153.515 235.031 153.586 234.97C153.655 234.905 153.697 234.815 153.7 234.72C153.704 234.626 153.67 234.533 153.606 234.463Z" fill="white"/>
<path d="M115.632 190.76C115.589 191.046 115.546 191.331 115.497 191.619C114.898 195.453 113.988 199.232 112.777 202.919C112.688 203.205 112.594 203.494 112.496 203.778C109.484 212.629 104.854 220.843 98.8428 228.004C96.4481 230.852 93.8402 233.513 91.0418 235.964C87.1769 239.35 82.717 242.713 80.2683 247.05C80.0077 247.5 79.7753 247.965 79.5723 248.443L90.548 272.588C90.6005 272.63 90.6475 272.675 90.7002 272.718L91.0943 273.702C91.2475 273.585 91.4038 273.461 91.557 273.345C91.6461 273.278 91.7328 273.205 91.8219 273.138C91.8806 273.092 91.9391 273.045 91.9947 273.006C92.0143 272.991 92.0337 272.975 92.0478 272.963C92.1034 272.924 92.1509 272.882 92.201 272.846C93.0769 272.156 93.9494 271.458 94.8186 270.752C94.8241 270.75 94.8241 270.75 94.8271 270.742C101.436 265.351 107.653 259.361 112.764 252.618C112.917 252.415 113.077 252.21 113.225 251.996C115.512 248.943 117.545 245.709 119.305 242.326C120.263 240.47 121.126 238.567 121.891 236.624C123.858 231.599 125.023 226.296 125.343 220.91C125.978 210.172 123.173 199.35 116.173 191.365C115.993 191.161 115.817 190.962 115.632 190.76Z" fill="#F0F0F0"/>
<path d="M115.351 190.954C118.429 204.062 117.298 217.807 112.119 230.236C111.052 232.932 109.566 235.442 107.717 237.675C105.845 239.792 103.441 241.369 100.754 242.242C98.2648 243.107 95.6185 243.703 93.3828 245.158C92.2495 245.92 91.29 246.912 90.5672 248.071C89.8444 249.229 89.3747 250.527 89.1888 251.88C88.6379 255.239 89.3267 258.595 90.1144 261.854C90.9889 265.472 91.9546 269.216 91.1385 272.939C91.0396 273.39 91.7452 273.517 91.8439 273.067C93.2639 266.59 89.561 260.459 89.7111 254.012C89.7811 251.004 90.7581 247.998 93.2407 246.132C95.4116 244.5 98.14 243.883 100.668 243.029C103.302 242.216 105.696 240.77 107.643 238.817C109.599 236.686 111.179 234.237 112.315 231.575C114.966 225.624 116.665 219.293 117.349 212.814C118.172 205.424 117.724 197.947 116.025 190.708C115.92 190.26 115.247 190.509 115.351 190.954Z" fill="white"/>
<path d="M114.022 226.332C116.225 226.918 118.565 226.702 120.623 225.722C122.682 224.742 124.325 223.062 125.259 220.982C125.447 220.561 124.8 220.249 124.613 220.671C123.746 222.61 122.216 224.174 120.297 225.083C118.378 225.992 116.198 226.184 114.15 225.627C113.704 225.506 113.579 226.212 114.022 226.332Z" fill="white"/>
<path d="M102.074 241.97C99.6996 237.96 98.9244 233.202 99.9027 228.645C99.9999 228.194 99.2943 228.067 99.1972 228.517C98.1881 233.261 99.0048 238.211 101.484 242.379C101.721 242.776 102.309 242.365 102.074 241.97Z" fill="white"/>
<path d="M117.263 205.702C116.363 205.653 115.49 205.382 114.721 204.912C113.952 204.442 113.312 203.788 112.858 203.01C112.627 202.61 112.039 203.021 112.269 203.418C112.774 204.276 113.482 204.997 114.33 205.518C115.179 206.039 116.142 206.345 117.135 206.408C117.228 206.422 117.323 206.4 117.4 206.346C117.478 206.292 117.532 206.211 117.552 206.119C117.568 206.026 117.547 205.929 117.493 205.851C117.439 205.773 117.356 205.72 117.263 205.702Z" fill="white"/>
<path d="M48.8467 268.977L55.8092 268.976L59.1214 242.121L48.8457 242.122L48.8467 268.977Z" fill="#FFB6B6"/>
<path d="M47.0703 266.703L49.03 266.703L56.6811 263.592L60.7819 266.703H60.7825C63.0999 266.703 65.3224 267.624 66.961 269.262C68.5997 270.901 69.5204 273.123 69.5206 275.441V275.725L47.0707 275.726L47.0703 266.703Z" fill="#2F2E41"/>
<path d="M81.1924 268.977L88.1549 268.976L91.4671 242.121L81.1914 242.122L81.1924 268.977Z" fill="#FFB6B6"/>
<path d="M79.416 266.703L81.3757 266.703L89.0269 263.592L93.1276 266.703H93.1281C95.4456 266.703 97.6681 267.624 99.3067 269.262C100.945 270.901 101.866 273.123 101.866 275.441V275.725L79.4164 275.726L79.416 266.703Z" fill="#2F2E41"/>
<path d="M43.3047 97.0391L52.5091 125.342L81.5256 124.39L72.6095 97.0391H43.3047Z" fill="#E6E6E6"/>
<path d="M86.7579 122.012L32.0547 123.439L33.006 150.077C33.006 150.077 32.0547 157.213 33.9574 159.115C35.8601 161.018 36.8115 161.018 35.8601 164.348C34.9088 167.678 39.9352 173.116 39.3247 173.727C38.7142 174.337 37.2872 177.667 37.2872 177.667L42.044 204.781C42.044 204.781 45.3737 251.873 46.3251 252.824C47.2765 253.776 48.2278 252.824 47.2765 255.203C46.3251 257.581 45.3737 256.63 46.3251 257.581C47.1678 258.49 47.9617 259.442 48.7035 260.435H60.2041C60.2041 260.435 61.0712 255.678 61.0712 255.203C61.0712 254.727 62.0225 251.873 62.0225 251.397C62.0225 250.922 61.1817 250.081 61.1817 250.081C60.8911 249.114 60.6948 248.121 60.5955 247.116C60.5955 246.165 57.7414 209.537 57.7414 209.537L63.4496 161.969L77.2443 208.586C77.2443 208.586 77.2443 249.495 78.1957 250.446C79.147 251.397 79.147 250.922 78.6714 252.824C78.1957 254.727 76.293 254.251 77.72 255.678C79.147 257.105 79.6227 254.727 79.147 257.105L78.6714 259.484L92.9418 259.688C92.9418 259.688 94.8445 255.678 93.8931 254.251C92.9418 252.824 92.9988 253.214 94.1595 250.879C95.3202 248.543 95.7958 248.068 95.3202 247.592C94.8445 247.116 94.8445 244.586 94.8445 244.586L92.4661 199.072C92.4661 199.072 91.9904 151.029 91.9904 149.602C91.9545 148.867 92.0898 148.135 92.3856 147.462V145.525L90.5634 138.661L86.7579 122.012Z" fill="#2F2E41"/>
<path d="M81.7636 52.8005L65.1147 46.6167L37.5253 48.5194L31.1371 51.5006C28.8902 52.5491 27.0611 54.3227 25.9437 56.5362C24.8264 58.7497 24.4857 61.2746 24.9765 63.7051L33.2442 104.65L28.0117 145.083C28.0117 145.083 53.9363 157.688 62.0228 124.866L64.8769 112.498C64.8769 112.498 65.8283 150.553 92.942 142.466C92.942 142.466 92.4664 134.855 91.9907 132.001C91.515 129.147 90.5636 129.147 90.088 127.72C89.6123 126.293 88.6609 127.72 89.6123 124.866C90.5636 122.012 82.0014 102.033 82.0014 102.033L81.7636 52.8005Z" fill="#2F2E41"/>
<path d="M59.6436 84.4331L41.875 48.2191L46.3245 40.1948H60.7429L66.4544 47.1145L59.6436 84.4331Z" fill="#E6E6E6"/>
<path d="M50.7779 123.844C50.0026 123.888 49.227 123.762 48.5056 123.475C47.7842 123.187 47.1346 122.745 46.6026 122.18C46.0706 121.614 45.6691 120.939 45.4264 120.201C45.1836 119.463 45.1056 118.681 45.1977 117.91L28.2246 109.65L36.6637 104.65L51.4879 113.261C52.773 113.501 53.9251 114.205 54.726 115.238C55.527 116.272 55.921 117.563 55.8335 118.867C55.746 120.172 55.183 121.399 54.2512 122.316C53.3194 123.233 52.0836 123.777 50.7779 123.844Z" fill="#FFB8B8"/>
<path d="M15.9178 103.669C15.1081 102.681 14.1667 95.7906 15.9414 94.1738C17.4382 92.8104 17.1116 92.1765 16.16 90.749C15.3336 89.5094 21.6775 66.6213 25.3241 55.9858C25.8102 54.5713 26.8146 53.3938 28.1349 52.6908C29.4551 51.9878 30.9928 51.8117 32.4378 52.198C33.8827 52.5843 35.1274 53.5043 35.9207 54.7723C36.714 56.0403 36.9969 57.562 36.7123 59.0304C37.9995 72.6467 36.169 81.933 30.9528 88.2218L47.0678 109.571L44.1106 120.415C44.1106 120.415 16.6557 104.57 15.9178 103.669Z" fill="#2F2E41"/>
<path d="M53.6992 35.2002C61.8433 35.2002 68.4453 28.5981 68.4453 20.4541C68.4453 12.3101 61.8433 5.70801 53.6992 5.70801C45.5552 5.70801 38.9531 12.3101 38.9531 20.4541C38.9531 28.5981 45.5552 35.2002 53.6992 35.2002Z" fill="#FFB8B8"/>
<path d="M69.3142 9.75684C68.9224 6.23012 63.8282 2.7034 54.8155 0.352259C45.8028 -1.99891 41.1004 8.1894 41.1004 8.1894C34.8307 11.3243 38.5533 27.9783 40.5126 26.4108C42.472 24.8434 44.2353 27.3905 44.2353 27.3905L45.6851 14.3417C47.7491 15.9234 50.0755 17.2625 52.5725 16.8645L49.5164 13.8554C52.4129 15.1157 55.3093 16.3759 58.2058 17.6362C57.2469 16.3168 56.2881 14.9975 55.3292 13.6781C55.4282 13.6749 55.5275 13.6705 55.6267 13.6668C56.9289 14.7497 58.4196 15.5832 60.0241 16.1257C61.9248 16.6705 64.2021 16.3757 65.5044 14.888C65.855 14.4774 66.1199 14.0007 66.2833 13.4861C68.6481 15.1057 69.1183 18.5737 69.1183 18.5737C69.1183 18.5737 69.706 13.2836 69.3142 9.75684Z" fill="#2F2E41"/>
<path d="M56.4167 115.555C70.509 115.555 81.9331 104.131 81.9331 90.0383C81.9331 75.946 70.509 64.522 56.4167 64.522C42.3244 64.522 30.9004 75.946 30.9004 90.0383C30.9004 104.131 42.3244 115.555 56.4167 115.555Z" fill="#BFE6FE"/>
<path d="M61.0322 107.31C61.4585 106.66 62.0218 106.113 62.6827 105.705C63.3435 105.297 64.0858 105.039 64.8571 104.949C65.6284 104.859 66.4101 104.939 67.147 105.184C67.884 105.429 68.5583 105.833 69.1224 106.366L85.8726 97.6626L84.8564 107.419L69.106 114.188C68.1467 115.077 66.8949 115.582 65.5878 115.609C64.2807 115.636 63.009 115.183 62.0138 114.335C61.0186 113.487 60.369 112.304 60.1881 111.009C60.0072 109.714 60.3075 108.398 61.0322 107.31Z" fill="#FFB8B8"/>
<path d="M71.3732 113.755L68.416 102.911L83.104 88.6972C77.8878 82.4084 76.0573 73.1221 77.3445 59.5058C77.0595 58.0372 77.3422 56.5153 78.1354 55.247C78.9287 53.9787 80.1735 53.0585 81.6187 52.6721C83.0639 52.2858 84.6018 52.462 85.9222 53.1653C87.2425 53.8685 88.2469 55.0464 88.7328 56.4612C92.3793 67.0967 96.5195 80.1886 95.5333 82.161C95.402 82.4234 95.2829 82.6578 95.1758 82.8682C94.2925 84.6051 94.2925 84.6051 95.1523 85.7225C95.2597 85.8621 95.3793 86.0175 95.5107 86.1931C95.8438 86.637 96.2027 87.0544 96.5497 87.4578C97.6673 88.7573 98.7232 89.9849 97.8968 91.2245C96.9452 92.652 96.6186 93.2858 98.1154 94.6492C99.8901 96.266 98.9487 103.156 98.1391 104.145C97.4011 105.045 75.9119 112.242 71.6117 113.675L71.3732 113.755Z" fill="#2F2E41"/>
<path d="M245.957 42.2525H194.559C193.487 42.2513 192.459 41.825 191.701 41.0669C190.943 40.3089 190.517 39.2812 190.516 38.2092V12.6273C190.517 11.5553 190.943 10.5276 191.701 9.76956C192.459 9.01155 193.487 8.58518 194.559 8.58398H245.957C247.029 8.58518 248.057 9.01155 248.815 9.76956C249.573 10.5276 249.999 11.5553 250.001 12.6273V38.2092C249.999 39.2812 249.573 40.3089 248.815 41.0669C248.057 41.825 247.029 42.2513 245.957 42.2525Z" fill="#E6E6E6"/>
<path d="M237.512 55.6531H202.888C201.87 55.652 200.894 55.2467 200.174 54.5265C199.455 53.8062 199.051 52.8297 199.051 51.8117C199.051 50.7936 199.455 49.8172 200.174 49.0969C200.894 48.3766 201.87 47.9714 202.888 47.9702H237.512C238.017 47.9697 238.517 48.0686 238.983 48.2614C239.45 48.4542 239.874 48.7371 240.231 49.0938C240.588 49.4506 240.872 49.8743 241.065 50.3406C241.258 50.807 241.358 51.3068 241.358 51.8117C241.358 52.3165 241.258 52.8164 241.065 53.2827C240.872 53.749 240.588 54.1727 240.231 54.5295C239.874 54.8863 239.45 55.1691 238.983 55.3619C238.517 55.5547 238.017 55.6537 237.512 55.6531Z" fill="#E6E6E6"/>
<path d="M245.957 115.676H194.559C193.487 115.675 192.459 115.249 191.701 114.491C190.943 113.733 190.517 112.705 190.516 111.633V86.0511C190.517 84.9791 190.943 83.9514 191.701 83.1934C192.459 82.4354 193.487 82.009 194.559 82.0078H245.957C247.029 82.009 248.057 82.4354 248.815 83.1934C249.573 83.9514 249.999 84.9791 250.001 86.0511V111.633C249.999 112.705 249.573 113.733 248.815 114.491C248.057 115.249 247.029 115.675 245.957 115.676Z" fill="#E6E6E6"/>
<path d="M237.512 128.195H202.888C201.87 128.195 200.892 127.79 200.172 127.069C199.452 126.349 199.047 125.372 199.047 124.353C199.047 123.334 199.452 122.357 200.172 121.637C200.892 120.916 201.87 120.512 202.888 120.512H237.512C238.531 120.512 239.508 120.916 240.229 121.637C240.949 122.357 241.354 123.334 241.354 124.353C241.354 125.372 240.949 126.349 240.229 127.069C239.508 127.79 238.531 128.195 237.512 128.195Z" fill="#E6E6E6"/>
<path d="M245.957 188.625H194.559C193.487 188.624 192.459 188.197 191.701 187.439C190.943 186.681 190.517 185.654 190.516 184.582V159C190.517 157.928 190.943 156.9 191.701 156.142C192.459 155.384 193.487 154.958 194.559 154.957H245.957C247.029 154.958 248.057 155.384 248.815 156.142C249.573 156.9 249.999 157.928 250.001 159V184.582C249.999 185.654 249.573 186.681 248.815 187.439C248.057 188.197 247.029 188.624 245.957 188.625Z" fill="#E6E6E6"/>
<path d="M237.512 201.211H202.888C201.87 201.21 200.894 200.805 200.174 200.085C199.455 199.364 199.051 198.388 199.051 197.37C199.051 196.352 199.455 195.375 200.174 194.655C200.894 193.935 201.87 193.529 202.888 193.528H237.512C238.017 193.528 238.517 193.627 238.983 193.82C239.45 194.012 239.874 194.295 240.231 194.652C240.588 195.009 240.872 195.432 241.065 195.899C241.258 196.365 241.358 196.865 241.358 197.37C241.358 197.875 241.258 198.374 241.065 198.841C240.872 199.307 240.588 199.731 240.231 200.088C239.874 200.444 239.45 200.727 238.983 200.92C238.517 201.113 238.017 201.212 237.512 201.211Z" fill="#E6E6E6"/>
<path d="M53.412 101.976C53.0506 101.975 52.6954 101.882 52.3794 101.707C52.0413 101.524 51.7594 101.253 51.5639 100.923C51.3683 100.592 51.2666 100.215 51.2696 99.8307V82.1478C51.2696 81.7644 51.3726 81.388 51.5678 81.058C51.763 80.728 52.0432 80.4565 52.3793 80.2719C52.7153 80.0872 53.0948 79.9962 53.478 80.0084C53.8612 80.0206 54.2341 80.1354 54.5578 80.341L71.3318 89.1825C71.636 89.3757 71.8864 89.6426 72.06 89.9585C72.2335 90.2743 72.3245 90.6289 72.3245 90.9893C72.3245 91.3496 72.2335 91.7042 72.06 92.02C71.8864 92.3359 71.636 92.6028 71.3318 92.7961L54.5578 101.637C54.2159 101.857 53.8184 101.975 53.412 101.976Z" fill="white"/>
<path d="M214.855 34.2156C214.563 34.2147 214.276 34.14 214.021 33.9984C213.748 33.8512 213.521 33.6324 213.363 33.3655C213.205 33.0987 213.123 32.7938 213.125 32.4837V18.2067C213.125 17.8972 213.208 17.5933 213.366 17.3269C213.523 17.0604 213.75 16.8412 214.021 16.6921C214.292 16.543 214.599 16.4696 214.908 16.4794C215.218 16.4892 215.519 16.582 215.78 16.748L229.323 23.8864C229.569 24.0425 229.771 24.258 229.911 24.513C230.051 24.768 230.125 25.0543 230.125 25.3452C230.125 25.6362 230.051 25.9225 229.911 26.1775C229.771 26.4325 229.569 26.648 229.323 26.804L215.78 33.9425C215.504 34.1199 215.183 34.2146 214.855 34.2156Z" fill="white"/>
<path d="M214.73 107.946C214.438 107.945 214.151 107.87 213.896 107.729C213.623 107.582 213.396 107.363 213.238 107.096C213.08 106.829 212.998 106.524 213 106.214V91.9372C213 91.6276 213.083 91.3237 213.241 91.0573C213.398 90.7909 213.625 90.5716 213.896 90.4226C214.167 90.2735 214.474 90.2 214.783 90.2099C215.093 90.2197 215.394 90.3124 215.655 90.4784L229.198 97.6169C229.444 97.7729 229.646 97.9885 229.786 98.2435C229.926 98.4985 230 98.7847 230 99.0757C230 99.3667 229.926 99.6529 229.786 99.9079C229.646 100.163 229.444 100.378 229.198 100.534L215.655 107.673C215.379 107.85 215.058 107.945 214.73 107.946Z" fill="white"/>
<path d="M214.605 181.677C214.313 181.676 214.026 181.601 213.771 181.459C213.498 181.312 213.271 181.093 213.113 180.826C212.955 180.56 212.873 180.255 212.875 179.945V165.668C212.875 165.358 212.958 165.054 213.116 164.788C213.273 164.521 213.5 164.302 213.771 164.153C214.042 164.004 214.349 163.93 214.658 163.94C214.968 163.95 215.269 164.043 215.53 164.209L229.073 171.347C229.319 171.503 229.521 171.719 229.661 171.974C229.801 172.229 229.875 172.515 229.875 172.806C229.875 173.097 229.801 173.383 229.661 173.638C229.521 173.893 229.319 174.109 229.073 174.265L215.53 181.403C215.254 181.581 214.933 181.676 214.605 181.677Z" fill="white"/>
</g>
<defs>
<clipPath id="clip0_906_560">
<rect width="250" height="276.036" fill="white"/>
</clipPath>
</defs>
</svg>
