<?xml version="1.0" standalone="no"?>
<!DOCTYPE svg PUBLIC "-//W3C//DTD SVG 20010904//EN"
 "http://www.w3.org/TR/2001/REC-SVG-20010904/DTD/svg10.dtd">
<svg version="1.0" xmlns="http://www.w3.org/2000/svg"
 width="520.000000pt" height="520.000000pt" viewBox="0 0 520.000000 520.000000"
 preserveAspectRatio="xMidYMid meet">
<metadata>
Created by potrace 1.14, written by Peter Selinger 2001-2017
</metadata>
<g transform="translate(0.000000,520.000000) scale(0.100000,-0.100000)"
fill="#000000" stroke="none">
<path d="M2517 4935 c-1 -1 -47 -5 -102 -9 -104 -6 -192 -18 -285 -36 -30 -7
-68 -14 -85 -17 -34 -6 -250 -69 -280 -82 -11 -5 -51 -21 -90 -37 -196 -78
-402 -197 -590 -341 -203 -155 -453 -445 -585 -678 -136 -238 -241 -538 -276
-785 -4 -30 -8 -57 -9 -60 -15 -63 -21 -340 -10 -485 11 -139 59 -384 95 -485
5 -14 23 -65 41 -115 47 -132 145 -325 233 -458 304 -462 761 -804 1295 -972
105 -33 313 -78 416 -90 28 -3 66 -9 85 -12 50 -7 373 -7 445 1 33 3 76 8 95
10 19 2 77 11 128 20 554 98 1070 397 1432 831 68 82 200 267 200 281 0 4 6
15 14 23 48 55 174 339 220 496 14 50 30 104 35 120 23 74 50 247 58 365 35
518 -80 976 -357 1417 -108 173 -321 410 -495 553 -79 64 -321 230 -337 230
-4 0 -30 14 -58 31 -60 37 -241 115 -367 157 -166 57 -372 100 -558 117 -67 7
-302 14 -308 10z m131 -3794 c-1 -15 2 -33 6 -40 4 -6 1 -11 -6 -11 -9 0 -9
-3 2 -10 12 -8 12 -10 -5 -10 -13 0 -16 -3 -8 -8 7 -4 13 -22 15 -40 1 -18 7
-32 13 -32 5 0 3 -5 -5 -10 -11 -7 -11 -10 -2 -10 8 0 10 -5 5 -12 -4 -7 -8
-20 -8 -28 0 -8 -14 -17 -32 -21 -32 -6 -36 -2 -32 28 0 3 -6 10 -15 15 -9 5
-14 13 -11 18 3 5 -4 11 -15 15 -18 6 -24 17 -21 38 0 4 -4 7 -11 7 -6 0 -9 3
-5 6 3 3 1 18 -4 32 -8 20 -7 23 4 14 9 -8 17 -8 27 0 13 8 12 9 -2 5 -21 -7
-31 18 -12 33 13 12 18 7 15 -13 -1 -5 4 -7 11 -5 7 3 19 -3 28 -11 8 -9 12
-12 8 -7 -10 12 -11 32 -1 23 9 -10 34 13 27 25 -6 10 13 38 27 38 4 0 7 -13
7 -29z m-38 -15 c0 -3 -4 -8 -10 -11 -5 -3 -10 -1 -10 4 0 6 5 11 10 11 6 0
10 -2 10 -4z"/>
<path d="M2547 1069 c-13 -8 -15 -14 -7 -29 13 -25 13 -33 -2 -24 -9 5 -9 2 1
-9 7 -9 19 -17 25 -17 6 0 4 5 -4 10 -14 9 -7 15 15 10 6 -1 0 8 -13 20 -22
21 -22 23 -5 36 21 16 16 18 -10 3z"/>
<path d="M2560 1046 c0 -2 7 -7 16 -10 8 -3 12 -2 9 4 -6 10 -25 14 -25 6z"/>
</g>
</svg>
